<?xml version="1.0" encoding="UTF-8" standalone="no"?>
<svg
   xmlns:dc="http://purl.org/dc/elements/1.1/"
   xmlns:cc="http://creativecommons.org/ns#"
   xmlns:rdf="http://www.w3.org/1999/02/22-rdf-syntax-ns#"
   xmlns:svg="http://www.w3.org/2000/svg"
   xmlns="http://www.w3.org/2000/svg"
   xmlns:sodipodi="http://sodipodi.sourceforge.net/DTD/sodipodi-0.dtd"
   xmlns:inkscape="http://www.inkscape.org/namespaces/inkscape"
   id="svg8"
   version="1.1"
   viewBox="0 0 169.33333 127"
   height="480"
   width="640"
   sodipodi:docname="BokuNoSainou.svg"
   inkscape:version="1.0.1 (3bc2e813f5, 2020-09-07)">
  <sodipodi:namedview
     pagecolor="#ffffff"
     bordercolor="#666666"
     borderopacity="1"
     objecttolerance="10"
     gridtolerance="10"
     guidetolerance="10"
     inkscape:pageopacity="0"
     inkscape:pageshadow="2"
     inkscape:window-width="1920"
     inkscape:window-height="1017"
     id="namedview1834"
     showgrid="false"
     inkscape:zoom="6.875"
     inkscape:cx="200.01906"
     inkscape:cy="245.96364"
     inkscape:window-x="-8"
     inkscape:window-y="-8"
     inkscape:window-maximized="1"
     inkscape:current-layer="svg8" />
  <title
     id="title815">Boku no Sainou</title>
  <defs
     id="defs2" />
  <metadata
     id="metadata5">
    <rdf:RDF>
      <cc:Work
         rdf:about="">
        <dc:format>image/svg+xml</dc:format>
        <dc:type
           rdf:resource="http://purl.org/dc/dcmitype/StillImage" />
        <dc:title>Boku no Sainou</dc:title>
        <cc:license
           rdf:resource="http://creativecommons.org/publicdomain/zero/1.0/" />
        <dc:date>2020/7/20</dc:date>
      </cc:Work>
      <cc:License
         rdf:about="http://creativecommons.org/publicdomain/zero/1.0/">
        <cc:permits
           rdf:resource="http://creativecommons.org/ns#Reproduction" />
        <cc:permits
           rdf:resource="http://creativecommons.org/ns#Distribution" />
        <cc:permits
           rdf:resource="http://creativecommons.org/ns#DerivativeWorks" />
      </cc:License>
    </rdf:RDF>
  </metadata>
  <g
     id="layer2">
    <rect
       y="-3.8146973e-06"
       x="0"
       height="127"
       width="169.33333"
       id="rect920"
       style="opacity:1;fill:#ffffff;fill-opacity:1;stroke:none;stroke-width:3.36558;stroke-miterlimit:4;stroke-dasharray:none;stroke-opacity:1" />
  </g>
  <g
     id="layer3">
    <rect
       y="9.2343588"
       x="16.061476"
       height="103.79234"
       width="2.3769953"
       id="rect831"
       style="opacity:1;fill:#787878;fill-opacity:1;stroke:none;stroke-width:0.957932;stroke-miterlimit:4;stroke-dasharray:none;stroke-opacity:1" />
    <rect
       y="75.648933"
       x="2.7755576e-16"
       height="1.959589"
       width="169.33333"
       id="rect837"
       style="opacity:1;fill:#787878;fill-opacity:1;stroke:none;stroke-width:5.04974;stroke-miterlimit:4;stroke-dasharray:none;stroke-opacity:1" />
  </g>
  <g
     id="layer5">
    <ellipse
       ry="2.9065561"
       rx="21.849285"
       cy="99.771919"
       cx="110.71641"
       id="path849"
       style="opacity:1;fill:#dbdbdb;fill-opacity:1;stroke:none;stroke-width:2.72863;stroke-miterlimit:4;stroke-dasharray:none;stroke-opacity:1" />
  </g>
  <g
     style="display:inline"
     id="layer4">
    <path
       id="path844"
       d="m 112.28661,48.756845 3.50791,-9.387843 -7.45014,-15.902536 -0.46772,0.701583 -4.3961,35.358555 c 0,0 15.49752,-5.728457 23.23596,8.272875 0,0 8.92456,13.69978 -8.21589,24.221622 0,0 -15.88335,8.173049 -24.701856,-9.052447 0,0 -3.328039,-7.150769 0.280099,-14.500681 l 2.138157,-6.080381 5.0113,-16.102989 6.54811,-26.526501 14.03165,18.040693 c 0,0 0.80181,1.5368 0.26727,2.004522 z"
       style="opacity:1;fill:#787878;fill-opacity:1;stroke:none;stroke-width:0.264583px;stroke-linecap:butt;stroke-linejoin:miter;stroke-opacity:1" />
    <ellipse
       ry="11.339285"
       rx="11.362908"
       cy="74.366821"
       cx="114.12518"
       id="path846"
       style="opacity:1;fill:#dbdbdb;fill-opacity:1;stroke:none;stroke-width:2.05235;stroke-miterlimit:4;stroke-dasharray:none;stroke-opacity:1" />
  </g>
  <g
     inkscape:groupmode="layer"
     id="layer6"
     inkscape:label="text">
    <g
       aria-label="GENIOUS_"
       transform="scale(-0.97260701,1.0281645)"
       id="text2399-3"
       style="font-style:normal;font-weight:normal;font-size:4.1439px;line-height:1.25;font-family:sans-serif;fill:#4e4e4c;fill-opacity:1;stroke:none;stroke-width:0.103598">
      <path
         d="m -53.779577,66.481285 q -0.246854,0.113309 -0.540245,0.198292 -0.291368,0.08296 -0.564526,0.08296 -0.352069,0 -0.645461,-0.09712 -0.293391,-0.09712 -0.499777,-0.291368 -0.208409,-0.196269 -0.321718,-0.48966 -0.11331,-0.295415 -0.11331,-0.689975 0,-0.72235 0.420865,-1.139168 0.422888,-0.418842 1.159401,-0.418842 0.256971,0 0.524058,0.06273 0.269111,0.0607 0.578689,0.208409 v 0.475497 h -0.03642 q -0.06273,-0.04856 -0.182105,-0.127474 -0.11938,-0.07891 -0.234713,-0.13152 -0.139614,-0.06273 -0.317672,-0.103193 -0.176035,-0.04249 -0.400631,-0.04249 -0.505847,0 -0.801262,0.325766 -0.293391,0.323742 -0.293391,0.87815 0,0.584759 0.307555,0.910525 0.307555,0.323742 0.837683,0.323742 0.194245,0 0.386467,-0.03844 0.194245,-0.03844 0.339929,-0.09915 v -0.738537 h -0.807332 v -0.35207 h 1.203917 z"
         style="fill:#4e4e4c;fill-opacity:1;stroke-width:0.103598"
         id="path3145" />
      <path
         d="m -51.094541,66.703857 h -1.984944 v -3.012825 h 1.984944 v 0.356116 h -1.584313 v 0.825543 h 1.584313 v 0.356116 h -1.584313 v 1.118934 h 1.584313 z"
         style="fill:#4e4e4c;fill-opacity:1;stroke-width:0.103598"
         id="path3147" />
      <path
         d="m -48.160627,66.703857 h -0.49573 l -1.428513,-2.695153 v 2.695153 h -0.374327 v -3.012825 h 0.621181 l 1.303062,2.46044 v -2.46044 h 0.374327 z"
         style="fill:#4e4e4c;fill-opacity:1;stroke-width:0.103598"
         id="path3149" />
      <path
         d="m -46.297086,66.703857 h -1.189753 v -0.307555 h 0.394561 v -2.397715 h -0.394561 v -0.307555 h 1.189753 v 0.307555 h -0.394561 v 2.397715 h 0.394561 z"
         style="fill:#4e4e4c;fill-opacity:1;stroke-width:0.103598"
         id="path3151" />
      <path
         d="m -43.369243,64.037031 q 0.184128,0.202339 0.281251,0.49573 0.09915,0.293392 0.09915,0.665695 0,0.372304 -0.101169,0.667719 -0.09915,0.293391 -0.279228,0.48966 -0.186152,0.204362 -0.441099,0.307555 -0.252923,0.103192 -0.578689,0.103192 -0.317672,0 -0.578689,-0.105216 -0.258994,-0.105216 -0.441099,-0.305531 -0.182105,-0.200316 -0.281251,-0.491684 -0.09712,-0.291368 -0.09712,-0.665695 0,-0.368256 0.09712,-0.659624 0.09712,-0.293392 0.283275,-0.501801 0.178058,-0.198292 0.441098,-0.303508 0.265064,-0.105216 0.576666,-0.105216 0.323742,0 0.580713,0.107239 0.258993,0.105217 0.439075,0.301485 z m -0.03642,1.161425 q 0,-0.586782 -0.263041,-0.904454 -0.26304,-0.319696 -0.718303,-0.319696 -0.459309,0 -0.722349,0.319696 -0.261017,0.317672 -0.261017,0.904454 0,0.592853 0.267087,0.908502 0.267087,0.313625 0.716279,0.313625 0.449193,0 0.714257,-0.313625 0.267087,-0.315649 0.267087,-0.908502 z"
         style="fill:#4e4e4c;fill-opacity:1;stroke-width:0.103598"
         id="path3153" />
      <path
         d="m -40.085283,65.493871 q 0,0.327789 -0.07284,0.572619 -0.07082,0.242807 -0.234713,0.404678 -0.155801,0.153777 -0.36421,0.224596 -0.208409,0.07082 -0.485614,0.07082 -0.283274,0 -0.493706,-0.07487 -0.210433,-0.07487 -0.354093,-0.220549 -0.163895,-0.165918 -0.236737,-0.400631 -0.07082,-0.234713 -0.07082,-0.576666 v -1.802839 h 0.40063 v 1.823073 q 0,0.24483 0.03238,0.386467 0.0344,0.141637 0.113309,0.25697 0.08903,0.131521 0.240784,0.198293 0.153777,0.06677 0.368256,0.06677 0.216503,0 0.368257,-0.06475 0.151754,-0.06677 0.242807,-0.200316 0.07891,-0.115333 0.111286,-0.26304 0.0344,-0.149731 0.0344,-0.37028 v -1.83319 h 0.400631 z"
         style="fill:#4e4e4c;fill-opacity:1;stroke-width:0.103598"
         id="path3155" />
      <path
         d="m -37.131136,65.843917 q 0,0.176035 -0.08296,0.348023 -0.08094,0.171988 -0.228643,0.291368 -0.161871,0.129497 -0.378374,0.202339 -0.214479,0.07284 -0.517987,0.07284 -0.325766,0 -0.586783,-0.0607 -0.258994,-0.0607 -0.528104,-0.180081 v -0.501801 h 0.02833 q 0.228643,0.190199 0.528104,0.293392 0.299462,0.103192 0.562502,0.103192 0.372304,0 0.57869,-0.139613 0.208409,-0.139614 0.208409,-0.372304 0,-0.200315 -0.09915,-0.295415 -0.09712,-0.0951 -0.297439,-0.147707 -0.151754,-0.04047 -0.329812,-0.06677 -0.176035,-0.0263 -0.374327,-0.06677 -0.400631,-0.08498 -0.594876,-0.289344 -0.192222,-0.206386 -0.192222,-0.536198 0,-0.378374 0.319695,-0.619157 0.319696,-0.242807 0.811379,-0.242807 0.317672,0 0.582736,0.0607 0.265064,0.0607 0.469426,0.149731 v 0.473473 h -0.02833 q -0.171988,-0.145684 -0.453239,-0.240784 -0.279228,-0.09712 -0.572619,-0.09712 -0.321719,0 -0.517988,0.133543 -0.194245,0.133544 -0.194245,0.343976 0,0.188176 0.09712,0.295415 0.09712,0.10724 0.341952,0.163895 0.129497,0.02833 0.368257,0.06879 0.23876,0.04047 0.404678,0.08296 0.335882,0.08903 0.505847,0.26911 0.169965,0.180082 0.169965,0.503824 z"
         style="fill:#4e4e4c;fill-opacity:1;stroke-width:0.103598"
         id="path3157" />
      <path
         d="m -34.24983,67.310874 h -2.65064 v -0.242807 h 2.65064 z"
         style="fill:#4e4e4c;fill-opacity:1;stroke-width:0.103598"
         id="path3159" />
    </g>
    <g
       aria-label="GENIOUS_"
       transform="scale(0.972607,1.0281645)"
       id="text2399"
       style="font-style:normal;font-weight:normal;font-size:4.14391px;line-height:1.25;font-family:sans-serif;fill:#bebebc;fill-opacity:1;stroke:none;stroke-width:0.103598">
      <path
         d="m 60.706422,66.481284 q -0.246854,0.11331 -0.540246,0.198293 -0.291369,0.08296 -0.564527,0.08296 -0.35207,0 -0.645462,-0.09712 -0.293392,-0.09712 -0.499778,-0.291369 -0.20841,-0.196269 -0.32172,-0.489661 -0.11331,-0.295415 -0.11331,-0.689977 0,-0.722352 0.420866,-1.139171 0.422889,-0.418842 1.159404,-0.418842 0.256971,0 0.524059,0.06273 0.269112,0.0607 0.578691,0.20841 v 0.475497 h -0.03642 q -0.06273,-0.04856 -0.182106,-0.127474 -0.11938,-0.07891 -0.234713,-0.13152 -0.139615,-0.06273 -0.317673,-0.103193 -0.176035,-0.04249 -0.400632,-0.04249 -0.505849,0 -0.801264,0.325767 -0.293392,0.323743 -0.293392,0.878152 0,0.584761 0.307556,0.910528 0.307556,0.323743 0.837685,0.323743 0.194245,0 0.386468,-0.03844 0.194246,-0.03844 0.33993,-0.09915 v -0.738539 h -0.807334 v -0.35207 h 1.203919 z"
         style="fill:#bebebc;fill-opacity:1;stroke-width:0.103598"
         id="path3128" />
      <path
         d="m 63.391465,66.703857 h -1.984949 v -3.012833 h 1.984949 v 0.356118 h -1.584317 v 0.825544 h 1.584317 v 0.356118 h -1.584317 v 1.118936 h 1.584317 z"
         style="fill:#bebebc;fill-opacity:1;stroke-width:0.103598"
         id="path3130" />
      <path
         d="m 66.325386,66.703857 h -0.495731 l -1.428516,-2.69516 v 2.69516 h -0.374328 v -3.012833 h 0.621182 l 1.303065,2.460447 v -2.460447 h 0.374328 z"
         style="fill:#bebebc;fill-opacity:1;stroke-width:0.103598"
         id="path3132" />
      <path
         d="m 68.188932,66.703857 h -1.189756 v -0.307555 h 0.394562 V 63.99858 h -0.394562 v -0.307556 h 1.189756 V 63.99858 H 67.79437 v 2.397722 h 0.394562 z"
         style="fill:#bebebc;fill-opacity:1;stroke-width:0.103598"
         id="path3134" />
      <path
         d="m 71.116781,64.037025 q 0.184129,0.202339 0.281252,0.495731 0.09915,0.293392 0.09915,0.665697 0,0.372304 -0.101169,0.66772 -0.09915,0.293392 -0.279229,0.489661 -0.186152,0.204362 -0.441099,0.307556 -0.252924,0.103193 -0.578691,0.103193 -0.317673,0 -0.57869,-0.105217 -0.258995,-0.105216 -0.4411,-0.305532 -0.182106,-0.200316 -0.281252,-0.491685 -0.09712,-0.291369 -0.09712,-0.665696 0,-0.368258 0.09712,-0.659627 0.09712,-0.293392 0.283275,-0.501801 0.178059,-0.198293 0.4411,-0.303509 0.265065,-0.105217 0.576667,-0.105217 0.323743,0 0.580714,0.10724 0.258994,0.105217 0.439076,0.301486 z m -0.03642,1.161428 q 0,-0.586784 -0.263041,-0.904457 -0.263041,-0.319696 -0.718304,-0.319696 -0.459311,0 -0.722352,0.319696 -0.261018,0.317673 -0.261018,0.904457 0,0.592854 0.267088,0.908503 0.267088,0.313626 0.716282,0.313626 0.449193,0 0.714257,-0.313626 0.267088,-0.315649 0.267088,-0.908503 z"
         style="fill:#bebebc;fill-opacity:1;stroke-width:0.103598"
         id="path3136" />
      <path
         d="m 74.400749,65.493868 q 0,0.32779 -0.07284,0.57262 -0.07082,0.242808 -0.234714,0.404679 -0.155801,0.153778 -0.364211,0.224597 -0.208409,0.07082 -0.485614,0.07082 -0.283275,0 -0.493708,-0.07487 -0.210433,-0.07487 -0.354094,-0.22055 -0.163895,-0.165918 -0.236737,-0.400632 -0.07082,-0.234713 -0.07082,-0.576667 v -1.802844 h 0.400632 v 1.823078 q 0,0.244831 0.03237,0.386468 0.0344,0.141638 0.11331,0.256971 0.08903,0.131521 0.240784,0.198293 0.153778,0.06677 0.368258,0.06677 0.216503,0 0.368258,-0.06475 0.151754,-0.06677 0.242807,-0.200316 0.07891,-0.115333 0.111286,-0.263041 0.0344,-0.149731 0.0344,-0.370281 v -1.833195 h 0.400632 z"
         style="fill:#bebebc;fill-opacity:1;stroke-width:0.103598"
         id="path3138" />
      <path
         d="m 77.354904,65.843915 q 0,0.176035 -0.08296,0.348024 -0.08094,0.171988 -0.228643,0.291369 -0.161872,0.129497 -0.378375,0.202339 -0.21448,0.07284 -0.517989,0.07284 -0.325766,0 -0.586784,-0.0607 -0.258994,-0.0607 -0.528105,-0.180082 v -0.501801 h 0.02833 q 0.228644,0.190199 0.528106,0.293392 0.299462,0.103193 0.562503,0.103193 0.372305,0 0.578691,-0.139614 0.208409,-0.139615 0.208409,-0.372305 0,-0.200316 -0.09915,-0.295415 -0.09712,-0.0951 -0.297439,-0.147708 -0.151754,-0.04047 -0.329813,-0.06677 -0.176035,-0.0263 -0.374328,-0.06677 -0.400632,-0.08498 -0.594877,-0.289345 -0.192223,-0.206386 -0.192223,-0.5362 0,-0.378374 0.319696,-0.619158 0.319696,-0.242807 0.811381,-0.242807 0.317673,0 0.582737,0.0607 0.265065,0.0607 0.469428,0.149731 V 64.3203 h -0.02833 q -0.171988,-0.145684 -0.45324,-0.240784 -0.279228,-0.09712 -0.57262,-0.09712 -0.32172,0 -0.517989,0.133544 -0.194246,0.133544 -0.194246,0.343977 0,0.188176 0.09712,0.295415 0.09712,0.10724 0.341954,0.163895 0.129497,0.02833 0.368257,0.0688 0.238761,0.04047 0.404679,0.08296 0.335883,0.08903 0.505848,0.269111 0.169965,0.180082 0.169965,0.503825 z"
         style="fill:#bebebc;fill-opacity:1;stroke-width:0.103598"
         id="path3140" />
      <path
         d="m 80.236216,67.310875 h -2.650645 v -0.242807 h 2.650645 z"
         style="fill:#bebebc;fill-opacity:1;stroke-width:0.103598"
         id="path3142" />
    </g>
  </g>
</svg>
