<?xml version="1.0" encoding="UTF-8" standalone="no"?>
<svg
   xmlns:dc="http://purl.org/dc/elements/1.1/"
   xmlns:cc="http://creativecommons.org/ns#"
   xmlns:rdf="http://www.w3.org/1999/02/22-rdf-syntax-ns#"
   xmlns:svg="http://www.w3.org/2000/svg"
   xmlns="http://www.w3.org/2000/svg"
   id="svg8"
   version="1.1"
   viewBox="0 0 169.33333 127"
   height="480"
   width="640">
  <title
     id="title815">Boku no Sainou</title>
  <defs
     id="defs2" />
  <metadata
     id="metadata5">
    <rdf:RDF>
      <cc:Work
         rdf:about="">
        <dc:format>image/svg+xml</dc:format>
        <dc:type
           rdf:resource="http://purl.org/dc/dcmitype/StillImage" />
        <dc:title>Boku no Sainou</dc:title>
        <cc:license
           rdf:resource="http://creativecommons.org/publicdomain/zero/1.0/" />
        <dc:date>2020/7/20</dc:date>
      </cc:Work>
      <cc:License
         rdf:about="http://creativecommons.org/publicdomain/zero/1.0/">
        <cc:permits
           rdf:resource="http://creativecommons.org/ns#Reproduction" />
        <cc:permits
           rdf:resource="http://creativecommons.org/ns#Distribution" />
        <cc:permits
           rdf:resource="http://creativecommons.org/ns#DerivativeWorks" />
      </cc:License>
    </rdf:RDF>
  </metadata>
  <g
     id="layer2">
    <rect
       y="-3.8146973e-06"
       x="0"
       height="127"
       width="169.33333"
       id="rect920"
       style="opacity:1;fill:#ffffff;fill-opacity:1;stroke:none;stroke-width:3.36557817;stroke-miterlimit:4;stroke-dasharray:none;stroke-opacity:1" />
  </g>
  <g
     id="layer3">
    <rect
       y="9.2343588"
       x="16.061476"
       height="103.79234"
       width="2.3769953"
       id="rect831"
       style="opacity:1;fill:#787878;fill-opacity:1;stroke:none;stroke-width:0.95793247;stroke-miterlimit:4;stroke-dasharray:none;stroke-opacity:1" />
    <rect
       y="75.648933"
       x="2.7755576e-16"
       height="1.959589"
       width="169.33333"
       id="rect837"
       style="opacity:1;fill:#787878;fill-opacity:1;stroke:none;stroke-width:5.04974222;stroke-miterlimit:4;stroke-dasharray:none;stroke-opacity:1" />
  </g>
  <g
     id="layer5">
    <ellipse
       ry="2.9065561"
       rx="21.849285"
       cy="99.771919"
       cx="110.71641"
       id="path849"
       style="opacity:1;fill:#dbdbdb;fill-opacity:1;stroke:none;stroke-width:2.72863412;stroke-miterlimit:4;stroke-dasharray:none;stroke-opacity:1" />
  </g>
  <g
     style="display:inline"
     id="layer4">
    <path
       id="path844"
       d="m 112.28661,48.756845 3.50791,-9.387843 -7.45014,-15.902536 -0.46772,0.701583 -4.3961,35.358555 c 0,0 15.49752,-5.728457 23.23596,8.272875 0,0 8.92456,13.69978 -8.21589,24.221622 0,0 -15.88335,8.173049 -24.701856,-9.052447 0,0 -3.328039,-7.150769 0.280099,-14.500681 l 2.138157,-6.080381 5.0113,-16.102989 6.54811,-26.526501 14.03165,18.040693 c 0,0 0.80181,1.5368 0.26727,2.004522 z"
       style="opacity:1;fill:#787878;fill-opacity:1;stroke:none;stroke-width:0.26458332px;stroke-linecap:butt;stroke-linejoin:miter;stroke-opacity:1" />
    <ellipse
       ry="11.339285"
       rx="11.362908"
       cy="74.366821"
       cx="114.12518"
       id="path846"
       style="opacity:1;fill:#dbdbdb;fill-opacity:1;stroke:none;stroke-width:2.05235434;stroke-miterlimit:4;stroke-dasharray:none;stroke-opacity:1" />
  </g>
  <g
     id="layer6">
    <g
       id="text858"
       style="font-style:normal;font-variant:normal;font-weight:normal;font-stretch:normal;font-size:8.19584084px;line-height:1.25;font-family:'Berlin Sans FB';-inkscape-font-specification:'Berlin Sans FB';letter-spacing:0px;word-spacing:0px;fill:#4e4e4c;fill-opacity:1;stroke:none;stroke-width:0.21953146"
       transform="matrix(-0.49983866,0,0,0.53093579,72.666074,43.635595)"
       aria-label="GENIOUS_">
      <path
         id="path860"
         style="font-style:normal;font-variant:normal;font-weight:normal;font-stretch:normal;font-family:sans-serif;-inkscape-font-specification:sans-serif;fill:#4e4e4c;fill-opacity:1;stroke-width:0.22527654"
         d="m 41.027432,46.510121 q -0.534316,0.215634 -1.169363,0.377359 -0.630669,0.157873 -1.22192,0.157873 -0.762057,0 -1.397104,-0.184827 -0.635048,-0.184828 -1.081771,-0.554485 -0.451103,-0.373508 -0.696362,-0.931843 -0.24526,-0.562186 -0.24526,-1.313051 0,-1.374661 0.910965,-2.167882 0.915344,-0.797072 2.509532,-0.797072 0.556214,0 1.134327,0.119368 0.582491,0.115519 1.252576,0.396612 v 0.904887 h -0.07883 q -0.135769,-0.09241 -0.394168,-0.242586 -0.258399,-0.150174 -0.508039,-0.250289 -0.302194,-0.119369 -0.687602,-0.196379 -0.381029,-0.08087 -0.867169,-0.08087 -1.094909,0 -1.734337,0.619945 -0.635048,0.616093 -0.635048,1.671155 0,1.112821 0.665706,1.732766 0.665705,0.616094 1.813169,0.616094 0.420446,0 0.836512,-0.07316 0.420446,-0.07317 0.73578,-0.188679 V 44.719594 H 38.42155 v -0.670002 h 2.605885 z" />
      <path
         id="path862"
         style="font-style:normal;font-variant:normal;font-weight:normal;font-stretch:normal;font-family:sans-serif;-inkscape-font-specification:sans-serif;fill:#4e4e4c;fill-opacity:1;stroke-width:0.19544742"
         d="m 45.836629,47.05412 h -3.169644 v -5.849876 h 3.169644 V 41.8957 H 43.30673 l -0.01182,1.94775 h 2.529899 v 0.691456 h -2.529899 l 0.01182,1.827758 h 2.529899 z" />
      <path
         id="path864"
         style="font-style:normal;font-variant:normal;font-weight:normal;font-stretch:normal;font-family:sans-serif;-inkscape-font-specification:sans-serif;fill:#4e4e4c;fill-opacity:1;stroke-width:0.2167149"
         d="M 52.228191,47.05412 H 51.25494 L 48.450385,41.821054 V 47.05412 H 47.71548 v -5.849876 h 1.219544 l 2.558262,4.777333 v -4.777333 h 0.734905 z" />
      <path
         id="path868"
         style="font-style:normal;font-variant:normal;font-weight:normal;font-stretch:normal;font-family:sans-serif;-inkscape-font-specification:sans-serif;fill:#4e4e4c;fill-opacity:1;stroke-width:0.2305906"
         d="m 61.891783,41.724144 q 0.406153,0.395883 0.620387,0.969916 0.218698,0.574032 0.218698,1.30246 0,0.728427 -0.223161,1.306418 -0.218698,0.574033 -0.615924,0.958041 -0.410617,0.399843 -0.972983,0.601744 -0.557903,0.2019 -1.276481,0.2019 -0.700725,0 -1.276481,-0.205859 -0.571292,-0.20586 -0.972982,-0.597785 -0.401691,-0.391927 -0.620387,-0.962 -0.214235,-0.570073 -0.214235,-1.302459 0,-0.720509 0.214235,-1.290584 0.214234,-0.574032 0.62485,-0.981792 0.392763,-0.387967 0.972983,-0.593828 0.584681,-0.205859 1.272017,-0.205859 0.714115,0 1.280945,0.209818 0.571293,0.20586 0.968519,0.589869 z m -0.08033,2.272376 q 0,-1.148065 -0.580219,-1.769604 -0.580219,-0.625498 -1.584443,-0.625498 -1.013151,0 -1.59337,0.625498 -0.575755,0.621539 -0.575755,1.769604 0,1.159941 0.589145,1.777521 0.589145,0.613621 1.57998,0.613621 0.990835,0 1.575517,-0.613621 0.589145,-0.61758 0.589145,-1.777521 z" />
      <path
         id="path870"
         style="font-style:normal;font-variant:normal;font-weight:normal;font-stretch:normal;font-family:sans-serif;-inkscape-font-specification:sans-serif;fill:#4e4e4c;fill-opacity:1;stroke-width:0.19838735"
         d="m 68.426297,44.734254 q 0,0.597326 -0.127693,1.043476 -0.124146,0.442465 -0.411456,0.73744 -0.273121,0.280227 -0.638466,0.409279 -0.365343,0.129051 -0.851287,0.129051 -0.496586,0 -0.865477,-0.136426 -0.368891,-0.136426 -0.62073,-0.401904 -0.28731,-0.30235 -0.415004,-0.730066 -0.124145,-0.427714 -0.124145,-1.05085 v -3.285292 h 0.702312 v 3.322164 q 0,0.446151 0.05676,0.704254 0.0603,0.258104 0.198633,0.468275 0.156071,0.239667 0.422097,0.361345 0.269575,0.121678 0.645561,0.121678 0.379532,0 0.64556,-0.117991 0.266027,-0.121677 0.425643,-0.365032 0.138335,-0.210171 0.195087,-0.479337 0.0603,-0.272852 0.0603,-0.674756 v -3.3406 h 0.702312 z" />
      <path
         id="path872"
         style="font-style:normal;font-variant:normal;font-weight:normal;font-stretch:normal;font-family:sans-serif;-inkscape-font-specification:sans-serif;fill:#4e4e4c;fill-opacity:1;stroke-width:0.1786081"
         d="m 73.008773,45.425502 q 0,0.312413 -0.121034,0.617645 -0.118082,0.305232 -0.333583,0.517099 -0.236165,0.229821 -0.552035,0.359095 -0.312918,0.129275 -0.755727,0.129275 -0.475282,0 -0.856098,-0.107728 -0.377864,-0.10773 -0.770488,-0.319596 v -0.890558 h 0.04133 q 0.333583,0.33755 0.770488,0.52069 0.436905,0.183138 0.820673,0.183138 0.543179,0 0.844289,-0.247776 0.304062,-0.247777 0.304062,-0.660737 0,-0.355505 -0.144651,-0.524281 -0.141699,-0.168774 -0.433953,-0.262139 -0.221404,-0.07183 -0.481186,-0.118502 -0.256829,-0.04668 -0.546131,-0.118503 -0.584507,-0.150819 -0.867905,-0.513507 -0.280446,-0.366277 -0.280446,-0.951604 0,-0.67151 0.466426,-1.098835 0.466425,-0.430915 1.183775,-0.430915 0.463474,0 0.850194,0.107729 0.38672,0.107729 0.684877,0.265731 v 0.840285 h -0.04133 q -0.250925,-0.258549 -0.661261,-0.427324 -0.407385,-0.172366 -0.835434,-0.172366 -0.469377,0 -0.755726,0.237003 -0.283398,0.237003 -0.283398,0.610464 0,0.333959 0.141699,0.52428 0.141699,0.190322 0.498897,0.290868 0.188933,0.05028 0.537275,0.122092 0.348343,0.07183 0.590412,0.14723 0.490042,0.158002 0.738015,0.477598 0.247973,0.319595 0.247974,0.894149 z" />
      <path
         id="path874"
         style="font-style:normal;font-variant:normal;font-weight:normal;font-stretch:normal;font-family:sans-serif;-inkscape-font-specification:sans-serif;fill:#4e4e4c;fill-opacity:1;stroke-width:0.31763378"
         d="m 79.038277,49.142246 h -5.31335 v -0.991907 h 5.31335 z" />
    </g>
    <rect
       y="65.532654"
       x="45.167118"
       height="3.0856709"
       width="0.56836742"
       id="rect879"
       style="opacity:1;fill:#4e4e4c;fill-opacity:1;stroke:none;stroke-width:1.4291476;stroke-miterlimit:4;stroke-dasharray:none;stroke-opacity:1" />
    <g
       id="text858-9"
       style="font-style:normal;font-variant:normal;font-weight:normal;font-stretch:normal;font-size:8.19584084px;line-height:1.25;font-family:'Berlin Sans FB';-inkscape-font-specification:'Berlin Sans FB';letter-spacing:0px;word-spacing:0px;fill:#bebebc;fill-opacity:1;stroke:none;stroke-width:0.21953146"
       transform="matrix(0.49983866,0,0,0.56773775,38.736245,41.281547)"
       aria-label="GENIOUS_">
      <path
         id="path860-2"
         style="font-style:normal;font-variant:normal;font-weight:normal;font-stretch:normal;font-family:sans-serif;-inkscape-font-specification:sans-serif;fill:#bebebc;fill-opacity:1;stroke-width:0.21376717"
         d="m 41.027432,47.660472 q -0.534316,0.194162 -1.169363,0.339785 -0.630669,0.142154 -1.22192,0.142154 -0.762057,0 -1.397104,-0.166424 -0.635048,-0.166426 -1.081771,-0.499275 -0.451103,-0.336318 -0.696362,-0.839061 -0.24526,-0.506208 -0.24526,-1.18231 0,-1.237787 0.910965,-1.952027 0.915344,-0.717708 2.509532,-0.717708 0.556214,0 1.134327,0.10748 0.582491,0.104012 1.252576,0.357121 v 0.814787 h -0.07883 q -0.135769,-0.08321 -0.394168,-0.218431 -0.258399,-0.135222 -0.508039,-0.225368 -0.302194,-0.107479 -0.687602,-0.176825 -0.381029,-0.07281 -0.867169,-0.07281 -1.094909,0 -1.734337,0.558217 -0.635048,0.554748 -0.635048,1.504758 0,1.002018 0.665706,1.560236 0.665705,0.554749 1.813169,0.554749 0.420446,0 0.836512,-0.06588 0.420446,-0.06588 0.73578,-0.169893 V 46.048226 H 38.42155 v -0.60329 h 2.605885 z" />
      <path
         id="path862-8"
         style="font-style:normal;font-variant:normal;font-weight:normal;font-stretch:normal;font-family:sans-serif;-inkscape-font-specification:sans-serif;fill:#bebebc;fill-opacity:1;stroke-width:0.18546201"
         d="m 45.836629,48.150304 h -3.169644 v -5.267405 h 3.169644 v 0.622608 H 43.30673 l -0.01182,1.753814 h 2.529899 v 0.622607 H 43.29491 l 0.01182,1.645769 h 2.529899 z" />
      <path
         id="path864-2"
         style="font-style:normal;font-variant:normal;font-weight:normal;font-stretch:normal;font-family:sans-serif;-inkscape-font-specification:sans-serif;fill:#bebebc;fill-opacity:1;stroke-width:0.20564294"
         d="M 52.228191,48.150304 H 51.25494 l -2.804555,-4.712011 v 4.712011 H 47.71548 v -5.267405 h 1.219544 l 2.558262,4.301655 v -4.301655 h 0.734905 z" />
      <path
         id="path868-7"
         style="font-style:normal;font-variant:normal;font-weight:normal;font-stretch:normal;font-family:sans-serif;-inkscape-font-specification:sans-serif;fill:#bebebc;fill-opacity:1;stroke-width:0.21880972"
         d="m 61.891783,43.351032 q 0.406153,0.356466 0.620387,0.873342 0.218698,0.516877 0.218698,1.172774 0,0.655898 -0.223161,1.17634 -0.218698,0.516876 -0.615924,0.862649 -0.410617,0.36003 -0.972983,0.541827 -0.557903,0.181798 -1.276481,0.181798 -0.700725,0 -1.276481,-0.185361 -0.571292,-0.185363 -0.972982,-0.538264 -0.401691,-0.352903 -0.620387,-0.866214 -0.214235,-0.513312 -0.214235,-1.172775 0,-0.648767 0.214235,-1.162079 0.214234,-0.516877 0.62485,-0.884037 0.392763,-0.349336 0.972983,-0.5347 0.584681,-0.185362 1.272017,-0.185362 0.714115,0 1.280945,0.188926 0.571293,0.185364 0.968519,0.531136 z m -0.08033,2.046116 q 0,-1.033751 -0.580219,-1.593404 -0.580219,-0.563218 -1.584443,-0.563218 -1.013151,0 -1.59337,0.563218 -0.575755,0.559653 -0.575755,1.593404 0,1.044446 0.589145,1.600535 0.589145,0.552522 1.57998,0.552522 0.990835,0 1.575517,-0.552522 0.589145,-0.556089 0.589145,-1.600535 z" />
      <path
         id="path870-2"
         style="font-style:normal;font-variant:normal;font-weight:normal;font-stretch:normal;font-family:sans-serif;-inkscape-font-specification:sans-serif;fill:#bebebc;fill-opacity:1;stroke-width:0.18825175"
         d="m 68.426297,46.061427 q 0,0.53785 -0.127693,0.939577 -0.124146,0.39841 -0.411456,0.664013 -0.273121,0.252326 -0.638466,0.368528 -0.365343,0.116196 -0.851287,0.116196 -0.496586,0 -0.865477,-0.122843 -0.368891,-0.122842 -0.62073,-0.361887 -0.28731,-0.272245 -0.415004,-0.657373 -0.124145,-0.385127 -0.124145,-0.946217 v -2.958176 h 0.702312 v 2.991376 q 0,0.401728 0.05676,0.634132 0.0603,0.232404 0.198633,0.421648 0.156071,0.215805 0.422097,0.325367 0.269575,0.109562 0.645561,0.109562 0.379532,0 0.64556,-0.106245 0.266027,-0.109562 0.425643,-0.328686 0.138335,-0.189244 0.195087,-0.431609 0.0603,-0.245684 0.0603,-0.607571 v -3.007977 h 0.702312 z" />
      <path
         id="path872-1"
         style="font-style:normal;font-variant:normal;font-weight:normal;font-stretch:normal;font-family:sans-serif;-inkscape-font-specification:sans-serif;fill:#bebebc;fill-opacity:1;stroke-width:0.16948302"
         d="m 73.008773,46.683848 q 0,0.281306 -0.121034,0.556146 -0.118082,0.27484 -0.333583,0.465612 -0.236165,0.206937 -0.552035,0.32334 -0.312918,0.116408 -0.755727,0.116408 -0.475282,0 -0.856098,-0.097 -0.377864,-0.097 -0.770488,-0.287774 v -0.80189 h 0.04133 q 0.333583,0.303941 0.770488,0.468845 0.436905,0.164903 0.820673,0.164903 0.543179,0 0.844289,-0.223105 0.304062,-0.223105 0.304062,-0.594948 0,-0.320107 -0.144651,-0.472077 -0.141699,-0.15197 -0.433953,-0.236039 -0.221404,-0.06468 -0.481186,-0.106706 -0.256829,-0.04204 -0.546131,-0.106706 -0.584507,-0.135803 -0.867905,-0.462378 -0.280446,-0.329806 -0.280446,-0.856852 0,-0.604648 0.466426,-0.989425 0.466425,-0.388009 1.183775,-0.388009 0.463474,0 0.850194,0.097 0.38672,0.09701 0.684877,0.239272 v 0.756618 h -0.04133 q -0.250925,-0.232806 -0.661261,-0.384776 -0.407385,-0.155203 -0.835434,-0.155203 -0.469377,0 -0.755726,0.213405 -0.283398,0.213405 -0.283398,0.54968 0,0.300707 0.141699,0.472078 0.141699,0.171371 0.498897,0.261906 0.188933,0.04528 0.537275,0.109936 0.348343,0.06468 0.590412,0.13257 0.490042,0.14227 0.738015,0.430044 0.247973,0.287773 0.247974,0.805121 z" />
      <path
         id="path874-2"
         style="font-style:normal;font-variant:normal;font-weight:normal;font-stretch:normal;font-family:sans-serif;-inkscape-font-specification:sans-serif;fill:#bebebc;fill-opacity:1;stroke-width:0.30170473"
         d="m 79.021567,50.113193 h -5.096123 v -0.933061 h 5.096123 z" />
    </g>
    <rect
       transform="scale(-1,1)"
       y="65.647293"
       x="-66.235207"
       height="2.9710193"
       width="0.56836748"
       id="rect879-6"
       style="opacity:1;fill:#bebebc;fill-opacity:1;stroke:none;stroke-width:1.40234554;stroke-miterlimit:4;stroke-dasharray:none;stroke-opacity:1" />
  </g>
</svg>
