<?xml version="1.0" encoding="UTF-8" standalone="no"?>
<svg
   xmlns:dc="http://purl.org/dc/elements/1.1/"
   xmlns:cc="http://creativecommons.org/ns#"
   xmlns:rdf="http://www.w3.org/1999/02/22-rdf-syntax-ns#"
   xmlns:svg="http://www.w3.org/2000/svg"
   xmlns="http://www.w3.org/2000/svg"
   id="svg8"
   version="1.1"
   viewBox="0 0 169.33333 127"
   height="480"
   width="640">
  <title
     id="title815">Lineart</title>
  <defs
     id="defs2" />
  <metadata
     id="metadata5">
    <rdf:RDF>
      <cc:Work
         rdf:about="">
        <dc:format>image/svg+xml</dc:format>
        <dc:type
           rdf:resource="http://purl.org/dc/dcmitype/StillImage" />
        <dc:title>Lineart</dc:title>
        <dc:date>2020/7/18</dc:date>
        <cc:license
           rdf:resource="http://creativecommons.org/publicdomain/zero/1.0/" />
      </cc:Work>
      <cc:License
         rdf:about="http://creativecommons.org/publicdomain/zero/1.0/">
        <cc:permits
           rdf:resource="http://creativecommons.org/ns#Reproduction" />
        <cc:permits
           rdf:resource="http://creativecommons.org/ns#Distribution" />
        <cc:permits
           rdf:resource="http://creativecommons.org/ns#DerivativeWorks" />
      </cc:License>
    </rdf:RDF>
  </metadata>
  <g
     id="layer5">
    <rect
       y="2.0747397"
       x="2.074743"
       height="122.85052"
       width="165.18387"
       id="rect1501"
       style="display:inline;opacity:1;fill:#ffffff;fill-opacity:1;stroke:#ffffff;stroke-width:4.14948606;stroke-miterlimit:4;stroke-dasharray:none;stroke-opacity:1" />
  </g>
  <g
     id="layer6">
    <path
       id="path841"
       d="m 38.858177,30.090333 c 0,0 31.1369,7.817633 43.765386,7.349911 12.62848,-0.46772 11.49259,-2.271789 15.568448,-6.214015 4.075859,-3.942225 4.209489,-9.488069 24.187889,-10.757599 19.9784,-1.269531 46.95343,3.808591 46.95343,3.808591"
       style="display:inline;opacity:1;fill:none;stroke:#494949;stroke-width:0.5291667;stroke-linecap:butt;stroke-linejoin:miter;stroke-miterlimit:4;stroke-dasharray:none;stroke-opacity:1" />
  </g>
  <g
     style="display:inline"
     id="layer2">
    <path
       id="path831"
       d="m 0,10.872721 21.379278,0.04134 c 0,0 10.425795,5.569988 11.36124,7.106788 0.935442,1.536799 4.476763,1.937704 7.015823,11.358954 2.539061,9.421251 -10.583634,29.683623 -10.583634,29.683623 l -1.635001,1.174195 C 18.028784,62.071117 9.2614636,65.716783 0,68.26752 V 66.329816 22.38355 Z"
       style="opacity:1;fill:#3f3f3f;fill-opacity:1;stroke:none;stroke-width:0.26458332px;stroke-linecap:butt;stroke-linejoin:miter;stroke-opacity:1" />
    <path
       id="path835"
       d="m 148.92262,70.492558 c 0,0 -10.39435,-2.078868 -18.94606,-5.480653 C 121.42485,61.610118 105.64434,55.184523 84.666666,52.916666 63.688988,50.648809 29.065561,59.04672 29.065561,59.04672 l -1.603618,1.202712 c 0,0 -7.229525,10.889296 -10.830991,24.700716 -4.020802,15.419552 4.582961,30.049112 4.582961,30.049112 H 163.63602 l 5.69731,0.008 V 72.429927"
       style="opacity:1;fill:#3f3f3f;fill-opacity:1;stroke:none;stroke-width:0.26458332px;stroke-linecap:butt;stroke-linejoin:miter;stroke-opacity:1" />
  </g>
  <g
     style="display:inline"
     id="layer3">
    <path
       id="path859"
       d="m 33.809596,18.622206 c 0,0 -7.483548,-1.336347 -10.7576,0 -3.274051,1.336348 -13.4971108,5.579252 -23.25244815,34.978901"
       style="fill:none;stroke:#fffffa;stroke-width:0.5291667;stroke-linecap:butt;stroke-linejoin:miter;stroke-miterlimit:4;stroke-dasharray:none;stroke-opacity:1" />
    <path
       id="path861"
       d="m 0,29.446621 c 0,0 3.9351888,16.698065 15.635268,16.036173 3.704595,-0.209575 15.167546,-0.801808 21.114291,0.467722"
       style="fill:none;stroke:#ffffff;stroke-width:0.5291667;stroke-linecap:butt;stroke-linejoin:miter;stroke-miterlimit:4;stroke-dasharray:none;stroke-opacity:1" />
    <path
       id="path863"
       d="m 14.833459,96.264003 c 0,0 88.088531,3.712809 133.601351,-26.326048"
       style="fill:none;stroke:#ffffff;stroke-width:0.5291667;stroke-linecap:butt;stroke-linejoin:miter;stroke-miterlimit:4;stroke-dasharray:none;stroke-opacity:1" />
    <path
       id="path865"
       d="m 50.365326,54.050593 c 0,0 16.536458,15.780507 28.064732,60.948667"
       style="fill:none;stroke:#ffffff;stroke-width:0.5291667;stroke-linecap:butt;stroke-linejoin:miter;stroke-miterlimit:4;stroke-dasharray:none;stroke-opacity:1" />
  </g>
  <g
     id="layer4">
    <g
       id="text897"
       style="font-style:normal;font-variant:normal;font-weight:normal;font-stretch:normal;font-size:3.83648968px;line-height:1.25;font-family:sans-serif;-inkscape-font-specification:sans-serif;letter-spacing:0px;word-spacing:0px;fill:#ffffff;fill-opacity:1;stroke:none;stroke-width:0.10276312"
       transform="scale(0.97031702,1.030591)"
       aria-label="Like Birds_">
      <path
         id="path905"
         style="font-style:normal;font-variant:normal;font-weight:normal;font-stretch:normal;font-family:sans-serif;-inkscape-font-specification:sans-serif;fill:#ffffff;fill-opacity:1;stroke-width:0.09402832"
         d="m 76.946355,61.832424 h -1.471974 v -2.799603 h 0.309396 v 2.468689 h 1.162578 z" />
      <path
         id="path907"
         style="font-style:normal;font-variant:normal;font-weight:normal;font-stretch:normal;font-family:sans-serif;-inkscape-font-specification:sans-serif;fill:#ffffff;fill-opacity:1;stroke-width:0.10276312"
         d="m 77.749778,59.389659 h -0.397136 v -0.365291 h 0.397136 z m -0.02248,2.442765 H 77.37512 v -2.092461 h 0.352178 z" />
      <path
         id="path909"
         style="font-style:normal;font-variant:normal;font-weight:normal;font-stretch:normal;font-family:sans-serif;-inkscape-font-specification:sans-serif;fill:#ffffff;fill-opacity:1;stroke-width:0.10276312"
         d="m 80.305466,61.832424 h -0.464575 l -0.839232,-0.916037 -0.228541,0.217301 v 0.698736 H 78.42094 v -2.914833 h 0.352178 v 1.869539 l 1.017194,-1.047167 h 0.443969 l -0.972235,0.966616 z" />
      <path
         id="path911"
         style="font-style:normal;font-variant:normal;font-weight:normal;font-stretch:normal;font-family:sans-serif;-inkscape-font-specification:sans-serif;fill:#ffffff;fill-opacity:1;stroke-width:0.1020728"
         d="m 82.64309,60.822517 h -1.597604 q 0,0.183705 0.06018,0.321039 0.06018,0.135548 0.165002,0.222943 0.100941,0.08561 0.238767,0.128414 0.139766,0.0428 0.306708,0.0428 0.221297,0 0.444535,-0.08026 0.225179,-0.08204 0.320297,-0.160519 h 0.01941 v 0.365627 q -0.184413,0.07134 -0.376592,0.119497 -0.192179,0.04816 -0.403769,0.04816 -0.539653,0 -0.842479,-0.267532 -0.302827,-0.269315 -0.302827,-0.763357 0,-0.488692 0.289239,-0.775843 0.291179,-0.28715 0.76483,-0.28715 0.438711,0 0.675537,0.235428 0.238767,0.235429 0.238767,0.66883 z m -0.355238,-0.256831 q -0.002,-0.263964 -0.145591,-0.408431 -0.141707,-0.144467 -0.432886,-0.144467 -0.293121,0 -0.467828,0.158735 -0.172767,0.158735 -0.196061,0.394163 z" />
      <path
         id="path913"
         style="font-style:normal;font-variant:normal;font-weight:normal;font-stretch:normal;font-family:sans-serif;-inkscape-font-specification:sans-serif;fill:#ffffff;fill-opacity:1;stroke-width:0.09847448"
         d="m 86.623112,60.981939 q 0,0.206122 -0.07288,0.363964 -0.07288,0.157841 -0.196091,0.259974 -0.145767,0.122559 -0.321034,0.174554 -0.173532,0.05199 -0.442506,0.05199 h -0.916248 v -2.76501 h 0.765275 q 0.282857,0 0.423418,0.02228 0.14056,0.02228 0.268974,0.09284 0.142296,0.07985 0.206502,0.206123 0.06421,0.124416 0.06421,0.29897 0,0.196838 -0.09371,0.33611 -0.09371,0.137414 -0.249886,0.220978 v 0.01486 q 0.262033,0.05756 0.413007,0.246975 0.150972,0.187553 0.150972,0.475382 z m -0.577861,-1.246018 q 0,-0.100277 -0.03124,-0.168984 -0.03124,-0.06871 -0.100649,-0.111417 -0.08156,-0.05014 -0.197827,-0.06128 -0.116265,-0.013 -0.288062,-0.013 h -0.409535 v 0.798492 h 0.444241 q 0.161385,0 0.256827,-0.01671 0.09544,-0.01857 0.177003,-0.07428 0.08157,-0.05571 0.114531,-0.142986 0.03471,-0.08914 0.03471,-0.209835 z m 0.220385,1.260874 q 0,-0.167127 -0.04685,-0.265545 -0.04686,-0.09842 -0.170062,-0.167127 -0.0833,-0.04642 -0.203031,-0.05943 -0.118003,-0.01486 -0.288063,-0.01486 h -0.539684 v 1.028755 h 0.454652 q 0.225593,0 0.369624,-0.02414 0.144031,-0.026 0.236003,-0.09285 0.09718,-0.07242 0.142297,-0.165269 0.04511,-0.09285 0.04511,-0.239547 z" />
      <path
         id="path915"
         style="font-style:normal;font-variant:normal;font-weight:normal;font-stretch:normal;font-family:sans-serif;-inkscape-font-specification:sans-serif;fill:#ffffff;fill-opacity:1;stroke-width:0.1060515"
         d="m 87.448163,59.389659 h -0.42296 v -0.365291 h 0.42296 z m -0.02394,2.442765 h -0.375079 v -2.092461 h 0.375077 z" />
      <path
         id="path917"
         style="font-style:normal;font-variant:normal;font-weight:normal;font-stretch:normal;font-family:sans-serif;-inkscape-font-specification:sans-serif;fill:#ffffff;fill-opacity:1;stroke-width:0.10276312"
         d="m 89.233997,60.124022 h -0.01873 q -0.07868,-0.01873 -0.153609,-0.02623 -0.07306,-0.0094 -0.174216,-0.0094 -0.162976,0 -0.314712,0.07306 -0.151736,0.07118 -0.292232,0.185456 v 1.485516 H 87.92832 v -2.092461 h 0.352178 v 0.309092 q 0.209808,-0.168595 0.369037,-0.237907 0.161103,-0.07118 0.327825,-0.07118 0.09179,0 0.133003,0.0056 0.04121,0.0037 0.123637,0.01686 z" />
      <path
         id="path919"
         style="font-style:normal;font-variant:normal;font-weight:normal;font-stretch:normal;font-family:sans-serif;-inkscape-font-specification:sans-serif;fill:#ffffff;fill-opacity:1;stroke-width:0.10669854"
         d="m 91.524742,61.779047 h -0.386749 v -0.215163 c -0.111087,0.08582 -0.226975,0.152636 -0.347662,0.20045 -0.120687,0.04781 -0.251661,0.07172 -0.39292,0.07172 -0.27429,0 -0.49235,-0.0944 -0.654181,-0.283204 -0.160459,-0.188803 -0.240689,-0.450553 -0.240689,-0.78525 0,-0.174091 0.02743,-0.329179 0.08229,-0.465264 0.05623,-0.136085 0.12862,-0.200367 0.223247,-0.295995 0.09326,-0.09318 0.201602,-0.164283 0.325033,-0.213322 0.124802,-0.04904 0.253718,-0.07356 0.386749,-0.07356 0.120687,0 0.22766,0.01165 0.320918,0.03494 0.09326,0.02207 0.191318,0.05701 0.294176,0.104822 l 0.003,-0.941646 h 0.386749 z m -0.386749,-0.505724 -0.003,-1.127218 c -0.10423,-0.04168 -0.197489,-0.07049 -0.279775,-0.08644 -0.08229,-0.01593 -0.172118,-0.0239 -0.26949,-0.0239 -0.216689,0 -0.385377,0.06743 -0.506065,0.202289 -0.120688,0.134859 -0.177988,0.274539 -0.177988,0.52219 0,0.243973 0.04663,0.429712 0.139888,0.557215 0.09326,0.126277 0.242747,0.189416 0.448464,0.189416 0.109716,0 0.220803,-0.02145 0.333262,-0.06436 0.112459,-0.04414 0.217374,-0.100536 0.314747,-0.169187 z" />
      <path
         id="path921"
         style="font-style:normal;font-variant:normal;font-weight:normal;font-stretch:normal;font-family:sans-serif;-inkscape-font-specification:sans-serif;fill:#ffffff;fill-opacity:1;stroke-width:0.09626751"
         d="m 93.469711,61.230676 q 0,0.266397 -0.224625,0.43703 -0.222857,0.170633 -0.610204,0.170633 -0.219319,0 -0.403265,-0.0505 -0.182176,-0.05224 -0.305986,-0.113175 v -0.367379 h 0.01769 q 0.157415,0.116657 0.350204,0.186304 0.192789,0.06791 0.36966,0.06791 0.219319,0 0.343128,-0.06965 0.12381,-0.06965 0.12381,-0.219386 0,-0.114916 -0.06721,-0.174115 -0.06721,-0.0592 -0.25823,-0.100987 -0.07075,-0.01567 -0.185714,-0.03657 -0.113198,-0.02089 -0.206939,-0.04527 -0.26,-0.06791 -0.36966,-0.198492 -0.107891,-0.132328 -0.107891,-0.323855 0,-0.12014 0.04952,-0.22635 0.05129,-0.106211 0.153878,-0.189786 0.09905,-0.08184 0.251155,-0.128846 0.153878,-0.04875 0.34313,-0.04875 0.176871,0 0.357279,0.04353 0.182176,0.04179 0.302449,0.102728 v 0.349972 H 93.3742 q -0.127347,-0.09228 -0.309523,-0.154963 -0.182178,-0.06442 -0.357279,-0.06442 -0.182178,0 -0.307755,0.06964 -0.125578,0.06791 -0.125578,0.203715 0,0.120139 0.07605,0.181081 0.07429,0.06094 0.240544,0.09925 0.09197,0.02089 0.20517,0.04179 0.114966,0.02089 0.19102,0.0383 0.231701,0.05224 0.357279,0.179339 0.125578,0.128846 0.125578,0.341266 z" />
      <path
         id="path923"
         style="font-style:normal;font-variant:normal;font-weight:normal;font-stretch:normal;font-family:sans-serif;-inkscape-font-specification:sans-serif;fill:#ffffff;fill-opacity:1;stroke-width:0.18313313"
         d="m 96.340001,62.773133 h -2.854262 v -0.613798 h 2.854262 z" />
    </g>
  </g>
</svg>
