<?xml version="1.0" encoding="UTF-8" standalone="no"?>
<svg
   xmlns:dc="http://purl.org/dc/elements/1.1/"
   xmlns:cc="http://creativecommons.org/ns#"
   xmlns:rdf="http://www.w3.org/1999/02/22-rdf-syntax-ns#"
   xmlns:svg="http://www.w3.org/2000/svg"
   xmlns="http://www.w3.org/2000/svg"
   width="640"
   height="480"
   viewBox="0 0 169.33333 127"
   version="1.1"
   id="svg8">
  <title
     id="title833">Rolling Girl</title>
  <defs
     id="defs2" />
  <metadata
     id="metadata5">
    <rdf:RDF>
      <cc:Work
         rdf:about="">
        <dc:format>image/svg+xml</dc:format>
        <dc:type
           rdf:resource="http://purl.org/dc/dcmitype/StillImage" />
        <dc:title>Rolling Girl</dc:title>
        <dc:date>2022/7/13</dc:date>
      </cc:Work>
    </rdf:RDF>
  </metadata>
  <g
     id="layer1"
     style="display:inline;opacity:1">
    <rect
       style="fill:#ffffff;fill-opacity:1;stroke:#000000;stroke-width:0"
       id="rect1880"
       width="169.33333"
       height="127"
       x="3.570301e-06"
       y="3.570301e-06" />
  </g>
  <g
     id="layer2"
     style="display:inline">
    <path
       id="path1565"
       style="opacity:1;fill:#787878;fill-opacity:1;stroke:#000000;stroke-width:0"
       d="m 443.73047,112.94727 a 32.877001,29.553571 0 0 0 -27.02735,13.01171 18.705354,17.455352 0 0 1 12.35938,-4.35156 18.705354,17.455352 0 0 1 18.70508,17.45508 18.705354,17.455352 0 0 1 -18.70508,17.45508 18.705354,17.455352 0 0 1 -17.94922,-12.54492 32.877001,29.553571 0 0 0 32.83594,28.08007 32.877001,29.553571 0 0 0 32.87695,-29.55273 32.877001,29.553571 0 0 0 -32.87695,-29.55273 32.877001,29.553571 0 0 0 -0.21875,0 z"
       transform="scale(0.26458333)" />
    <path
       id="path1589"
       style="opacity:1;fill:#787878;fill-opacity:1;stroke:#000000;stroke-width:0"
       d="m 595.35938,210.36523 a 84.726541,84.474005 0 0 0 -84.72657,84.47266 84.726541,84.474005 0 0 0 8.33594,36.53711 53.41181,50.507621 0 0 1 53.4082,-50.04688 53.41181,50.507621 0 0 1 53.41211,50.50782 53.41181,50.507621 0 0 1 -34.85547,47.36133 84.726541,84.474005 0 0 0 4.42579,0.11523 A 84.726541,84.474005 0 0 0 640,366.63672 v -143.5957 a 84.726541,84.474005 0 0 0 -44.64062,-12.67579 z"
       transform="scale(0.26458333)" />
    <path
       id="path1596"
       style="opacity:1;fill:#787878;fill-opacity:1;stroke:#000000;stroke-width:0"
       d="m 437.96484,322.23828 a 32.135475,32.893092 0 0 0 -12.63086,2.64844 21.718275,21.150064 0 0 1 19.38477,21.02734 21.718275,21.150064 0 0 1 -21.7168,21.15039 21.718275,21.150064 0 0 1 -16.93164,-7.90429 32.135475,32.893092 0 0 0 31.89453,28.86523 32.135475,32.893092 0 0 0 32.13477,-32.89453 32.135475,32.893092 0 0 0 -32.13477,-32.89258 z"
       transform="scale(0.26458333)" />
    <path
       id="path1603"
       style="opacity:1;fill:#787878;fill-opacity:1;stroke:#000000;stroke-width:0"
       d="m 325.40234,268.03516 a 36.919638,35.178569 0 0 0 -36.83007,35.17968 36.919638,35.178569 0 0 0 13.37695,27.09766 23.214286,22.499998 0 0 1 -1.77149,-8.61523 23.214286,22.499998 0 0 1 23.21485,-22.5 23.214286,22.499998 0 0 1 23.21484,22.5 23.214286,22.499998 0 0 1 -4.06836,12.7207 36.919638,35.178569 0 0 0 19.8711,-31.20313 36.919638,35.178569 0 0 0 -36.91993,-35.17968 36.919638,35.178569 0 0 0 -0.0879,0 z"
       transform="scale(0.26458333)" />
    <path
       id="path1610"
       style="opacity:1;fill:#787878;fill-opacity:1;stroke:#000000;stroke-width:0"
       d="M 590.75781,82.636719 A 72.142854,63.839273 0 0 0 546.96484,141.33984 72.142854,63.839273 0 0 0 619.10742,205.17773 72.142854,63.839273 0 0 0 640,202.44336 V 149.49023 A 41.785707,42.58928 0 0 1 621.78516,153.75 41.785707,42.58928 0 0 1 580,111.16016 41.785707,42.58928 0 0 1 590.75781,82.636719 Z"
       transform="scale(0.26458333)" />
    <path
       id="path1617"
       style="opacity:1;fill:#787878;fill-opacity:1;stroke:#000000;stroke-width:0"
       d="m 531.78516,147.5 a 37.857135,36.517848 0 0 0 -37.85743,36.51758 37.857135,36.517848 0 0 0 37.85743,36.51758 37.857135,36.517848 0 0 0 6.12695,-0.48243 19.999997,22.946428 0 0 1 -13.62695,-21.75 19.999997,22.946428 0 0 1 20,-22.94531 19.999997,22.946428 0 0 1 20,22.94531 19.999997,22.946428 0 0 1 -0.53907,5.28907 37.857135,36.517848 0 0 0 5.89649,-19.57422 A 37.857135,36.517848 0 0 0 531.78516,147.5 Z"
       transform="scale(0.26458333)" />
    <path
       id="path1624"
       style="opacity:1;fill:#787878;fill-opacity:1;stroke:#000000;stroke-width:0"
       d="m 384.36133,204.46484 a 14.196428,14.955356 0 0 0 -1.88086,0.14649 8.883925,9.9107104 0 0 1 6.0918,9.40625 8.883925,9.9107104 0 0 1 -8.88477,9.91015 8.883925,9.9107104 0 0 1 -8.82617,-8.78515 14.196428,14.955356 0 0 0 -0.59375,4.27734 14.196428,14.955356 0 0 0 14.19726,14.95508 14.196428,14.955356 0 0 0 14.19532,-14.95508 14.196428,14.955356 0 0 0 -14.19532,-14.95508 14.196428,14.955356 0 0 0 -0.10351,0 z"
       transform="scale(0.26458333)" />
    <path
       id="path1631"
       style="opacity:1;fill:#787878;fill-opacity:1;stroke:#000000;stroke-width:0"
       d="M 8.8046875,286.07227 A 21.741069,21.294641 0 0 0 0,288.00977 v 38.71093 a 21.741069,21.294641 0 0 0 9.0625,1.93946 21.741069,21.294641 0 0 0 21.740234,-21.29493 21.741069,21.294641 0 0 0 -0.291015,-3.47265 13.973213,15.044642 0 0 1 -13.146485,9.94726 13.973213,15.044642 0 0 1 -13.9726559,-15.04492 13.973213,15.044642 0 0 1 6.4941407,-12.70703 21.741069,21.294641 0 0 0 -0.8242188,-0.0156 21.741069,21.294641 0 0 0 -0.2578125,0 z"
       transform="scale(0.26458333)" />
    <path
       id="path1638"
       style="opacity:1;fill:#787878;fill-opacity:1;stroke:#000000;stroke-width:0"
       d="m 104.99219,304.125 a 20.31336,22.336294 0 0 0 -20.199221,22.33594 20.31336,22.336294 0 0 0 20.314451,22.33594 20.31336,22.336294 0 0 0 7.43946,-1.55274 13.437498,13.482142 0 0 1 -12.01172,-13.4043 13.437498,13.482142 0 0 1 13.4375,-13.48242 13.437498,13.482142 0 0 1 11.44336,6.41602 20.31336,22.336294 0 0 0 0.004,-0.3125 20.31336,22.336294 0 0 0 -20.3125,-22.33594 20.31336,22.336294 0 0 0 -0.11523,0 z"
       transform="scale(0.26458333)" />
    <path
       id="path1645"
       style="opacity:1;fill:#787878;fill-opacity:1;stroke:#000000;stroke-width:0"
       d="m 56.904297,245.53516 a 34.732145,35.000001 0 0 0 -28.238281,14.83593 25.892854,25.624998 0 0 1 10.798828,-2.33593 25.892854,25.624998 0 0 1 25.892578,25.625 25.892854,25.624998 0 0 1 -25.892578,25.625 25.892854,25.624998 0 0 1 -2.373047,-0.10743 34.732145,35.000001 0 0 0 19.960937,6.35743 34.732145,35.000001 0 0 0 34.732422,-35 34.732145,35.000001 0 0 0 -34.732422,-35 34.732145,35.000001 0 0 0 -0.148437,0 z"
       transform="scale(0.26458333)" />
    <path
       id="path1652"
       style="opacity:1;fill:#787878;fill-opacity:1;stroke:#000000;stroke-width:0"
       d="m 46.875,196.42773 a 19.732141,19.642856 0 0 0 -19.732422,19.64454 19.732141,19.642856 0 0 0 19.732422,19.64257 19.732141,19.642856 0 0 0 8.34375,-1.84375 13.035713,13.124999 0 0 1 -11.826172,-13.06836 13.035713,13.124999 0 0 1 13.035156,-13.125 13.035713,13.124999 0 0 1 9.775391,4.44336 A 19.732141,19.642856 0 0 0 46.875,196.42773 Z"
       transform="scale(0.26458333)" />
    <path
       id="path1659"
       style="opacity:1;fill:#787878;fill-opacity:1;stroke:#000000;stroke-width:0"
       d="m 117.06445,172.5 a 39.107138,34.55357 0 0 0 -3.10547,0.12891 24.642855,24.10714 0 0 1 18.89844,23.44336 24.642855,24.10714 0 0 1 -24.64258,24.10546 24.642855,24.10714 0 0 1 -24.642574,-24.10546 24.642855,24.10714 0 0 1 1.714843,-8.83789 39.107138,34.55357 0 0 0 -7.072265,19.81835 39.107138,34.55357 0 0 0 39.107426,34.55469 39.107138,34.55357 0 0 0 39.10546,-34.55469 39.107138,34.55357 0 0 0 -39.10546,-34.55273 39.107138,34.55357 0 0 0 -0.25782,0 z"
       transform="scale(0.26458333)" />
    <path
       id="path1666"
       style="opacity:1;fill:#787878;fill-opacity:1;stroke:#000000;stroke-width:0"
       d="m 221.96484,124.64258 a 37.499996,36.696426 0 0 0 -37.5,36.69726 37.499996,36.696426 0 0 0 16.0918,30.12891 20.535711,21.874996 0 0 1 -4.66406,-13.87891 20.535711,21.874996 0 0 1 20.53515,-21.875 20.535711,21.874996 0 0 1 20.53711,21.875 20.535711,21.874996 0 0 1 -13.12695,20.40039 37.499996,36.696426 0 0 0 35.62695,-36.65039 37.499996,36.696426 0 0 0 -37.5,-36.69726 z"
       transform="scale(0.26458333)" />
    <path
       id="path1673"
       style="display:inline;opacity:1;fill:#787878;fill-opacity:1;stroke:#000000;stroke-width:0"
       d="m 194.82227,167.86523 a 36.428566,35.535711 0 0 0 -35.71485,35.52735 36.428566,35.535711 0 0 0 36.42774,35.53515 36.428566,35.535711 0 0 0 25.14062,-9.82031 29.107139,29.732138 0 0 1 -0.14062,0 29.107139,29.732138 0 0 1 -29.10743,-29.73242 29.107139,29.732138 0 0 1 4.5625,-15.98242 h -1.16796 z"
       transform="scale(0.26458333)" />
    <path
       id="path1684"
       style="opacity:1;fill:#787878;fill-opacity:1;stroke:#000000;stroke-width:0"
       d="m 267.85742,151.78516 a 37.321425,35.357144 0 0 0 -6.18164,0.49023 25.357141,27.857142 0 0 1 16.53906,26.11719 A 25.357141,27.857142 0 0 1 252.85742,206.25 25.357141,27.857142 0 0 1 230.95703,192.43359 37.321425,35.357144 0 0 0 267.85742,222.5 37.321425,35.357144 0 0 0 305.17773,187.14258 37.321425,35.357144 0 0 0 267.85742,151.78516 Z"
       transform="scale(0.26458333)" />
    <path
       id="path1691"
       style="opacity:1;fill:#787878;fill-opacity:1;stroke:#000000;stroke-width:0"
       d="m 106.69141,220.67773 a 39.375001,38.839287 0 0 0 -32.048832,38.16211 39.375001,38.839287 0 0 0 39.375002,38.83789 39.375001,38.839287 0 0 0 39.36719,-38.09961 34.642856,28.749999 0 0 1 -16.0625,3.2793 34.642856,28.749999 0 0 1 -34.64454,-28.75 34.642856,28.749999 0 0 1 4.01368,-13.42969 z"
       transform="scale(0.26458333)" />
    <path
       id="path1702"
       style="opacity:1;fill:#787878;fill-opacity:1;stroke:#000000;stroke-width:0"
       d="m 166.78516,292.5 a 31.249997,32.857141 0 0 0 -31.25,32.85742 31.249997,32.857141 0 0 0 0.11523,2.81836 18.124998,18.660713 0 0 1 17.83203,-15.31836 18.124998,18.660713 0 0 1 18.125,18.66016 18.124998,18.660713 0 0 1 -18.125,18.66015 18.124998,18.660713 0 0 1 -10.33594,-3.33007 31.249997,32.857141 0 0 0 23.63868,11.36718 31.249997,32.857141 0 0 0 31.25,-32.85742 31.249997,32.857141 0 0 0 -31.25,-32.85742 z"
       transform="scale(0.26458333)" />
    <path
       id="path1709"
       style="opacity:1;fill:#787878;fill-opacity:1;stroke:#000000;stroke-width:0"
       d="m 203.66016,258.75 a 33.839282,34.107139 0 0 0 -33.83789,34.10742 33.839282,34.107139 0 0 0 0.0488,1.82813 30.267857,29.196426 0 0 1 21.64649,-8.79297 30.267857,29.196426 0 0 1 30.26758,29.19726 30.267857,29.196426 0 0 1 -0.91797,7.13672 A 33.839282,34.107139 0 0 0 237.5,292.85742 33.839282,34.107139 0 0 0 203.66016,258.75 Z"
       transform="scale(0.26458333)" />
    <path
       id="path1716"
       style="opacity:1;fill:#787878;fill-opacity:1;stroke:#000000;stroke-width:0"
       d="m 265.95312,254.82227 a 32.94643,31.964285 0 0 0 -32.73828,31.96289 32.94643,31.964285 0 0 0 32.94532,31.96484 32.94643,31.964285 0 0 0 29.9082,-18.56055 24.999997,24.91071 0 0 1 -10.89063,2.48828 24.999997,24.91071 0 0 1 -25,-24.91015 24.999997,24.91071 0 0 1 13.48047,-22.10547 32.94643,31.964285 0 0 0 -7.49804,-0.83984 32.94643,31.964285 0 0 0 -0.20704,0 z"
       transform="scale(0.26458333)" />
    <path
       id="path1723"
       style="opacity:1;fill:#787878;fill-opacity:1;stroke:#000000;stroke-width:0"
       d="m 382.27148,244.31641 a 44.239302,46.669054 0 0 0 -34.58007,17.56054 32.499995,32.142856 0 0 1 16.05859,-4.19922 32.499995,32.142856 0 0 1 32.5,32.14454 32.499995,32.142856 0 0 1 -32.5,32.14257 32.499995,32.142856 0 0 1 -18.80078,-5.92578 44.239302,46.669054 0 0 0 37.32226,21.61524 44.239302,46.669054 0 0 0 44.24024,-46.66797 44.239302,46.669054 0 0 0 -44.24024,-46.66992 z"
       transform="scale(0.26458333)" />
    <path
       id="path1730"
       style="opacity:1;fill:#787878;fill-opacity:1;stroke:#000000;stroke-width:0"
       d="m 252.76758,217.67773 a 16.517854,17.767853 0 0 0 -12.59961,6.28125 10.892856,10.982141 0 0 1 6.25976,-1.99414 10.892856,10.982141 0 0 1 10.89454,10.98243 10.892856,10.982141 0 0 1 -10.89454,10.98046 10.892856,10.982141 0 0 1 -10.11328,-6.90234 16.517854,17.767853 0 0 0 16.45313,16.18945 16.517854,17.767853 0 0 0 16.51758,-17.76757 16.517854,17.767853 0 0 0 -16.51758,-17.76954 z"
       transform="scale(0.26458333)" />
    <path
       id="path1737"
       style="opacity:1;fill:#787878;fill-opacity:1;stroke:#000000;stroke-width:0"
       d="m 302.5,192.5 a 31.249997,30.714281 0 0 0 -2.15625,0.0723 25.178568,23.214283 0 0 1 16.79883,21.89257 25.178568,23.214283 0 0 1 -25.17774,23.21289 25.178568,23.214283 0 0 1 -20.29882,-9.47851 A 31.249997,30.714281 0 0 0 302.5,253.92773 31.249997,30.714281 0 0 0 333.75,223.21484 31.249997,30.714281 0 0 0 302.5,192.5 Z"
       transform="scale(0.26458333)" />
    <path
       id="path1744"
       style="opacity:1;fill:#787878;fill-opacity:1;stroke:#000000;stroke-width:0"
       d="m 358.92773,143.39258 a 44.10714,40.892855 0 0 0 -44.10546,40.89258 44.10714,40.892855 0 0 0 44.10546,40.89257 44.10714,40.892855 0 0 0 5.01368,-0.26367 37.142858,35.178569 0 0 1 -13.40625,-27.05664 37.142858,35.178569 0 0 1 37.14257,-35.17969 37.142858,35.178569 0 0 1 9.44532,1.15821 44.10714,40.892855 0 0 0 -38.19532,-20.44336 z"
       transform="scale(0.26458333)" />
    <path
       id="path1751"
       style="opacity:1;fill:#787878;fill-opacity:1;stroke:#000000;stroke-width:0"
       d="m 466.80664,175.00977 a 65.407378,69.069177 0 0 0 -11.89648,1.17968 39.395947,40.027294 0 0 1 35.77148,39.85743 39.395947,40.027294 0 0 1 -39.39648,40.02734 39.395947,40.027294 0 0 1 -39.39454,-40.02734 39.395947,40.027294 0 0 1 1.86329,-12.16407 65.407378,69.069177 0 0 0 -12.21875,40.19531 65.407378,69.069177 0 0 0 65.4082,69.06836 65.407378,69.069177 0 0 0 65.40625,-69.06836 65.407378,69.069177 0 0 0 -65.40625,-69.06835 65.407378,69.069177 0 0 0 -0.13672,0 z"
       transform="scale(0.26458333)" />
  </g>
  <g
     id="layer4"
     style="display:inline;opacity:1">
    <ellipse
       style="opacity:1;fill:#b4b4b4;fill-opacity:1;stroke:#000000;stroke-width:0"
       id="path1758"
       cx="6.6483293"
       cy="74.083771"
       rx="2.5056517"
       ry="2.6893992" />
    <ellipse
       style="opacity:1;fill:#b4b4b4;fill-opacity:1;stroke:#000000;stroke-width:0"
       id="path1760"
       cx="43.297661"
       cy="66.633636"
       rx="2.9399643"
       ry="3.2239382" />
    <ellipse
       style="opacity:1;fill:#b4b4b4;fill-opacity:1;stroke:#000000;stroke-width:0"
       id="path1762"
       cx="75.102737"
       cy="70.960052"
       rx="2.5390604"
       ry="2.3386078" />
    <circle
       style="opacity:1;fill:#b4b4b4;fill-opacity:1;stroke:#000000;stroke-width:0"
       id="path1764"
       cx="92.792633"
       cy="63.092312"
       r="2.4555383" />
    <ellipse
       style="opacity:1;fill:#b4b4b4;fill-opacity:1;stroke:#000000;stroke-width:0"
       id="path1766"
       cx="84.574104"
       cy="85.977264"
       rx="2.3219037"
       ry="2.5223558" />
    <ellipse
       style="opacity:1;fill:#b4b4b4;fill-opacity:1;stroke:#000000;stroke-width:0"
       id="path1768"
       cx="95.097839"
       cy="94.312737"
       rx="3.0568948"
       ry="3.7751815" />
    <ellipse
       style="opacity:1;fill:#b4b4b4;fill-opacity:1;stroke:#000000;stroke-width:0"
       id="path1770"
       cx="132.89978"
       cy="91.573227"
       rx="5.5124335"
       ry="5.7128859" />
    <circle
       style="opacity:1;fill:#b4b4b4;fill-opacity:1;stroke:#000000;stroke-width:0"
       id="path1772"
       cx="154.91611"
       cy="88.700073"
       r="2.9733727" />
    <ellipse
       style="opacity:1;fill:#b4b4b4;fill-opacity:1;stroke:#000000;stroke-width:0"
       id="path1774"
       cx="58.279202"
       cy="91.269432"
       rx="3.0946796"
       ry="3.5080907" />
    <ellipse
       style="opacity:1;fill:#b4b4b4;fill-opacity:1;stroke:#000000;stroke-width:0"
       id="path1776"
       cx="41.175781"
       cy="44.258648"
       rx="2.6694562"
       ry="2.7285149" />
    <ellipse
       style="opacity:1;fill:#b4b4b4;fill-opacity:1;stroke:#000000;stroke-width:0"
       id="path1778"
       cx="107.33377"
       cy="49.60355"
       rx="2.697751"
       ry="2.9149075" />
    <ellipse
       style="opacity:1;fill:#b4b4b4;fill-opacity:1;stroke:#000000;stroke-width:0"
       id="path1788"
       cx="133.94533"
       cy="31.513763"
       rx="4.7719488"
       ry="4.8664427" />
    <path
       id="path1794"
       style="display:inline;opacity:1;fill:#b4b4b4;fill-opacity:1;stroke:#000000;stroke-width:0"
       d="M 640,87.03125 A 14.285713,15.892856 0 0 0 628.21484,102.67773 14.285713,15.892856 0 0 0 640,118.32617 Z"
       transform="scale(0.26458333)" />
  </g>
</svg>
