<?xml version="1.0" encoding="UTF-8" standalone="no"?>
<svg
   xmlns:dc="http://purl.org/dc/elements/1.1/"
   xmlns:cc="http://creativecommons.org/ns#"
   xmlns:rdf="http://www.w3.org/1999/02/22-rdf-syntax-ns#"
   xmlns:svg="http://www.w3.org/2000/svg"
   xmlns="http://www.w3.org/2000/svg"
   xmlns:sodipodi="http://sodipodi.sourceforge.net/DTD/sodipodi-0.dtd"
   xmlns:inkscape="http://www.inkscape.org/namespaces/inkscape"
   id="svg897"
   version="1.1"
   viewBox="0 0 169.33333 127"
   height="480"
   width="640"
   sodipodi:docname="Tenohira.svg"
   inkscape:version="1.0.1 (3bc2e813f5, 2020-09-07)">
  <sodipodi:namedview
     pagecolor="#ffffff"
     bordercolor="#666666"
     borderopacity="1"
     objecttolerance="10"
     gridtolerance="10"
     guidetolerance="10"
     inkscape:pageopacity="0"
     inkscape:pageshadow="2"
     inkscape:window-width="1920"
     inkscape:window-height="1017"
     id="namedview3417"
     showgrid="false"
     showguides="true"
     inkscape:guide-bbox="true"
     inkscape:zoom="4.8613591"
     inkscape:cx="507.99322"
     inkscape:cy="237.73237"
     inkscape:window-x="-8"
     inkscape:window-y="-8"
     inkscape:window-maximized="1"
     inkscape:current-layer="svg897">
    <sodipodi:guide
       position="131.90091,64.491975"
       orientation="0,-1"
       id="guide3980" />
    <sodipodi:guide
       position="130.88723,65.019225"
       orientation="1,0"
       id="guide3982" />
    <sodipodi:guide
       position="132.44857,64.736891"
       orientation="1,0"
       id="guide3984" />
    <sodipodi:guide
       position="131.91112,64.199436"
       orientation="0,-1"
       id="guide3986" />
    <sodipodi:guide
       position="131.43489,65.012421"
       orientation="1,0"
       id="guide3988" />
    <sodipodi:guide
       position="131.85329,64.852546"
       orientation="1,0"
       id="guide3990" />
    <sodipodi:guide
       position="132.02677,62.05642"
       orientation="0,-1"
       id="guide3992" />
    <sodipodi:guide
       position="130.62191,65.274345"
       orientation="0,-1"
       id="guide3994" />
  </sodipodi:namedview>
  <title
     id="title1442">Tenohira</title>
  <defs
     id="defs891" />
  <metadata
     id="metadata894">
    <rdf:RDF>
      <cc:Work
         rdf:about="">
        <dc:format>image/svg+xml</dc:format>
        <dc:type
           rdf:resource="http://purl.org/dc/dcmitype/StillImage" />
        <dc:title>Tenohira</dc:title>
        <dc:date>2020/7/17</dc:date>
        <cc:license
           rdf:resource="http://creativecommons.org/licenses/by/4.0/" />
      </cc:Work>
      <cc:License
         rdf:about="http://creativecommons.org/licenses/by/4.0/">
        <cc:permits
           rdf:resource="http://creativecommons.org/ns#Reproduction" />
        <cc:permits
           rdf:resource="http://creativecommons.org/ns#Distribution" />
        <cc:requires
           rdf:resource="http://creativecommons.org/ns#Notice" />
        <cc:requires
           rdf:resource="http://creativecommons.org/ns#Attribution" />
        <cc:permits
           rdf:resource="http://creativecommons.org/ns#DerivativeWorks" />
      </cc:License>
    </rdf:RDF>
  </metadata>
  <g
     id="layer7">
    <rect
       y="5.6843419e-14"
       x="0"
       height="127"
       width="169.33333"
       id="rect5334"
       style="opacity:1;fill:#ffffff;fill-opacity:1;stroke:none;stroke-width:0.255993;stroke-miterlimit:4;stroke-dasharray:none;stroke-opacity:1" />
  </g>
  <g
     style="display:inline;opacity:1"
     id="layer3">
    <ellipse
       ry="8.880559"
       rx="55.101002"
       cy="98.368301"
       cx="85.517113"
       id="path5162"
       style="opacity:1;fill:#dbdbdb;fill-opacity:1;stroke:none;stroke-width:1.13730371;stroke-miterlimit:4;stroke-dasharray:none;stroke-opacity:1" />
    <ellipse
       ry="4.299479"
       rx="35.293526"
       cy="97.13987"
       cx="85.469856"
       id="path5179"
       style="opacity:1;fill:#b3b3b3;fill-opacity:1;stroke:none;stroke-width:0.84008408;stroke-miterlimit:4;stroke-dasharray:none;stroke-opacity:1" />
    <ellipse
       ry="0.51783478"
       rx="5.9801555"
       cy="97.216141"
       cx="83.688774"
       id="path5196"
       style="opacity:1;fill:#7a7a7a;fill-opacity:1;stroke:none;stroke-width:0.25831532;stroke-miterlimit:4;stroke-dasharray:none;stroke-opacity:1" />
    <ellipse
       ry="37.350918"
       rx="6.0803814"
       cy="55.438587"
       cx="25.724691"
       id="path5203"
       style="opacity:1;fill:#b3b3b3;fill-opacity:1;stroke:none;stroke-width:2.1808002;stroke-miterlimit:4;stroke-dasharray:none;stroke-opacity:1" />
    <ellipse
       ry="4.7440352"
       rx="38.353176"
       cy="27.909817"
       cx="118.8013"
       id="path5209"
       style="opacity:1;fill:#b3b3b3;fill-opacity:1;stroke:none;stroke-width:1.19505692;stroke-miterlimit:4;stroke-dasharray:none;stroke-opacity:1" />
    <ellipse
       ry="1.4699824"
       rx="20.446119"
       cy="28.24391"
       cx="118.13313"
       id="path5211"
       style="opacity:1;fill:#dcdcdc;fill-opacity:1;stroke:none;stroke-width:0.86486995;stroke-miterlimit:4;stroke-dasharray:none;stroke-opacity:1" />
    <ellipse
       ry="0.56794775"
       rx="3.9422255"
       cy="28.277317"
       cx="118.13313"
       id="path5213"
       style="opacity:1;fill:#8f8f8f;fill-opacity:1;stroke:none;stroke-width:0.6054697;stroke-miterlimit:4;stroke-dasharray:none;stroke-opacity:1" />
  </g>
  <g
     style="display:inline;opacity:1"
     id="layer4">
    <ellipse
       ry="17.245163"
       rx="2.7403274"
       cy="93.974327"
       cx="131.25223"
       id="path5199"
       style="opacity:1;fill:#b3b3b3;fill-opacity:1;stroke:none;stroke-width:2.18950462;stroke-miterlimit:4;stroke-dasharray:none;stroke-opacity:1" />
    <ellipse
       ry="7.8665104"
       rx="8.0779352"
       cy="84.152512"
       cx="155.29179"
       id="path5201"
       style="opacity:1;fill:#dbdbdb;fill-opacity:1;stroke:none;stroke-width:0.71494132;stroke-miterlimit:4;stroke-dasharray:none;stroke-opacity:1" />
    <ellipse
       ry="6.7485557"
       rx="6.9490089"
       cy="32.854309"
       cx="16.704346"
       id="path5205"
       style="opacity:1;fill:#dbdbdb;fill-opacity:1;stroke:none;stroke-width:0.65217489;stroke-miterlimit:4;stroke-dasharray:none;stroke-opacity:1" />
    <ellipse
       ry="3.3408687"
       rx="37.01683"
       cy="53.099972"
       cx="43.297661"
       id="path5207"
       style="opacity:1;fill:#dbdbdb;fill-opacity:1;stroke:none;stroke-width:0.72163361;stroke-miterlimit:4;stroke-dasharray:none;stroke-opacity:1" />
    <ellipse
       ry="9.1539812"
       rx="3.9422255"
       cy="27.909821"
       cx="89.067566"
       id="path5215"
       style="opacity:1;fill:#787878;fill-opacity:1;stroke:none;stroke-width:1.0179795;stroke-miterlimit:4;stroke-dasharray:none;stroke-opacity:1" />
    <ellipse
       ry="10.356693"
       rx="10.22306"
       cy="24.168047"
       cx="155.75131"
       id="path5217"
       style="opacity:1;fill:#787878;fill-opacity:1;stroke:none;stroke-width:0.53388768;stroke-miterlimit:4;stroke-dasharray:none;stroke-opacity:1" />
    <ellipse
       ry="2.5390604"
       rx="2.8063304"
       cy="60.717159"
       cx="46.504894"
       id="path5219"
       style="opacity:1;fill:#dbdbdb;fill-opacity:1;stroke:none;stroke-width:0.29059327;stroke-miterlimit:4;stroke-dasharray:none;stroke-opacity:1" />
    <ellipse
       ry="5.8131123"
       rx="5.278573"
       cy="23.36624"
       cx="59.267021"
       id="path5221"
       style="opacity:1;fill:#787878;fill-opacity:1;stroke:none;stroke-width:0.5458436;stroke-miterlimit:4;stroke-dasharray:none;stroke-opacity:1" />
    <ellipse
       ry="3.6749558"
       rx="3.2740519"
       cy="39.135143"
       cx="52.585278"
       id="path5223"
       style="opacity:1;fill:#b4b4b4;fill-opacity:1;stroke:none;stroke-width:0.78983706;stroke-miterlimit:4;stroke-dasharray:none;stroke-opacity:1" />
    <ellipse
       ry="4.6772165"
       rx="4.6103992"
       cy="50.160011"
       cx="88.533035"
       id="path5225"
       style="opacity:1;fill:#b2b2b2;fill-opacity:1;stroke:none;stroke-width:0.50472456;stroke-miterlimit:4;stroke-dasharray:none;stroke-opacity:1" />
    <ellipse
       ry="3.6749563"
       rx="3.6749556"
       cy="71.875671"
       cx="66.216026"
       id="path5227"
       style="opacity:1;fill:#b4b4b4;fill-opacity:1;stroke:none;stroke-width:0.41063073;stroke-miterlimit:4;stroke-dasharray:none;stroke-opacity:1" />
    <ellipse
       ry="11.292039"
       rx="2.5040915"
       cy="79.422249"
       cx="78.760788"
       id="path5229"
       style="opacity:1;fill:#787878;fill-opacity:1;stroke:none;stroke-width:0.79408771;stroke-miterlimit:4;stroke-dasharray:none;stroke-opacity:1" />
    <ellipse
       ry="3.3072917"
       rx="2.8348212"
       cy="74.650299"
       cx="112.25893"
       id="path5231"
       style="opacity:1;fill:#757575;fill-opacity:1;stroke:none;stroke-width:1.04473734;stroke-miterlimit:4;stroke-dasharray:none;stroke-opacity:1" />
    <ellipse
       ry="3.638021"
       rx="4.1104908"
       cy="56.649178"
       cx="120.14918"
       id="path5233"
       style="opacity:1;fill:#b3b3b3;fill-opacity:1;stroke:none;stroke-width:1.64886332;stroke-miterlimit:4;stroke-dasharray:none;stroke-opacity:1" />
    <ellipse
       ry="5.0554314"
       rx="5.1499257"
       cy="44.364956"
       cx="137.91408"
       id="path5235"
       style="opacity:1;fill:#777777;fill-opacity:1;stroke:none;stroke-width:0.9495222;stroke-miterlimit:4;stroke-dasharray:none;stroke-opacity:1" />
    <ellipse
       ry="2.4095981"
       rx="2.5040922"
       cy="58.633556"
       cx="157.94681"
       id="path5237"
       style="opacity:1;fill:#b0b0b0;fill-opacity:1;stroke:none;stroke-width:0.49625054;stroke-miterlimit:4;stroke-dasharray:none;stroke-opacity:1" />
    <path
       id="path5254"
       d="M 83.721726,97.13988 118.02306,28.442708"
       style="fill:#bdbdbd;stroke:#c2c2c2;stroke-width:0.3444875;stroke-linecap:butt;stroke-linejoin:miter;stroke-opacity:1;stroke-miterlimit:4;stroke-dasharray:none;fill-opacity:1" />
  </g>
  <g
     id="layer2">
    <ellipse
       ry="20.245667"
       rx="22.016327"
       cy="88.831062"
       cx="27.982645"
       id="path1456"
       style="opacity:1;fill:#787878;fill-opacity:1;stroke:none;stroke-width:0.60531092;stroke-miterlimit:4;stroke-dasharray:none;stroke-opacity:1" />
  </g>
  <g
     style="opacity:1"
     id="layer6">
    <g
       id="text5299"
       style="font-style:normal;font-variant:normal;font-weight:normal;font-stretch:normal;font-size:14.3648px;line-height:1.25;font-family:'黑体';-inkscape-font-specification:'黑体';letter-spacing:0px;word-spacing:0px;fill:#8c8c8c;fill-opacity:1;stroke:none;stroke-width:0.384772"
       aria-label="in the air_">
      <path
         id="path5301"
         style="font-size:4.61727px;line-height:0;fill:#8c8c8c;fill-opacity:1;stroke-width:0.384772"
         d="m 126.58823,62.343821 h -0.36072 V 61.87488 h 0.36072 z m 0,2.597212 h -0.36072 v -2.020054 h 0.36072 z" />
      <path
         id="path5303"
         style="font-size:4.61727px;line-height:0;fill:#8c8c8c;fill-opacity:1;stroke-width:0.390311"
         d="m 129.05135,64.941033 h -0.36072 v -1.336265 q 0,-0.222712 -0.10822,-0.352626 -0.10821,-0.129914 -0.28858,-0.129914 -0.23447,0 -0.4509,0.259828 -0.1984,0.241271 -0.1984,0.612456 v 0.946521 h -0.36072 v -2.078635 h 0.36072 v 0.389744 q 0.14429,-0.204151 0.30662,-0.315507 0.18036,-0.111356 0.4509,-0.111356 0.32465,0 0.48698,0.185592 0.16232,0.185593 0.16232,0.463982 z" />
      <path
         id="path5305"
         style="font-size:4.61727px;line-height:0;fill:#8c8c8c;fill-opacity:1;stroke-width:0.384772"
         d="m 131.43489,64.943579 v -2.143016 h -0.54766 v -0.292539 h 0.54766 l 0,-0.78237 h 0.4184 l 4e-5,0.78237 h 0.59528 v 0.292539 h -0.59528 v 2.143016 z"
         sodipodi:nodetypes="ccccccccccccc" />
      <path
         id="path5307"
         style="font-size:4.61727px;line-height:0;fill:#8c8c8c;fill-opacity:1;stroke-width:0.422857"
         d="m 134.71509,64.941033 h -0.39992 v -1.414658 q 0,-0.235776 -0.11999,-0.373312 -0.11998,-0.137536 -0.31994,-0.137536 -0.25995,0 -0.4999,0.275072 -0.21997,0.255424 -0.21997,0.648385 v 1.002049 h -0.39992 v -3.359812 h 0.39992 v 1.571842 q 0.15998,-0.216128 0.33994,-0.334016 0.19997,-0.117889 0.49991,-0.117889 0.35994,0 0.53991,0.19648 0.17996,0.19648 0.17996,0.491201 z" />
      <path
         id="path5309"
         style="font-size:4.61727px;line-height:0;fill:#8c8c8c;fill-opacity:1;stroke-width:0.424144"
         d="m 137.24354,64.14205 q -0.04,0.356405 -0.31942,0.574208 -0.27949,0.217802 -0.6588,0.217802 -0.47912,0 -0.79854,-0.297004 -0.29946,-0.316803 -0.29946,-0.851408 0,-0.534608 0.29946,-0.83161 0.31942,-0.316805 0.79854,-0.316805 0.41923,0 0.67876,0.277204 0.27949,0.257403 0.27949,0.871211 h -1.61705 q 0,0.435603 0.17968,0.613806 0.19963,0.178202 0.47912,0.178202 0.2196,0 0.35935,-0.099 0.13974,-0.118802 0.17967,-0.336605 z m -0.47913,-0.673206 q -0.04,-0.277204 -0.17967,-0.376205 -0.13974,-0.118801 -0.35935,-0.118801 -0.19963,0 -0.35934,0.118801 -0.15971,0.099 -0.23956,0.376205 z" />
      <path
         id="path5313"
         style="font-size:4.61727px;line-height:0;fill:#8c8c8c;fill-opacity:1;stroke-width:0.452407"
         d="m 142.78944,62.363351 h -0.50247 v -0.465415 h 0.50247 z m 0,2.577682 h -0.50247 v -2.004865 h 0.50247 z" />
      <path
         id="path5315"
         style="font-size:4.61727px;line-height:0;fill:#8c8c8c;fill-opacity:1;stroke-width:0.406048"
         d="m 144.83532,63.29684 q -0.38515,-0.05362 -0.64867,0.10723 -0.26352,0.142972 -0.44595,0.518278 v 1.018685 h -0.40542 v -2.001626 h 0.40542 v 0.518277 q 0.18243,-0.285946 0.44595,-0.411048 0.2838,-0.142974 0.64867,-0.142974 z" />
      <path
         id="path5317"
         style="font-size:4.61727px;line-height:0;fill:#8c8c8c;fill-opacity:1;stroke-width:0.654427"
         d="m 147.29399,66.080911 h -2.78047 v -0.511728 h 2.78047 z" />
    </g>
    <g
       id="text5326"
       style="font-style:normal;font-variant:normal;font-weight:normal;font-stretch:normal;font-size:7.41359px;line-height:1.25;font-family:'Berlin Sans FB';-inkscape-font-specification:'Berlin Sans FB';letter-spacing:0px;word-spacing:0px;fill:#8c8c8c;fill-opacity:1;stroke:none;stroke-width:0.198578"
       transform="matrix(0.66217176,0,0,0.60937861,52.669143,23.369395)"
       aria-label="a">
      <path
         id="path5328"
         style="fill:#8c8c8c;fill-opacity:1;stroke-width:0.196538"
         d="m 134.64793,64.95002 c 0,0.0095 -0.004,0.03072 -0.0109,0.06382 -0.004,0.560329 -0.0225,1.046197 -0.0225,1.438612 0,0.02364 0.022,0.554345 4.5e-4,1.57313 l 0.004,0.04965 c 0.003,0.06856 -0.0299,0.102831 -0.0977,0.102831 -0.0651,0 -0.16528,0.0071 -0.30045,0.02128 -0.13273,0.01656 -0.23168,0.02482 -0.29683,0.02482 -0.0459,0 -0.0809,-0.08273 -0.10498,-0.248215 -0.0241,-0.165475 -0.0471,-0.248212 -0.0688,-0.248212 -0.3277,0.392054 -0.68392,0.489058 -1.16561,0.491986 -0.87714,-0.101165 -1.51385,-0.827055 -1.52406,-1.779672 0.067,-1.137554 0.80147,-1.775392 1.61094,-1.783082 0.50697,0.04265 0.84539,0.246034 1.15837,0.581531 0.007,0.0071 0.0145,0.01063 0.0217,0.01063 0.0145,0 0.035,-0.07448 0.0615,-0.223393 0.0265,-0.148929 0.0603,-0.223394 0.10135,-0.223394 0.0651,0 0.18701,0.01775 0.36562,0.05319 0.19789,0.04256 0.26818,0.06138 0.26818,0.09446 z m -0.83826,1.437785 c 0,-0.290765 -0.13269,-0.530468 -0.30884,-0.738497 -0.18583,-0.224576 -0.4708,-0.380075 -0.76039,-0.380075 -0.28959,0 -0.6575,0.168457 -0.85056,0.390668 -0.18582,0.212754 -0.27873,0.463331 -0.27873,0.751735 0,0.286036 0.0929,0.534253 0.27873,0.744644 0.19306,0.219844 0.55206,0.45656 0.84165,0.45656 0.28235,0 0.62854,-0.165991 0.81919,-0.390567 0.17858,-0.210391 0.25895,-0.553157 0.25895,-0.834468 z" />
    </g>
  </g>
</svg>
