<?xml version="1.0" encoding="UTF-8" standalone="no"?>
<svg
   xmlns:dc="http://purl.org/dc/elements/1.1/"
   xmlns:cc="http://creativecommons.org/ns#"
   xmlns:rdf="http://www.w3.org/1999/02/22-rdf-syntax-ns#"
   xmlns:svg="http://www.w3.org/2000/svg"
   xmlns="http://www.w3.org/2000/svg"
   width="640"
   height="480"
   viewBox="0 0 169.33333 127"
   version="1.1"
   id="svg2695">
  <title
     id="title3258">Unhappy Refrain</title>
  <defs
     id="defs2689" />
  <metadata
     id="metadata2692">
    <rdf:RDF>
      <cc:Work
         rdf:about="">
        <dc:format>image/svg+xml</dc:format>
        <dc:type
           rdf:resource="http://purl.org/dc/dcmitype/StillImage" />
        <dc:title>Unhappy Refrain</dc:title>
        <dc:date>2022/7/13</dc:date>
      </cc:Work>
    </rdf:RDF>
  </metadata>
  <g
     id="layer1"
     style="display:inline;opacity:1">
    <rect
       style="fill:#ffffff;fill-opacity:1;stroke:none;stroke-width:0"
       id="rect866"
       width="169.33333"
       height="127"
       x="0"
       y="0" />
  </g>
  <g
     id="layer7"
     style="display:inline;opacity:1">
    <path
       id="path3287"
       style="display:inline;opacity:1;fill:#7f7f7f;fill-opacity:1;stroke:none;stroke-width:0.999999px;stroke-linecap:butt;stroke-linejoin:miter;stroke-opacity:1"
       d="m 250.76953,123.86914 c -46.97209,0 -64.01758,36.49328 -64.01758,68.06055 0,31.56727 12.24852,64.90088 33.9668,94.19531 21.71828,29.29442 57.7182,56.88482 76.29687,67.78516 12.28645,7.2086 14.40684,7.77663 22.69727,11.625 45.60613,-23.75 55.46513,-33.21289 82.07227,-58.21289 0.11273,-0.10593 0.2252,-0.22125 0.33789,-0.32813 l -70.6211,-8.90039 87.34961,-10.55664 c 0.46563,-0.64285 0.9239,-1.30134 1.38477,-1.95508 l -55.88281,-6.05469 64.10351,-6.58203 c 14.65687,-24.40974 25.22852,-52.77863 25.22852,-72.05273 0,-29.82143 -11.23897,-77.02344 -61.11524,-77.02344 -49.87628,0 -72.85742,60.23047 -72.85742,60.23047 0,0 -21.97127,-60.23047 -68.94336,-60.23047 z"
       transform="scale(0.26458333)" />
    <path
       style="display:inline;fill:#c3c3c3;fill-opacity:1;stroke:none;stroke-width:0.264583px;stroke-linecap:butt;stroke-linejoin:miter;stroke-opacity:1"
       d="m 84.356945,52.916666 c 0,0 2.447649,-5.480654 6.310092,-5.480653 4.063246,10e-7 5.330506,4.044709 5.575149,5.480653 0.271671,1.594588 0.509382,11.395061 -11.885241,18.210435 z"
       id="path3297" />
    <path
       style="display:inline;opacity:1;fill:#ffffff;fill-opacity:1;stroke:none;stroke-width:0.264583px;stroke-linecap:butt;stroke-linejoin:miter;stroke-opacity:1"
       d="m 84.356945,52.916666 c 0,0 -2.01299,-5.480653 -6.076233,-5.480653 -4.063246,0 -5.362538,4.039618 -5.575149,5.480653 -0.212612,1.441035 -0.609606,10.927339 11.651382,18.210435 z"
       id="path3297-7" />
  </g>
  <g
     id="layer2"
     style="display:inline;opacity:1">
    <path
       style="display:inline;opacity:1;fill:#7f7f7f;fill-opacity:1;stroke:none;stroke-width:0.264583px;stroke-linecap:butt;stroke-linejoin:miter;stroke-opacity:1"
       d="m 169.33333,66.892551 -41.18595,4.151029 41.18595,4.242904 z"
       id="path855" />
    <path
       id="path861"
       style="opacity:1;fill:#c3c3c3;fill-opacity:1;stroke:none;stroke-width:0.999999px;stroke-linecap:butt;stroke-linejoin:miter;stroke-opacity:1"
       d="M 574.22852,279.3125 398.95312,298.66016 640,325.80273 v -39.91015 z"
       transform="scale(0.26458333)" />
  </g>
</svg>
