<?xml version="1.0" encoding="UTF-8" standalone="no"?>
<svg
   xmlns:dc="http://purl.org/dc/elements/1.1/"
   xmlns:cc="http://creativecommons.org/ns#"
   xmlns:rdf="http://www.w3.org/1999/02/22-rdf-syntax-ns#"
   xmlns:svg="http://www.w3.org/2000/svg"
   xmlns="http://www.w3.org/2000/svg"
   xmlns:sodipodi="http://sodipodi.sourceforge.net/DTD/sodipodi-0.dtd"
   xmlns:inkscape="http://www.inkscape.org/namespaces/inkscape"
   id="svg8"
   version="1.1"
   viewBox="0 0 169.33333 127"
   height="480"
   width="640"
   sodipodi:docname="UraomoteLovers.svg"
   inkscape:version="1.0.1 (3bc2e813f5, 2020-09-07)">
  <sodipodi:namedview
     pagecolor="#ffffff"
     bordercolor="#666666"
     borderopacity="1"
     objecttolerance="10"
     gridtolerance="10"
     guidetolerance="10"
     inkscape:pageopacity="0"
     inkscape:pageshadow="2"
     inkscape:window-width="1920"
     inkscape:window-height="1017"
     id="namedview1046"
     showgrid="false"
     showguides="true"
     inkscape:guide-bbox="true"
     inkscape:zoom="8.9624998"
     inkscape:cx="87.99594"
     inkscape:cy="242.68085"
     inkscape:window-x="-8"
     inkscape:window-y="-8"
     inkscape:window-maximized="1"
     inkscape:current-layer="svg8"
     inkscape:document-rotation="0">
    <sodipodi:guide
       position="22.140864,61.640167"
       orientation="0,-1"
       id="guide1065" />
  </sodipodi:namedview>
  <title
     id="title826">Uraomote Lovers</title>
  <defs
     id="defs2" />
  <metadata
     id="metadata5">
    <rdf:RDF>
      <cc:Work
         rdf:about="">
        <dc:format>image/svg+xml</dc:format>
        <dc:type
           rdf:resource="http://purl.org/dc/dcmitype/StillImage" />
        <dc:title>Uraomote Lovers</dc:title>
        <dc:date>2020/7/21</dc:date>
        <cc:license
           rdf:resource="http://creativecommons.org/publicdomain/zero/1.0/" />
      </cc:Work>
      <cc:License
         rdf:about="http://creativecommons.org/publicdomain/zero/1.0/">
        <cc:permits
           rdf:resource="http://creativecommons.org/ns#Reproduction" />
        <cc:permits
           rdf:resource="http://creativecommons.org/ns#Distribution" />
        <cc:permits
           rdf:resource="http://creativecommons.org/ns#DerivativeWorks" />
      </cc:License>
    </rdf:RDF>
  </metadata>
  <g
     id="layer7">
    <rect
       y="0"
       x="1.7763568e-15"
       height="127"
       width="169.33333"
       id="rect2167"
       style="opacity:1;fill:#ffffff;fill-opacity:1;stroke:none;stroke-width:0.33131072;stroke-miterlimit:4;stroke-dasharray:none;stroke-opacity:1" />
  </g>
  <g
     style="display:inline"
     id="layer4">
    <path
       id="rect879"
       d="m 84.37365,9.7801285 84.95968,5.3e-6 V 113.30245 l -84.95968,-10e-6 z"
       style="opacity:1;fill:#787878;fill-opacity:1;stroke:none;stroke-width:3.48259;stroke-miterlimit:4;stroke-dasharray:none;stroke-opacity:1" />
    <path
       id="rect879-8"
       d="m 0,9.7801288 84.373649,5.3e-6 V 113.30245 L 0,113.30244 Z"
       style="opacity:1;fill:#ffffff;fill-opacity:1;stroke:none;stroke-width:3.47056;stroke-miterlimit:4;stroke-dasharray:none;stroke-opacity:1" />
  </g>
  <g
     style="display:inline"
     id="layer2">
    <path
       id="path833"
       d="m 84.373649,98.864395 c -20.535829,0 -37.410114,-16.417364 -37.410114,-36.640068 0,-20.222704 16.874285,-36.640068 37.410114,-36.640068 0.226707,28.555891 0,63.918978 0,73.280136 z"
       style="opacity:1;fill:#787878;fill-opacity:1;stroke:none;stroke-width:3.91291928;stroke-miterlimit:4;stroke-dasharray:none;stroke-opacity:1" />
    <path
       id="path833-2"
       d="m 84.373649,98.864395 c 20.340011,0 37.053391,-16.417364 37.053391,-36.640068 0,-20.222704 -16.71338,-36.640068 -37.053391,-36.640068 -0.22454,28.555891 0,63.918976 0,73.280136 z"
       style="display:inline;opacity:1;fill:#ffffff;fill-opacity:1;stroke:none;stroke-width:3.89421868;stroke-miterlimit:4;stroke-dasharray:none;stroke-opacity:1" />
    <path
       id="path860"
       d="m 84.373649,107.0026 c -20.454075,0 -36.903198,-0.74062 -36.903221,-1.65422 2.3e-5,-0.9136 16.449146,-1.65422 36.903221,-1.65422 0,1.34539 0,1.77621 0,3.30844 z"
       style="opacity:1;fill:#787878;fill-opacity:1;stroke:none;stroke-width:1.4097923;stroke-miterlimit:4;stroke-dasharray:none;stroke-opacity:1" />
    <path
       id="path860-6"
       d="m 84.373649,107.0026 c 20.454071,0 36.903201,-0.74062 36.903221,-1.65422 -2e-5,-0.9136 -16.44915,-1.65422 -36.903221,-1.65422 0,1.34539 0,1.77621 0,3.30844 z"
       style="display:inline;opacity:1;fill:#ffffff;fill-opacity:1;stroke:none;stroke-width:1.40979242;stroke-miterlimit:4;stroke-dasharray:none;stroke-opacity:1" />
  </g>
  <g
     style="display:inline"
     id="layer3">
    <path
       id="path854"
       d="m -0.15875,26.100088 c 0,0 71.264315,-12.897705 121.94153,40.270752"
       style="fill:none;stroke:#787878;stroke-width:0.47625;stroke-linecap:butt;stroke-linejoin:miter;stroke-miterlimit:4;stroke-dasharray:none;stroke-opacity:1" />
    <path
       id="path856"
       d="m 169.67729,47.763906 c 0,0 -25.7365,68.969344 -85.303641,40.248151 0,0 -20.684661,-7.786611 -35.898202,-37.363248"
       style="fill:none;stroke:#ffffff;stroke-width:0.47625;stroke-linecap:butt;stroke-linejoin:miter;stroke-miterlimit:4;stroke-dasharray:none;stroke-opacity:1" />
    <path
       id="path858"
       d="m 169.75855,74.555804 c 0,0 -62.12828,7.139821 -85.384901,-2.124528 0,0 -18.69329,-3.987967 -35.898202,-21.782467"
       style="fill:none;stroke:#ffffff;stroke-width:0.47625;stroke-linecap:butt;stroke-linejoin:miter;stroke-miterlimit:4;stroke-dasharray:none;stroke-opacity:1" />
  </g>
  <g
     inkscape:groupmode="layer"
     id="layer1"
     inkscape:label="text">
    <g
       aria-label="&amp;"
       transform="scale(0.96456734,1.0367342)"
       id="text1051"
       style="font-style:normal;font-variant:normal;font-weight:normal;font-stretch:normal;font-size:3.69616px;line-height:1.25;font-family:'Fira Code';-inkscape-font-specification:'Fira Code';fill:#999a97;fill-opacity:1;stroke:none;stroke-width:0.0982057;stroke-opacity:1">
      <path
         d="m 20.731809,60.277368 q 0.168697,0 0.32223,0.05497 0.153533,0.05497 0.310856,0.225561 l -0.191442,0.174383 q -0.09667,-0.109937 -0.200919,-0.16301 -0.102355,-0.05307 -0.244515,-0.05307 -0.20092,0 -0.30138,0.108041 -0.09856,0.108042 -0.09856,0.274843 0,0.115623 0.06066,0.216083 0.06255,0.09856 0.168697,0.159219 0.106146,0.06065 0.236933,0.06065 h 1.053879 V 61.58524 H 21.50896 v 1.031134 q -0.05686,0.07392 -0.157324,0.155428 -0.10046,0.0815 -0.255888,0.140265 -0.153533,0.05686 -0.373407,0.05686 -0.295693,0 -0.483344,-0.113728 -0.185756,-0.113728 -0.274843,-0.291902 -0.08719,-0.18007 -0.08719,-0.375303 0,-0.293797 0.153533,-0.481448 0.153533,-0.187651 0.441644,-0.246411 v -0.01137 q -0.257784,-0.06065 -0.358244,-0.216083 -0.09856,-0.155428 -0.09856,-0.331707 0,-0.168696 0.08719,-0.308961 0.08719,-0.14216 0.246411,-0.227456 0.161115,-0.08719 0.382884,-0.08719 z m 0.487135,1.307872 h -0.470075 q -0.197129,0 -0.320334,0.09288 -0.123206,0.09098 -0.181965,0.227456 -0.05686,0.136473 -0.05686,0.271052 0,0.136473 0.05497,0.259679 0.05686,0.123205 0.174382,0.199024 0.119415,0.07582 0.310857,0.07582 0.327916,0 0.48903,-0.200919 z"
         style="font-style:normal;font-variant:normal;font-weight:normal;font-stretch:normal;font-size:3.69616px;font-family:'Fira Code';-inkscape-font-specification:'Fira Code';fill:#999a97;fill-opacity:1;stroke:none;stroke-width:0.0982057;stroke-opacity:1"
         id="path3087" />
    </g>
    <g
       aria-label="Lovers_"
       transform="scale(0.96456734,1.0367342)"
       id="text1063"
       style="font-style:normal;font-weight:normal;font-size:3.69616px;line-height:1.25;font-family:sans-serif;fill:#999a97;fill-opacity:1;stroke:none;stroke-width:0.277211">
      <path
         d="m 25.628305,62.915565 h -1.700089 v -2.687296 h 0.357343 v 2.369658 h 1.342746 z"
         style="font-size:3.69616px;fill:#999a97;fill-opacity:1;stroke:none;stroke-width:0.277211"
         id="path3090" />
      <path
         d="m 27.676714,61.908506 q 0,0.492701 -0.252667,0.777854 -0.252667,0.285153 -0.676787,0.285153 -0.42773,0 -0.680397,-0.285153 -0.250862,-0.285153 -0.250862,-0.777854 0,-0.492701 0.250862,-0.777854 0.252667,-0.286957 0.680397,-0.286957 0.42412,0 0.676787,0.286957 0.252667,0.285153 0.252667,0.777854 z m -0.350124,0 q 0,-0.391634 -0.153406,-0.581134 -0.153405,-0.191305 -0.425924,-0.191305 -0.276129,0 -0.429534,0.191305 -0.151601,0.1895 -0.151601,0.581134 0,0.379001 0.153405,0.57572 0.153405,0.194915 0.42773,0.194915 0.270715,0 0.42412,-0.19311 0.15521,-0.194914 0.15521,-0.577525 z"
         style="font-size:3.69616px;fill:#999a97;fill-opacity:1;stroke:none;stroke-width:0.277211"
         id="path3092" />
      <path
         d="m 29.918233,60.899642 -0.815754,2.015923 h -0.3411 l -0.81034,-2.015923 h 0.368172 l 0.624449,1.604437 0.619035,-1.604437 z"
         style="font-size:3.69616px;fill:#999a97;fill-opacity:1;stroke:none;stroke-width:0.277211"
         id="path3094" />
      <path
         d="m 32.017176,61.942797 h -1.485322 q 0,0.185891 0.05595,0.324858 0.05595,0.137162 0.153405,0.225595 0.09385,0.08663 0.221987,0.129943 0.129943,0.04331 0.285153,0.04331 0.205743,0 0.413291,-0.08122 0.209353,-0.08302 0.297786,-0.162429 h 0.01805 v 0.369977 q -0.171453,0.07219 -0.350125,0.12092 -0.178671,0.04873 -0.375391,0.04873 -0.501725,0 -0.783268,-0.270714 -0.281544,-0.27252 -0.281544,-0.77244 0,-0.494506 0.26891,-0.785073 0.270715,-0.290567 0.711078,-0.290567 0.407877,0 0.628059,0.238229 0.221986,0.238229 0.221986,0.676787 z m -0.330272,-0.259886 q -0.0018,-0.267106 -0.135358,-0.413292 -0.131748,-0.146186 -0.402463,-0.146186 -0.272519,0 -0.434948,0.160624 -0.160624,0.160624 -0.182281,0.398854 z"
         style="font-size:3.69616px;fill:#999a97;fill-opacity:1;stroke:none;stroke-width:0.277211"
         id="path3096" />
      <path
         d="m 33.789456,61.269619 h -0.01805 q -0.0758,-0.01805 -0.14799,-0.02527 -0.07039,-0.009 -0.167844,-0.009 -0.157014,0 -0.3032,0.07039 -0.146186,0.06858 -0.281544,0.178671 v 1.431179 h -0.339296 v -2.015923 h 0.339296 v 0.297787 q 0.202134,-0.162429 0.355539,-0.229206 0.15521,-0.06858 0.315834,-0.06858 0.08843,0 0.128139,0.0054 0.0397,0.0036 0.119114,0.01624 z"
         style="font-size:3.69616px;fill:#999a97;fill-opacity:1;stroke:none;stroke-width:0.277211"
         id="path3098" />
      <path
         d="m 35.549102,62.334431 q 0,0.276129 -0.229205,0.452996 -0.2274,0.176867 -0.622644,0.176867 -0.223791,0 -0.411487,-0.05234 -0.18589,-0.05414 -0.312224,-0.11731 v -0.380805 h 0.01805 q 0.160624,0.120919 0.357343,0.19311 0.19672,0.07038 0.377196,0.07038 0.223791,0 0.350125,-0.07219 0.126333,-0.07219 0.126333,-0.227401 0,-0.119114 -0.06858,-0.180476 -0.06858,-0.06136 -0.263496,-0.104677 -0.07219,-0.01624 -0.1895,-0.0379 -0.115505,-0.02166 -0.211157,-0.04692 -0.265301,-0.07039 -0.377197,-0.205743 -0.11009,-0.137162 -0.11009,-0.335686 0,-0.124529 0.05053,-0.23462 0.05234,-0.110091 0.157015,-0.196719 0.101067,-0.08482 0.256277,-0.133553 0.157014,-0.05053 0.350124,-0.05053 0.180477,0 0.364563,0.04512 0.185891,0.04331 0.308615,0.106481 v 0.362758 h -0.01805 q -0.129943,-0.09565 -0.315834,-0.160624 -0.185891,-0.06678 -0.364563,-0.06678 -0.18589,0 -0.314029,0.07219 -0.128138,0.07039 -0.128138,0.211158 0,0.124528 0.0776,0.187695 0.0758,0.06317 0.245448,0.102872 0.09385,0.02166 0.209353,0.04331 0.117309,0.02166 0.194914,0.0397 0.236425,0.05414 0.364563,0.185891 0.128138,0.133553 0.128138,0.353734 z"
         style="font-size:3.69616px;fill:#999a97;fill-opacity:1;stroke:none;stroke-width:0.277211"
         id="path3100" />
      <path
         d="m 38.057727,63.456995 h -2.364243 v -0.216572 h 2.364243 z"
         style="font-size:3.69616px;fill:#999a97;fill-opacity:1;stroke:none;stroke-width:0.277211"
         id="path3102" />
    </g>
    <g
       aria-label="Love"
       transform="scale(0.96456734,1.0367342)"
       id="text1059"
       style="font-style:normal;font-weight:normal;font-size:3.69616px;line-height:1.25;font-family:sans-serif;fill:#999a97;fill-opacity:1;stroke:none;stroke-width:0.144446">
      <path
         d="M 10.548836,62.874054 H 8.8938664 v -2.645787 h 0.3501245 v 2.331758 h 1.3048451 z"
         style="font-style:normal;font-variant:normal;font-weight:normal;font-stretch:normal;font-size:3.69616px;font-family:'Arial Unicode MS';-inkscape-font-specification:'Arial Unicode MS';fill:#999a97;fill-opacity:1;stroke:none;stroke-width:0.144446"
         id="path3078" />
      <path
         d="m 11.698472,60.915883 q 0.388025,0 0.642497,0.252667 0.256276,0.252668 0.256276,0.718297 0,0.564892 -0.276129,0.799511 -0.276129,0.232815 -0.622644,0.232815 -0.362758,0 -0.629863,-0.240034 -0.267105,-0.240034 -0.267105,-0.761611 0,-0.505334 0.258081,-0.752587 0.258082,-0.249058 0.638887,-0.249058 z m 0,1.736185 q 0.277934,0 0.422315,-0.205744 0.144382,-0.205743 0.144382,-0.541429 0,-0.359149 -0.164234,-0.54143 -0.162429,-0.182281 -0.402463,-0.182281 -0.247253,0 -0.406072,0.185891 -0.158819,0.184086 -0.158819,0.550453 0,0.364563 0.160624,0.550454 0.162429,0.184086 0.404267,0.184086 z"
         style="font-style:normal;font-variant:normal;font-weight:normal;font-stretch:normal;font-size:3.69616px;font-family:'Arial Unicode MS';-inkscape-font-specification:'Arial Unicode MS';fill:#999a97;fill-opacity:1;stroke:none;stroke-width:0.144446"
         id="path3080" />
      <path
         d="m 14.530149,60.959198 -0.723711,1.914856 h -0.3032 l -0.727321,-1.914856 h 0.342906 l 0.395243,1.108126 q 0.111896,0.314029 0.133553,0.425924 h 0.0072 q 0.02888,-0.115505 0.09926,-0.310419 l 0.443973,-1.223631 z"
         style="font-style:normal;font-variant:normal;font-weight:normal;font-stretch:normal;font-size:3.69616px;font-family:'Arial Unicode MS';-inkscape-font-specification:'Arial Unicode MS';fill:#999a97;fill-opacity:1;stroke:none;stroke-width:0.144446"
         id="path3082" />
      <path
         d="m 16.486516,61.998743 h -1.434789 q 0.01985,0.317638 0.180476,0.485482 0.162429,0.167843 0.404268,0.167843 0.185891,0 0.312224,-0.09746 0.126334,-0.09926 0.19311,-0.297786 l 0.333882,0.04151 q -0.08121,0.299591 -0.297786,0.460215 -0.216572,0.160624 -0.54143,0.160624 -0.431339,0 -0.674982,-0.263496 -0.241839,-0.2653 -0.241839,-0.723711 0,-0.452996 0.23462,-0.734539 0.236424,-0.281544 0.664153,-0.281544 0.209353,0 0.402463,0.09204 0.194915,0.09204 0.330272,0.314029 0.135358,0.220182 0.135358,0.676788 z m -0.333882,-0.267106 q -0.01985,-0.292372 -0.182281,-0.42051 -0.160625,-0.129943 -0.35193,-0.129943 -0.229205,0 -0.377196,0.153405 -0.147991,0.153405 -0.171452,0.397048 z"
         style="font-style:normal;font-variant:normal;font-weight:normal;font-stretch:normal;font-size:3.69616px;font-family:'Arial Unicode MS';-inkscape-font-specification:'Arial Unicode MS';fill:#999a97;fill-opacity:1;stroke:none;stroke-width:0.144446"
         id="path3084" />
    </g>
  </g>
</svg>
