<?xml version="1.0" encoding="UTF-8" standalone="no"?>
<svg
   xmlns:dc="http://purl.org/dc/elements/1.1/"
   xmlns:cc="http://creativecommons.org/ns#"
   xmlns:rdf="http://www.w3.org/1999/02/22-rdf-syntax-ns#"
   xmlns:svg="http://www.w3.org/2000/svg"
   xmlns="http://www.w3.org/2000/svg"
   id="svg8"
   version="1.1"
   viewBox="0 0 169.33333 127"
   height="480"
   width="640">
  <title
     id="title826">Uraomote Lovers</title>
  <defs
     id="defs2" />
  <metadata
     id="metadata5">
    <rdf:RDF>
      <cc:Work
         rdf:about="">
        <dc:format>image/svg+xml</dc:format>
        <dc:type
           rdf:resource="http://purl.org/dc/dcmitype/StillImage" />
        <dc:title>Uraomote Lovers</dc:title>
        <dc:date>2020/7/21</dc:date>
        <cc:license
           rdf:resource="http://creativecommons.org/publicdomain/zero/1.0/" />
      </cc:Work>
      <cc:License
         rdf:about="http://creativecommons.org/publicdomain/zero/1.0/">
        <cc:permits
           rdf:resource="http://creativecommons.org/ns#Reproduction" />
        <cc:permits
           rdf:resource="http://creativecommons.org/ns#Distribution" />
        <cc:permits
           rdf:resource="http://creativecommons.org/ns#DerivativeWorks" />
      </cc:License>
    </rdf:RDF>
  </metadata>
  <g
     id="layer7">
    <rect
       y="0"
       x="1.7763568e-15"
       height="127"
       width="169.33333"
       id="rect2167"
       style="opacity:1;fill:#ffffff;fill-opacity:1;stroke:none;stroke-width:0.33131072;stroke-miterlimit:4;stroke-dasharray:none;stroke-opacity:1" />
  </g>
  <g
     style="display:inline"
     id="layer4">
    <path
       id="rect879"
       d="m 84.37365,9.7801285 84.95968,5.3e-6 V 113.30245 l -84.95968,-10e-6 z"
       style="opacity:1;fill:#787878;fill-opacity:1;stroke:none;stroke-width:3.48258901;stroke-miterlimit:4;stroke-dasharray:none;stroke-opacity:1" />
    <path
       id="rect879-8"
       d="m 0,9.7801288 84.373649,5.3e-6 V 113.30245 L 0,113.30244 Z"
       style="opacity:1;fill:#ffffff;fill-opacity:1;stroke:none;stroke-width:3.47055674;stroke-miterlimit:4;stroke-dasharray:none;stroke-opacity:1" />
  </g>
  <g
     style="display:inline"
     id="layer2">
    <path
       id="path833"
       d="m 84.373649,98.864395 c -20.535829,0 -37.410114,-16.417364 -37.410114,-36.640068 0,-20.222704 16.874285,-36.640068 37.410114,-36.640068 0.226707,28.555891 0,63.918978 0,73.280136 z"
       style="opacity:1;fill:#787878;fill-opacity:1;stroke:none;stroke-width:3.91291928;stroke-miterlimit:4;stroke-dasharray:none;stroke-opacity:1" />
    <path
       id="path833-2"
       d="m 84.373649,98.864395 c 20.340011,0 37.053391,-16.417364 37.053391,-36.640068 0,-20.222704 -16.71338,-36.640068 -37.053391,-36.640068 -0.22454,28.555891 0,63.918976 0,73.280136 z"
       style="display:inline;opacity:1;fill:#ffffff;fill-opacity:1;stroke:none;stroke-width:3.89421868;stroke-miterlimit:4;stroke-dasharray:none;stroke-opacity:1" />
    <path
       id="path860"
       d="m 84.373649,107.0026 c -20.454075,0 -36.903198,-0.74062 -36.903221,-1.65422 2.3e-5,-0.9136 16.449146,-1.65422 36.903221,-1.65422 0,1.34539 0,1.77621 0,3.30844 z"
       style="opacity:1;fill:#787878;fill-opacity:1;stroke:none;stroke-width:1.4097923;stroke-miterlimit:4;stroke-dasharray:none;stroke-opacity:1" />
    <path
       id="path860-6"
       d="m 84.373649,107.0026 c 20.454071,0 36.903201,-0.74062 36.903221,-1.65422 -2e-5,-0.9136 -16.44915,-1.65422 -36.903221,-1.65422 0,1.34539 0,1.77621 0,3.30844 z"
       style="display:inline;opacity:1;fill:#ffffff;fill-opacity:1;stroke:none;stroke-width:1.40979242;stroke-miterlimit:4;stroke-dasharray:none;stroke-opacity:1" />
  </g>
  <g
     style="display:inline"
     id="layer3">
    <path
       id="path854"
       d="m -0.15875,26.100088 c 0,0 71.264315,-12.897705 121.94153,40.270752"
       style="fill:none;stroke:#787878;stroke-width:0.47624999;stroke-linecap:butt;stroke-linejoin:miter;stroke-miterlimit:4;stroke-dasharray:none;stroke-opacity:1" />
    <path
       id="path856"
       d="m 169.67729,47.763906 c 0,0 -25.7365,68.969344 -85.303641,40.248151 0,0 -20.684661,-7.786611 -35.898202,-37.363248"
       style="fill:none;stroke:#ffffff;stroke-width:0.47624999;stroke-linecap:butt;stroke-linejoin:miter;stroke-miterlimit:4;stroke-dasharray:none;stroke-opacity:1" />
    <path
       id="path858"
       d="m 169.75855,74.555804 c 0,0 -62.12828,7.139821 -85.384901,-2.124528 0,0 -18.69329,-3.987967 -35.898202,-21.782467"
       style="fill:none;stroke:#ffffff;stroke-width:0.47624999;stroke-linecap:butt;stroke-linejoin:miter;stroke-miterlimit:4;stroke-dasharray:none;stroke-opacity:1" />
  </g>
  <g
     id="layer5">
    <g
       id="text904"
       style="font-style:normal;font-variant:normal;font-weight:normal;font-stretch:normal;font-size:3.85030651px;line-height:1.25;font-family:'Berlin Sans FB';-inkscape-font-specification:'Berlin Sans FB';letter-spacing:0px;word-spacing:0px;fill:#999a97;fill-opacity:1;stroke:none;stroke-width:0.10313322"
       transform="scale(0.972992,1.0277577)"
       aria-label="Love">
      <path
         id="path908"
         style="font-style:normal;font-variant:normal;font-weight:normal;font-stretch:normal;font-family:sans-serif;-inkscape-font-specification:sans-serif;fill:#999a97;fill-opacity:1;stroke-width:0.09721468"
         d="M 10.226905,63.55014 H 8.8415102 V 60.750772 H 9.269375 v 2.428258 h 0.95753 z" />
      <path
         id="path910"
         style="font-style:normal;font-variant:normal;font-weight:normal;font-stretch:normal;font-family:sans-serif;-inkscape-font-specification:sans-serif;fill:#999a97;fill-opacity:1;stroke-width:0.10766132"
         d="m 12.677666,62.488882 q 0,0.507604 -0.290014,0.801381 -0.290014,0.293778 -0.776823,0.293778 -0.490953,0 -0.780966,-0.293778 -0.287943,-0.293777 -0.287943,-0.801381 0,-0.507604 0.287943,-0.801382 0.290013,-0.295637 0.780966,-0.295637 0.486809,0 0.776823,0.295637 0.290014,0.293778 0.290014,0.801382 z m -0.401877,0 q 0,-0.40348 -0.17608,-0.598712 -0.17608,-0.197092 -0.48888,-0.197092 -0.316944,0 -0.493025,0.197092 -0.174007,0.195232 -0.174007,0.598712 0,0.390464 0.176079,0.593134 0.17608,0.20081 0.490953,0.20081 0.310729,0 0.486809,-0.19895 0.178151,-0.200811 0.178151,-0.594994 z" />
      <path
         id="path912"
         style="font-style:normal;font-variant:normal;font-weight:normal;font-stretch:normal;font-family:sans-serif;-inkscape-font-specification:sans-serif;fill:#999a97;fill-opacity:1;stroke-width:0.09978361"
         d="m 14.939739,61.433891 -0.778583,2.14555 h -0.325558 l -0.773415,-2.14555 h 0.351396 l 0.595994,1.707605 0.590827,-1.707605 z" />
      <path
         id="path914"
         style="font-style:normal;font-variant:normal;font-weight:normal;font-stretch:normal;font-family:sans-serif;-inkscape-font-specification:sans-serif;fill:#999a97;fill-opacity:1;stroke-width:0.10409196"
         d="m 17.353197,62.505007 h -1.564685 q 0,0.195024 0.05894,0.340861 0.05894,0.143927 0.161602,0.236756 0.09886,0.09092 0.233847,0.136381 0.136886,0.04546 0.300389,0.04546 0.216737,0 0.435374,-0.08546 0.220539,-0.08728 0.313698,-0.170476 h 0.01901 v 0.388229 q -0.180613,0.07546 -0.368831,0.126925 -0.188219,0.05091 -0.395449,0.05091 -0.528533,0 -0.825119,-0.284035 -0.296587,-0.285945 -0.296587,-0.810555 0,-0.518883 0.283278,-0.823829 0.28518,-0.304947 0.749072,-0.304947 0.42967,0 0.661616,0.25003 0.233847,0.250032 0.233847,0.71018 z m -0.347919,-0.27267 q -0.0019,-0.280308 -0.14259,-0.43369 -0.138787,-0.153383 -0.423967,-0.153383 -0.28708,0 -0.458188,0.168566 -0.169207,0.168567 -0.192021,0.418507 z" />
    </g>
    <path
       id="path926"
       d="m 20.770973,63.12489 h -0.496094 l -0.04725,-0.224425 -0.07678,-0.159459 -0.12993,-0.05906 -0.159458,0.0118 -0.118118,0.07678 -0.07087,0.14174 -0.159458,0.18899 -0.153553,0.100398 0.01181,0.0945 0.27167,0.09449 0.188988,0.03543 -0.0059,0.188987 0.06496,0.248047 -0.01772,0.159459 -0.230329,0.04725 -0.224424,0.04134 -0.212611,0.265766 0.05315,0.31301 0.295294,0.05906 0.87407,-0.01773 0.100399,-0.147646 0.02953,-0.212611 -0.03543,-0.25986 -0.236236,-0.07087 v -0.165365 c 0,0 0.159459,-0.153553 0.183083,-0.165364 0.02362,-0.0118 0.330729,-0.0118 0.330729,-0.0118 l 0.3012,0.206706 0.01772,0.37207 -0.01772,0.596496 -0.23033,0.183081 -1.759951,0.0059 -0.23033,-0.34254 -0.04725,-0.496094 0.218518,-0.159459 0.17127,-0.153551 0.04725,-0.265766 -0.336636,-0.05906 -0.07087,-0.354354 0.05906,-0.253951 0.2008,-0.183082 0.242141,-0.265766 0.419317,-0.07087 0.57287,0.0118 0.09449,0.318916 0.265765,0.07678 z"
       style="fill:#999a97;fill-opacity:1;stroke:none;stroke-width:0.26458332px;stroke-linecap:butt;stroke-linejoin:miter;stroke-opacity:1" />
    <g
       id="text904-4"
       style="font-style:normal;font-variant:normal;font-weight:normal;font-stretch:normal;font-size:3.85030651px;line-height:1.25;font-family:'Berlin Sans FB';-inkscape-font-specification:'Berlin Sans FB';letter-spacing:0px;word-spacing:0px;fill:#999a97;fill-opacity:1;stroke:none;stroke-width:0.10313322"
       transform="matrix(0.97299201,0,0,1.0277577,14.303866,-0.05048598)"
       aria-label="Love">
      <path
         id="path910-3"
         style="font-style:normal;font-variant:normal;font-weight:normal;font-stretch:normal;font-family:sans-serif;-inkscape-font-specification:sans-serif;fill:#999a97;fill-opacity:1;stroke-width:0.09568679"
         d="m 12.677666,62.635037 q 0,0.439861 -0.26437,0.694432 -0.26437,0.254572 -0.708135,0.254572 -0.447541,0 -0.71191,-0.254572 -0.262483,-0.254571 -0.262483,-0.694432 0,-0.439862 0.262483,-0.694434 0.264369,-0.256183 0.71191,-0.256183 0.443765,0 0.708135,0.256183 0.26437,0.254572 0.26437,0.694434 z m -0.366342,0 q 0,-0.349634 -0.160511,-0.518811 -0.16051,-0.170789 -0.445652,-0.170789 -0.288918,0 -0.44943,0.170789 -0.158621,0.169177 -0.158621,0.518811 0,0.338354 0.16051,0.513977 0.16051,0.174011 0.447541,0.174011 0.283254,0 0.443765,-0.172399 0.162398,-0.174012 0.162398,-0.515589 z" />
      <path
         id="path912-5"
         style="font-style:normal;font-variant:normal;font-weight:normal;font-stretch:normal;font-family:sans-serif;-inkscape-font-specification:sans-serif;fill:#999a97;fill-opacity:1;stroke-width:0.09394352"
         d="m 14.939739,61.677689 -0.778583,1.901752 h -0.325558 l -0.773415,-1.901752 h 0.351396 l 0.595994,1.513571 0.590827,-1.513571 z" />
    </g>
    <g
       transform="matrix(0.34386643,0,0,0.39389288,22.083722,40.860256)"
       id="text957"
       style="font-style:normal;font-variant:normal;font-weight:normal;font-stretch:normal;font-size:9.8777771px;line-height:1.25;font-family:sans-serif;-inkscape-font-specification:sans-serif;letter-spacing:0px;word-spacing:0px;fill:#999a97;fill-opacity:1;stroke:none;stroke-width:0.26458332"
       aria-label="rs">
      <path
         id="path959"
         style="font-style:normal;font-variant:normal;font-weight:normal;font-stretch:normal;font-family:sans-serif;-inkscape-font-specification:sans-serif;fill:#999a97;fill-opacity:1;stroke-width:0.26458332"
         d="m 31.645466,57.683891 h -0.04823 q -0.202572,-0.04823 -0.395497,-0.06752 -0.188103,-0.02412 -0.448552,-0.02412 -0.419612,0 -0.810286,0.188102 -0.390674,0.183279 -0.752409,0.47749 v 3.824745 h -0.906749 v -5.38744 h 0.906749 v 0.795817 q 0.540191,-0.434082 0.950157,-0.612538 0.41479,-0.183279 0.844049,-0.183279 0.236333,0 0.342442,0.01447 0.106109,0.0096 0.318327,0.04341 z" />
      <path
         id="path961"
         style="font-style:normal;font-variant:normal;font-weight:normal;font-stretch:normal;font-family:sans-serif;-inkscape-font-specification:sans-serif;fill:#999a97;fill-opacity:1;stroke-width:0.26458332"
         d="m 36.357667,60.529539 q 0,0.73794 -0.612538,1.210607 -0.607715,0.472667 -1.663981,0.472667 -0.598068,0 -1.099674,-0.139871 -0.496783,-0.144694 -0.834402,-0.313504 v -1.017681 h 0.04823 q 0.429259,0.32315 0.95498,0.516075 0.525722,0.188103 1.008035,0.188103 0.598069,0 0.935688,-0.192926 0.33762,-0.192925 0.33762,-0.607715 0,-0.318326 -0.18328,-0.482313 -0.183279,-0.163986 -0.704177,-0.279742 -0.192925,-0.04341 -0.506429,-0.101285 -0.308681,-0.05788 -0.564307,-0.125402 -0.709,-0.188102 -1.008034,-0.549837 -0.294212,-0.366558 -0.294212,-0.897103 0,-0.332796 0.135048,-0.627007 0.139871,-0.294211 0.419613,-0.525722 0.270095,-0.226687 0.684885,-0.356912 0.419612,-0.135047 0.935688,-0.135047 0.482313,0 0.974272,0.120578 0.496783,0.115755 0.824756,0.284565 v 0.96945 h -0.04823 q -0.347266,-0.255626 -0.844048,-0.429259 -0.496783,-0.178456 -0.974273,-0.178456 -0.496783,0 -0.839226,0.192925 -0.342442,0.188102 -0.342442,0.564307 0,0.332796 0.207395,0.501606 0.202571,0.168809 0.655946,0.274918 0.250803,0.05788 0.559483,0.115755 0.313504,0.05788 0.520899,0.106109 0.63183,0.144694 0.974273,0.496783 0.342442,0.356912 0.342442,0.945334 z" />
    </g>
    <path
       id="path914-9"
       style="font-style:normal;font-variant:normal;font-weight:normal;font-stretch:normal;font-size:3.85030651px;line-height:1.25;font-family:sans-serif;-inkscape-font-specification:sans-serif;letter-spacing:0px;word-spacing:0px;fill:#999a97;fill-opacity:1;stroke:none;stroke-width:0.10197793"
       d="m 31.223213,64.316183 h -1.522426 q 0,0.192379 0.05735,0.336237 0.05735,0.141975 0.157237,0.233545 0.09619,0.08968 0.227531,0.134532 0.133189,0.04484 0.292276,0.04484 0.210884,0 0.423616,-0.0843 0.214582,-0.08609 0.305225,-0.168163 h 0.0185 v 0.382962 q -0.175735,0.07443 -0.358869,0.125204 -0.183136,0.05022 -0.384769,0.05022 -0.514258,0 -0.802834,-0.280182 -0.288577,-0.282066 -0.288577,-0.79956 0,-0.511845 0.275627,-0.812655 0.277478,-0.300811 0.728841,-0.300811 0.418065,0 0.643747,0.246639 0.227531,0.24664 0.227531,0.700547 z m -0.338522,-0.268971 q -0.0018,-0.276506 -0.138739,-0.427807 -0.135039,-0.151303 -0.412516,-0.151303 -0.279327,0 -0.445814,0.166279 -0.164637,0.166281 -0.186835,0.412831 z" />
    <path
       id="path908-7"
       style="font-style:normal;font-variant:normal;font-weight:normal;font-stretch:normal;font-size:3.85030651px;line-height:1.25;font-family:sans-serif;-inkscape-font-specification:sans-serif;letter-spacing:0px;word-spacing:0px;fill:#999a97;fill-opacity:1;stroke:none;stroke-width:0.09721468"
       d="m 24.369919,65.314145 h -1.347978 v -2.877072 h 0.416309 v 2.495661 h 0.931669 z" />
    <rect
       y="65.776283"
       x="34.51395"
       height="0.51128817"
       width="2.5158019"
       id="rect2164"
       style="opacity:1;fill:#999a97;fill-opacity:1;stroke:none;stroke-width:0.00554435;stroke-miterlimit:4;stroke-dasharray:none;stroke-opacity:1" />
  </g>
</svg>
