<?xml version="1.0" encoding="UTF-8" standalone="no"?>
<svg
   xmlns:dc="http://purl.org/dc/elements/1.1/"
   xmlns:cc="http://creativecommons.org/ns#"
   xmlns:rdf="http://www.w3.org/1999/02/22-rdf-syntax-ns#"
   xmlns:svg="http://www.w3.org/2000/svg"
   xmlns="http://www.w3.org/2000/svg"
   width="640"
   height="480"
   viewBox="0 0 169.33333 127"
   version="1.1"
   id="svg1888">
  <title
     id="title2451">World's End Dancehall</title>
  <defs
     id="defs1882" />
  <metadata
     id="metadata1885">
    <rdf:RDF>
      <cc:Work
         rdf:about="">
        <dc:format>image/svg+xml</dc:format>
        <dc:type
           rdf:resource="http://purl.org/dc/dcmitype/StillImage" />
        <dc:title>World's End Dancehall</dc:title>
        <dc:date>2022/7/13</dc:date>
      </cc:Work>
    </rdf:RDF>
  </metadata>
  <g
     id="layer1"
     style="display:inline;opacity:1">
    <rect
       style="opacity:1;fill:#ffffff;fill-opacity:1;stroke:none;stroke-width:0"
       id="rect3274"
       width="169.33333"
       height="127"
       x="-7.1054274e-15"
       y="0" />
  </g>
  <g
     id="layer5"
     style="display:inline;opacity:1">
    <path
       style="display:inline;opacity:1;fill:#bababa;fill-opacity:1;stroke:none;stroke-width:0.264583px;stroke-linecap:butt;stroke-linejoin:miter;stroke-opacity:1"
       d="M 0,26.115978 34.344134,41.755419 V 86.595327 L 0,102.29741 Z"
       id="path2478" />
    <path
       style="display:inline;fill:#787878;fill-opacity:1;stroke:none;stroke-width:0.264583px;stroke-linecap:butt;stroke-linejoin:miter;stroke-opacity:1"
       d="M 134.62032,41.394769 169.33333,25.423478 V 103.44736 L 134.62032,86.988147 Z"
       id="path2482" />
    <rect
       style="display:inline;fill:#787878;fill-opacity:1;stroke:none;stroke-width:0"
       id="rect2486"
       width="49.373249"
       height="45.878487"
       x="35.24617"
       y="41.209618" />
    <rect
       style="display:inline;fill:#bababa;fill-opacity:1;stroke:none;stroke-width:0"
       id="rect2494"
       width="49.113281"
       height="45.878487"
       x="84.619415"
       y="41.209618" />
    <rect
       style="display:inline;fill:#bababa;fill-opacity:1;stroke:none;stroke-width:0"
       id="rect2508"
       width="25.315435"
       height="29.293898"
       x="47.440342"
       y="50.931549" />
    <rect
       style="display:inline;opacity:0.529032;fill:#787878;fill-opacity:1;stroke:none;stroke-width:0"
       id="rect2508-5"
       width="25.315435"
       height="29.293896"
       x="96.813637"
       y="50.931549" />
    <rect
       style="display:inline;fill:#ffffff;fill-opacity:1;stroke:none;stroke-width:0"
       id="rect2525"
       width="23.670759"
       height="27.679102"
       x="48.286457"
       y="51.699947" />
    <rect
       style="display:inline;opacity:0.529032;fill:#ffffff;fill-opacity:1;stroke:none;stroke-width:0"
       id="rect2525-5"
       width="23.670759"
       height="27.679102"
       x="97.522339"
       y="51.699947" />
    <rect
       style="display:inline;fill:#c3c3c3;fill-opacity:1;stroke:none;stroke-width:0"
       id="rect2542"
       width="2.4216383"
       height="2.4889395"
       x="49.970768"
       y="64.328438" />
    <rect
       style="display:inline;opacity:0.529032;fill:#787878;fill-opacity:1;stroke:none;stroke-width:0"
       id="rect2542-6"
       width="2.2798972"
       height="2.4889395"
       x="117.24928"
       y="64.328438" />
  </g>
  <g
     id="layer6"
     style="display:inline">
    <g
       aria-label="World's End Dancehall."
       transform="scale(1.0021558,0.99784889)"
       id="text2561"
       style="font-size:4.18779px;line-height:1.25;font-family:sans-serif;stroke-width:0.261738">
      <path
         d="m 63.440057,34.31147 -0.740225,3.052915 h -0.363978 l -0.443725,-1.885323 q -0.09611,-0.411009 -0.194258,-0.924259 h -0.04499 q -0.07566,0.437592 -0.192213,0.916079 l -0.45804,1.893503 H 60.634565 L 59.922968,34.31147 h 0.292409 l 0.406919,1.86283 q 0.06339,0.292409 0.184034,0.934483 h 0.04703 q 0.171765,-0.854735 0.188124,-0.916079 l 0.451905,-1.881234 h 0.380336 l 0.439636,1.893502 q 0.01227,0.04703 0.190169,0.903811 h 0.04499 q 0.01636,-0.07566 0.09611,-0.488712 0.04703,-0.239244 0.08793,-0.419188 l 0.427368,-1.889413 z"
         style="font-style:normal;font-variant:normal;font-weight:normal;font-stretch:normal;font-family:'Yu Gothic';-inkscape-font-specification:'Yu Gothic';fill:#7f7f7f;fill-opacity:1;stroke-width:0.261738"
         id="path2599" />
      <path
         d="m 64.658769,35.21937 q 0.419188,0 0.666611,0.33126 0.220841,0.296499 0.220841,0.758628 0,0.535743 -0.28423,0.842466 -0.241289,0.263781 -0.607312,0.263781 -0.425322,0 -0.6707,-0.33535 -0.216751,-0.294454 -0.216751,-0.758628 0,-0.535743 0.282185,-0.840421 0.241289,-0.261736 0.609356,-0.261736 z m 0,0.212661 q -0.310813,0 -0.476443,0.261737 -0.147227,0.231064 -0.147227,0.61958 0,0.44986 0.188123,0.687059 0.163586,0.202437 0.431457,0.202437 0.308768,0 0.476443,-0.263781 0.147227,-0.23311 0.147227,-0.625715 0,-0.443726 -0.188123,-0.67888 -0.163586,-0.202437 -0.431457,-0.202437 z"
         style="font-style:normal;font-variant:normal;font-weight:normal;font-stretch:normal;font-family:'Yu Gothic';-inkscape-font-specification:'Yu Gothic';fill:#7f7f7f;fill-opacity:1;stroke-width:0.261738"
         id="path2601" />
      <path
         d="m 67.202524,35.21937 -0.02045,0.259692 q -0.220841,0 -0.408964,0.190168 -0.175854,0.175854 -0.265826,0.468263 v 1.226892 H 66.251683 V 35.27049 h 0.247423 v 0.543922 q 0.122689,-0.312857 0.331261,-0.468264 0.171765,-0.126778 0.372157,-0.126778 z"
         style="font-style:normal;font-variant:normal;font-weight:normal;font-stretch:normal;font-family:'Yu Gothic';-inkscape-font-specification:'Yu Gothic';fill:#7f7f7f;fill-opacity:1;stroke-width:0.261738"
         id="path2603" />
      <path
         d="m 68.034766,34.25626 v 3.108125 H 67.775073 V 34.25626 Z"
         style="font-style:normal;font-variant:normal;font-weight:normal;font-stretch:normal;font-family:'Yu Gothic';-inkscape-font-specification:'Yu Gothic';fill:#7f7f7f;fill-opacity:1;stroke-width:0.261738"
         id="path2605" />
      <path
         d="m 70.464011,34.25626 v 3.108125 h -0.251513 v -0.323081 q -0.233109,0.374201 -0.631849,0.374201 -0.39465,0 -0.629804,-0.333305 -0.212661,-0.300589 -0.212661,-0.772942 0,-0.537787 0.267871,-0.838376 0.222885,-0.251512 0.562325,-0.251512 0.392606,0 0.635939,0.366022 V 34.25626 Z m -0.259692,1.609272 q -0.22084,-0.419188 -0.595042,-0.419188 -0.290365,0 -0.45395,0.253558 -0.149272,0.22902 -0.149272,0.613446 0,0.443726 0.202437,0.680925 0.16563,0.198347 0.421233,0.198347 0.343529,0 0.574594,-0.406919 z"
         style="font-style:normal;font-variant:normal;font-weight:normal;font-stretch:normal;font-family:'Yu Gothic';-inkscape-font-specification:'Yu Gothic';fill:#7f7f7f;fill-opacity:1;stroke-width:0.261738"
         id="path2607" />
      <path
         d="m 71.506869,34.31147 -0.08793,1.030589 h -0.171765 l -0.07157,-1.030589 z"
         style="font-style:normal;font-variant:normal;font-weight:normal;font-stretch:normal;font-family:'Yu Gothic';-inkscape-font-specification:'Yu Gothic';fill:#7f7f7f;fill-opacity:1;stroke-width:0.261738"
         id="path2609" />
      <path
         d="m 73.615077,35.714216 -0.251513,0.08793 q -0.118599,-0.378292 -0.511205,-0.378292 -0.237199,0 -0.366022,0.104286 -0.11042,0.08997 -0.11042,0.231065 0,0.175854 0.11042,0.259692 0.09815,0.07566 0.349664,0.130868 l 0.167675,0.03681 q 0.388516,0.08997 0.533698,0.237199 0.132913,0.132913 0.132913,0.376247 0,0.288319 -0.222885,0.455995 -0.210616,0.159495 -0.572549,0.159495 -0.63185,0 -0.826107,-0.507115 l 0.251512,-0.09611 q 0.139048,0.39874 0.578684,0.39874 0.290364,0 0.429412,-0.132914 0.106331,-0.102241 0.106331,-0.253557 0,-0.194258 -0.11042,-0.280141 -0.104286,-0.07975 -0.388516,-0.143137 l -0.167675,-0.03885 q -0.370113,-0.08384 -0.507115,-0.2372 -0.112466,-0.124734 -0.112466,-0.343529 0,-0.263782 0.206527,-0.417143 0.192213,-0.145182 0.521429,-0.145182 0.566415,0 0.758628,0.494846 z"
         style="font-style:normal;font-variant:normal;font-weight:normal;font-stretch:normal;font-family:'Yu Gothic';-inkscape-font-specification:'Yu Gothic';fill:#7f7f7f;fill-opacity:1;stroke-width:0.261738"
         id="path2611" />
      <path
         d="m 73.940204,37.456402 q 0,0 0,0 z"
         style="font-style:normal;font-variant:normal;font-weight:normal;font-stretch:normal;font-family:'Yu Gothic';-inkscape-font-specification:'Yu Gothic';fill:#7f7f7f;fill-opacity:1;stroke-width:0.261738"
         id="path2613" />
      <path
         d="m 77.485921,34.31147 v 0.239244 h -1.603139 v 1.067395 h 1.210533 v 0.239244 h -1.210533 v 1.267788 h 1.633811 v 0.239244 H 75.606732 V 34.31147 Z"
         style="font-style:normal;font-variant:normal;font-weight:normal;font-stretch:normal;font-family:'Yu Gothic';-inkscape-font-specification:'Yu Gothic';fill:#7f7f7f;fill-opacity:1;stroke-width:0.261738"
         id="path2615" />
      <path
         d="m 78.39791,35.27049 v 0.388516 q 0.351709,-0.439636 0.764762,-0.439636 0.28423,0 0.443726,0.177899 0.143137,0.157451 0.143137,0.413053 v 1.554063 h -0.263781 v -1.445687 q 0,-0.464174 -0.388516,-0.464174 -0.363978,0 -0.691149,0.435546 v 1.474315 H 78.146397 V 35.27049 Z"
         style="font-style:normal;font-variant:normal;font-weight:normal;font-stretch:normal;font-family:'Yu Gothic';-inkscape-font-specification:'Yu Gothic';fill:#7f7f7f;fill-opacity:1;stroke-width:0.261738"
         id="path2617" />
      <path
         d="m 82.166511,34.25626 v 3.108125 h -0.251512 v -0.323081 q -0.23311,0.374201 -0.631849,0.374201 -0.394651,0 -0.629805,-0.333305 -0.212661,-0.300589 -0.212661,-0.772942 0,-0.537787 0.267871,-0.838376 0.222886,-0.251512 0.562326,-0.251512 0.392605,0 0.635938,0.366022 V 34.25626 Z m -0.259692,1.609272 q -0.22084,-0.419188 -0.595042,-0.419188 -0.290364,0 -0.45395,0.253558 -0.149272,0.22902 -0.149272,0.613446 0,0.443726 0.202437,0.680925 0.165631,0.198347 0.421233,0.198347 0.34353,0 0.574594,-0.406919 z"
         style="font-style:normal;font-variant:normal;font-weight:normal;font-stretch:normal;font-family:'Yu Gothic';-inkscape-font-specification:'Yu Gothic';fill:#7f7f7f;fill-opacity:1;stroke-width:0.261738"
         id="path2619" />
      <path
         d="m 82.57752,37.456402 q 0,0 0,0 z"
         style="font-style:normal;font-variant:normal;font-weight:normal;font-stretch:normal;font-family:'Yu Gothic';-inkscape-font-specification:'Yu Gothic';fill:#7f7f7f;fill-opacity:1;stroke-width:0.261738"
         id="path2621" />
      <path
         d="m 84.244047,34.31147 h 0.903811 q 0.736135,0 1.110336,0.423277 0.33944,0.384426 0.33944,1.087844 0,0.801569 -0.472353,1.206444 -0.388515,0.33535 -1.030589,0.33535 h -0.850645 z m 0.276051,0.235154 v 2.582607 h 0.566415 q 0.609356,0 0.924258,-0.355799 0.294454,-0.333305 0.294454,-0.946751 0,-1.280057 -1.181905,-1.280057 z"
         style="font-style:normal;font-variant:normal;font-weight:normal;font-stretch:normal;font-family:'Yu Gothic';-inkscape-font-specification:'Yu Gothic';fill:#7f7f7f;fill-opacity:1;stroke-width:0.261738"
         id="path2623" />
      <path
         d="m 87.251978,35.757157 q 0.188123,-0.537787 0.824062,-0.537787 0.74227,0 0.74227,0.695238 v 0.73818 q 0,0.419188 0.05112,0.711597 h -0.243333 q -0.02658,-0.120644 -0.04703,-0.368068 -0.276051,0.419188 -0.756583,0.419188 -0.333306,0 -0.50916,-0.192213 -0.149272,-0.16154 -0.149272,-0.415098 0,-0.56846 0.707507,-0.687059 0.276051,-0.04703 0.695239,-0.06748 V 35.94119 q 0,-0.298544 -0.130869,-0.415099 -0.114509,-0.102241 -0.363977,-0.102241 -0.449861,0 -0.576639,0.421233 z m 1.314819,0.488712 q -0.314902,0.0061 -0.640029,0.06748 -0.503025,0.102241 -0.503025,0.482577 0,0.204482 0.130868,0.314902 0.116555,0.100197 0.312858,0.100197 0.421232,0 0.699328,-0.45395 z"
         style="font-style:normal;font-variant:normal;font-weight:normal;font-stretch:normal;font-family:'Yu Gothic';-inkscape-font-specification:'Yu Gothic';fill:#7f7f7f;fill-opacity:1;stroke-width:0.261738"
         id="path2625" />
      <path
         d="m 89.900019,35.27049 v 0.388516 q 0.351709,-0.439636 0.764763,-0.439636 0.28423,0 0.443726,0.177899 0.143137,0.157451 0.143137,0.413053 v 1.554063 h -0.263782 v -1.445687 q 0,-0.464174 -0.388515,-0.464174 -0.363978,0 -0.691149,0.435546 v 1.474315 H 89.648507 V 35.27049 Z"
         style="font-style:normal;font-variant:normal;font-weight:normal;font-stretch:normal;font-family:'Yu Gothic';-inkscape-font-specification:'Yu Gothic';fill:#7f7f7f;fill-opacity:1;stroke-width:0.261738"
         id="path2627" />
      <path
         d="m 93.609321,35.818502 -0.255602,0.07566 q -0.112465,-0.462129 -0.531653,-0.462129 -0.308768,0 -0.476443,0.261737 -0.147227,0.233109 -0.147227,0.61958 0,0.44986 0.192213,0.687059 0.163585,0.202437 0.431457,0.202437 0.441681,0 0.554146,-0.470308 l 0.249468,0.08384 q -0.196303,0.599132 -0.803614,0.599132 -0.433502,0 -0.676835,-0.333305 -0.214706,-0.292409 -0.214706,-0.760673 0,-0.535743 0.28014,-0.840421 0.241289,-0.261736 0.611401,-0.261736 0.308768,0 0.517339,0.171764 0.190168,0.153362 0.269916,0.427368 z"
         style="font-style:normal;font-variant:normal;font-weight:normal;font-stretch:normal;font-family:'Yu Gothic';-inkscape-font-specification:'Yu Gothic';fill:#7f7f7f;fill-opacity:1;stroke-width:0.261738"
         id="path2629" />
      <path
         d="m 95.879072,36.337886 h -1.519301 q 0,0.439636 0.212661,0.676835 0.177899,0.196303 0.45395,0.196303 0.451905,0 0.592998,-0.449861 l 0.243333,0.09202 q -0.216751,0.562325 -0.840421,0.562325 -0.439636,0 -0.693193,-0.333305 -0.22493,-0.294454 -0.22493,-0.760673 0,-0.531653 0.288319,-0.840421 0.243334,-0.261736 0.607311,-0.261736 0.415099,0 0.660477,0.321036 0.218796,0.286275 0.218796,0.730001 z M 95.61938,36.141583 q -0.02863,-0.363978 -0.212662,-0.552101 -0.157451,-0.161541 -0.402829,-0.161541 -0.282185,0 -0.458039,0.218796 -0.155407,0.190168 -0.1779,0.494846 z"
         style="font-style:normal;font-variant:normal;font-weight:normal;font-stretch:normal;font-family:'Yu Gothic';-inkscape-font-specification:'Yu Gothic';fill:#7f7f7f;fill-opacity:1;stroke-width:0.261738"
         id="path2631" />
      <path
         d="m 96.836046,34.25626 v 1.394566 q 0.355798,-0.431456 0.756583,-0.431456 0.282185,0 0.443725,0.177899 0.143138,0.157451 0.143138,0.408964 v 1.558152 H 97.91571 v -1.445687 q 0,-0.464174 -0.388516,-0.464174 -0.359888,0 -0.691148,0.435546 v 1.474315 H 96.576353 V 34.25626 Z"
         style="font-style:normal;font-variant:normal;font-weight:normal;font-stretch:normal;font-family:'Yu Gothic';-inkscape-font-specification:'Yu Gothic';fill:#7f7f7f;fill-opacity:1;stroke-width:0.261738"
         id="path2633" />
      <path
         d="m 98.946299,35.757157 q 0.188123,-0.537787 0.824062,-0.537787 0.742269,0 0.742269,0.695238 v 0.73818 q 0,0.419188 0.0511,0.711597 h -0.24333 q -0.0266,-0.120644 -0.047,-0.368068 -0.276054,0.419188 -0.756587,0.419188 -0.333305,0 -0.50916,-0.192213 -0.149272,-0.16154 -0.149272,-0.415098 0,-0.56846 0.707508,-0.687059 0.276051,-0.04703 0.695241,-0.06748 V 35.94119 q 0,-0.298544 -0.13087,-0.415099 -0.11451,-0.102241 -0.363979,-0.102241 -0.44986,0 -0.576639,0.421233 z m 1.314821,0.488712 q -0.314905,0.0061 -0.640031,0.06748 -0.503025,0.102241 -0.503025,0.482577 0,0.204482 0.130868,0.314902 0.116555,0.100197 0.312857,0.100197 0.421233,0 0.699331,-0.45395 z"
         style="font-style:normal;font-variant:normal;font-weight:normal;font-stretch:normal;font-family:'Yu Gothic';-inkscape-font-specification:'Yu Gothic';fill:#7f7f7f;fill-opacity:1;stroke-width:0.261738"
         id="path2635" />
      <path
         d="m 101.60252,34.25626 v 3.108125 h -0.25969 V 34.25626 Z"
         style="font-style:normal;font-variant:normal;font-weight:normal;font-stretch:normal;font-family:'Yu Gothic';-inkscape-font-specification:'Yu Gothic';fill:#7f7f7f;fill-opacity:1;stroke-width:0.261738"
         id="path2637" />
      <path
         d="m 102.70059,34.25626 v 3.108125 h -0.2597 V 34.25626 Z"
         style="font-style:normal;font-variant:normal;font-weight:normal;font-stretch:normal;font-family:'Yu Gothic';-inkscape-font-specification:'Yu Gothic';fill:#7f7f7f;fill-opacity:1;stroke-width:0.261738"
         id="path2639" />
      <path
         d="m 103.87022,36.937018 v 0.427367 h -0.41919 v -0.427367 z"
         style="font-style:normal;font-variant:normal;font-weight:normal;font-stretch:normal;font-family:'Yu Gothic';-inkscape-font-specification:'Yu Gothic';fill:#7f7f7f;fill-opacity:1;stroke-width:0.261738"
         id="path2641" />
    </g>
    <path
       style="fill:#7f7f7f;fill-opacity:1;stroke:none;stroke-width:0.264583px;stroke-linecap:butt;stroke-linejoin:miter;stroke-opacity:1"
       d="m 107.6428,34.051806 h 0.33409 l 0.0167,3.29911 0.79347,-0.810162 v 0.334087 l -0.79347,0.985557 h -0.31737 l -0.77676,-0.985557 v -0.334087 l 0.77676,0.810162 z"
       id="path2581" />
  </g>
  <g
     id="g2595"
     transform="rotate(180,84.519831,64.51218)"
     style="display:inline;fill:#7f7f7f;fill-opacity:1">
    <g
       aria-label="World's End Dancehall."
       transform="scale(1.0021558,0.99784889)"
       id="text2591"
       style="font-size:4.18779px;line-height:1.25;font-family:sans-serif;fill:#7f7f7f;fill-opacity:1;stroke-width:0.261738">
      <path
         d="m 63.440057,34.31147 -0.740225,3.052915 h -0.363978 l -0.443725,-1.885323 q -0.09611,-0.411009 -0.194258,-0.924259 h -0.04499 q -0.07566,0.437592 -0.192213,0.916079 l -0.45804,1.893503 H 60.634565 L 59.922968,34.31147 h 0.292409 l 0.406919,1.86283 q 0.06339,0.292409 0.184034,0.934483 h 0.04703 q 0.171765,-0.854735 0.188124,-0.916079 l 0.451905,-1.881234 h 0.380336 l 0.439636,1.893502 q 0.01227,0.04703 0.190169,0.903811 h 0.04499 q 0.01636,-0.07566 0.09611,-0.488712 0.04703,-0.239244 0.08793,-0.419188 l 0.427368,-1.889413 z"
         style="font-style:normal;font-variant:normal;font-weight:normal;font-stretch:normal;font-family:'Yu Gothic';-inkscape-font-specification:'Yu Gothic';fill:#7f7f7f;fill-opacity:1;stroke-width:0.261738"
         id="path2644" />
      <path
         d="m 64.658769,35.21937 q 0.419188,0 0.666611,0.33126 0.220841,0.296499 0.220841,0.758628 0,0.535743 -0.28423,0.842466 -0.241289,0.263781 -0.607312,0.263781 -0.425322,0 -0.6707,-0.33535 -0.216751,-0.294454 -0.216751,-0.758628 0,-0.535743 0.282185,-0.840421 0.241289,-0.261736 0.609356,-0.261736 z m 0,0.212661 q -0.310813,0 -0.476443,0.261737 -0.147227,0.231064 -0.147227,0.61958 0,0.44986 0.188123,0.687059 0.163586,0.202437 0.431457,0.202437 0.308768,0 0.476443,-0.263781 0.147227,-0.23311 0.147227,-0.625715 0,-0.443726 -0.188123,-0.67888 -0.163586,-0.202437 -0.431457,-0.202437 z"
         style="font-style:normal;font-variant:normal;font-weight:normal;font-stretch:normal;font-family:'Yu Gothic';-inkscape-font-specification:'Yu Gothic';fill:#7f7f7f;fill-opacity:1;stroke-width:0.261738"
         id="path2646" />
      <path
         d="m 67.202524,35.21937 -0.02045,0.259692 q -0.220841,0 -0.408964,0.190168 -0.175854,0.175854 -0.265826,0.468263 v 1.226892 H 66.251683 V 35.27049 h 0.247423 v 0.543922 q 0.122689,-0.312857 0.331261,-0.468264 0.171765,-0.126778 0.372157,-0.126778 z"
         style="font-style:normal;font-variant:normal;font-weight:normal;font-stretch:normal;font-family:'Yu Gothic';-inkscape-font-specification:'Yu Gothic';fill:#7f7f7f;fill-opacity:1;stroke-width:0.261738"
         id="path2648" />
      <path
         d="m 68.034766,34.25626 v 3.108125 H 67.775073 V 34.25626 Z"
         style="font-style:normal;font-variant:normal;font-weight:normal;font-stretch:normal;font-family:'Yu Gothic';-inkscape-font-specification:'Yu Gothic';fill:#7f7f7f;fill-opacity:1;stroke-width:0.261738"
         id="path2650" />
      <path
         d="m 70.464011,34.25626 v 3.108125 h -0.251513 v -0.323081 q -0.233109,0.374201 -0.631849,0.374201 -0.39465,0 -0.629804,-0.333305 -0.212661,-0.300589 -0.212661,-0.772942 0,-0.537787 0.267871,-0.838376 0.222885,-0.251512 0.562325,-0.251512 0.392606,0 0.635939,0.366022 V 34.25626 Z m -0.259692,1.609272 q -0.22084,-0.419188 -0.595042,-0.419188 -0.290365,0 -0.45395,0.253558 -0.149272,0.22902 -0.149272,0.613446 0,0.443726 0.202437,0.680925 0.16563,0.198347 0.421233,0.198347 0.343529,0 0.574594,-0.406919 z"
         style="font-style:normal;font-variant:normal;font-weight:normal;font-stretch:normal;font-family:'Yu Gothic';-inkscape-font-specification:'Yu Gothic';fill:#7f7f7f;fill-opacity:1;stroke-width:0.261738"
         id="path2652" />
      <path
         d="m 71.506869,34.31147 -0.08793,1.030589 h -0.171765 l -0.07157,-1.030589 z"
         style="font-style:normal;font-variant:normal;font-weight:normal;font-stretch:normal;font-family:'Yu Gothic';-inkscape-font-specification:'Yu Gothic';fill:#7f7f7f;fill-opacity:1;stroke-width:0.261738"
         id="path2654" />
      <path
         d="m 73.615077,35.714216 -0.251513,0.08793 q -0.118599,-0.378292 -0.511205,-0.378292 -0.237199,0 -0.366022,0.104286 -0.11042,0.08997 -0.11042,0.231065 0,0.175854 0.11042,0.259692 0.09815,0.07566 0.349664,0.130868 l 0.167675,0.03681 q 0.388516,0.08997 0.533698,0.237199 0.132913,0.132913 0.132913,0.376247 0,0.288319 -0.222885,0.455995 -0.210616,0.159495 -0.572549,0.159495 -0.63185,0 -0.826107,-0.507115 l 0.251512,-0.09611 q 0.139048,0.39874 0.578684,0.39874 0.290364,0 0.429412,-0.132914 0.106331,-0.102241 0.106331,-0.253557 0,-0.194258 -0.11042,-0.280141 -0.104286,-0.07975 -0.388516,-0.143137 l -0.167675,-0.03885 q -0.370113,-0.08384 -0.507115,-0.2372 -0.112466,-0.124734 -0.112466,-0.343529 0,-0.263782 0.206527,-0.417143 0.192213,-0.145182 0.521429,-0.145182 0.566415,0 0.758628,0.494846 z"
         style="font-style:normal;font-variant:normal;font-weight:normal;font-stretch:normal;font-family:'Yu Gothic';-inkscape-font-specification:'Yu Gothic';fill:#7f7f7f;fill-opacity:1;stroke-width:0.261738"
         id="path2656" />
      <path
         d="m 73.940204,37.456402 q 0,0 0,0 z"
         style="font-style:normal;font-variant:normal;font-weight:normal;font-stretch:normal;font-family:'Yu Gothic';-inkscape-font-specification:'Yu Gothic';fill:#7f7f7f;fill-opacity:1;stroke-width:0.261738"
         id="path2658" />
      <path
         d="m 77.485921,34.31147 v 0.239244 h -1.603139 v 1.067395 h 1.210533 v 0.239244 h -1.210533 v 1.267788 h 1.633811 v 0.239244 H 75.606732 V 34.31147 Z"
         style="font-style:normal;font-variant:normal;font-weight:normal;font-stretch:normal;font-family:'Yu Gothic';-inkscape-font-specification:'Yu Gothic';fill:#7f7f7f;fill-opacity:1;stroke-width:0.261738"
         id="path2660" />
      <path
         d="m 78.39791,35.27049 v 0.388516 q 0.351709,-0.439636 0.764762,-0.439636 0.28423,0 0.443726,0.177899 0.143137,0.157451 0.143137,0.413053 v 1.554063 h -0.263781 v -1.445687 q 0,-0.464174 -0.388516,-0.464174 -0.363978,0 -0.691149,0.435546 v 1.474315 H 78.146397 V 35.27049 Z"
         style="font-style:normal;font-variant:normal;font-weight:normal;font-stretch:normal;font-family:'Yu Gothic';-inkscape-font-specification:'Yu Gothic';fill:#7f7f7f;fill-opacity:1;stroke-width:0.261738"
         id="path2662" />
      <path
         d="m 82.166511,34.25626 v 3.108125 h -0.251512 v -0.323081 q -0.23311,0.374201 -0.631849,0.374201 -0.394651,0 -0.629805,-0.333305 -0.212661,-0.300589 -0.212661,-0.772942 0,-0.537787 0.267871,-0.838376 0.222886,-0.251512 0.562326,-0.251512 0.392605,0 0.635938,0.366022 V 34.25626 Z m -0.259692,1.609272 q -0.22084,-0.419188 -0.595042,-0.419188 -0.290364,0 -0.45395,0.253558 -0.149272,0.22902 -0.149272,0.613446 0,0.443726 0.202437,0.680925 0.165631,0.198347 0.421233,0.198347 0.34353,0 0.574594,-0.406919 z"
         style="font-style:normal;font-variant:normal;font-weight:normal;font-stretch:normal;font-family:'Yu Gothic';-inkscape-font-specification:'Yu Gothic';fill:#7f7f7f;fill-opacity:1;stroke-width:0.261738"
         id="path2664" />
      <path
         d="m 82.57752,37.456402 q 0,0 0,0 z"
         style="font-style:normal;font-variant:normal;font-weight:normal;font-stretch:normal;font-family:'Yu Gothic';-inkscape-font-specification:'Yu Gothic';fill:#7f7f7f;fill-opacity:1;stroke-width:0.261738"
         id="path2666" />
      <path
         d="m 84.244047,34.31147 h 0.903811 q 0.736135,0 1.110336,0.423277 0.33944,0.384426 0.33944,1.087844 0,0.801569 -0.472353,1.206444 -0.388515,0.33535 -1.030589,0.33535 h -0.850645 z m 0.276051,0.235154 v 2.582607 h 0.566415 q 0.609356,0 0.924258,-0.355799 0.294454,-0.333305 0.294454,-0.946751 0,-1.280057 -1.181905,-1.280057 z"
         style="font-style:normal;font-variant:normal;font-weight:normal;font-stretch:normal;font-family:'Yu Gothic';-inkscape-font-specification:'Yu Gothic';fill:#7f7f7f;fill-opacity:1;stroke-width:0.261738"
         id="path2668" />
      <path
         d="m 87.251978,35.757157 q 0.188123,-0.537787 0.824062,-0.537787 0.74227,0 0.74227,0.695238 v 0.73818 q 0,0.419188 0.05112,0.711597 h -0.243333 q -0.02658,-0.120644 -0.04703,-0.368068 -0.276051,0.419188 -0.756583,0.419188 -0.333306,0 -0.50916,-0.192213 -0.149272,-0.16154 -0.149272,-0.415098 0,-0.56846 0.707507,-0.687059 0.276051,-0.04703 0.695239,-0.06748 V 35.94119 q 0,-0.298544 -0.130869,-0.415099 -0.114509,-0.102241 -0.363977,-0.102241 -0.449861,0 -0.576639,0.421233 z m 1.314819,0.488712 q -0.314902,0.0061 -0.640029,0.06748 -0.503025,0.102241 -0.503025,0.482577 0,0.204482 0.130868,0.314902 0.116555,0.100197 0.312858,0.100197 0.421232,0 0.699328,-0.45395 z"
         style="font-style:normal;font-variant:normal;font-weight:normal;font-stretch:normal;font-family:'Yu Gothic';-inkscape-font-specification:'Yu Gothic';fill:#7f7f7f;fill-opacity:1;stroke-width:0.261738"
         id="path2670" />
      <path
         d="m 89.900019,35.27049 v 0.388516 q 0.351709,-0.439636 0.764763,-0.439636 0.28423,0 0.443726,0.177899 0.143137,0.157451 0.143137,0.413053 v 1.554063 h -0.263782 v -1.445687 q 0,-0.464174 -0.388515,-0.464174 -0.363978,0 -0.691149,0.435546 v 1.474315 H 89.648507 V 35.27049 Z"
         style="font-style:normal;font-variant:normal;font-weight:normal;font-stretch:normal;font-family:'Yu Gothic';-inkscape-font-specification:'Yu Gothic';fill:#7f7f7f;fill-opacity:1;stroke-width:0.261738"
         id="path2672" />
      <path
         d="m 93.609321,35.818502 -0.255602,0.07566 q -0.112465,-0.462129 -0.531653,-0.462129 -0.308768,0 -0.476443,0.261737 -0.147227,0.233109 -0.147227,0.61958 0,0.44986 0.192213,0.687059 0.163585,0.202437 0.431457,0.202437 0.441681,0 0.554146,-0.470308 l 0.249468,0.08384 q -0.196303,0.599132 -0.803614,0.599132 -0.433502,0 -0.676835,-0.333305 -0.214706,-0.292409 -0.214706,-0.760673 0,-0.535743 0.28014,-0.840421 0.241289,-0.261736 0.611401,-0.261736 0.308768,0 0.517339,0.171764 0.190168,0.153362 0.269916,0.427368 z"
         style="font-style:normal;font-variant:normal;font-weight:normal;font-stretch:normal;font-family:'Yu Gothic';-inkscape-font-specification:'Yu Gothic';fill:#7f7f7f;fill-opacity:1;stroke-width:0.261738"
         id="path2674" />
      <path
         d="m 95.879072,36.337886 h -1.519301 q 0,0.439636 0.212661,0.676835 0.177899,0.196303 0.45395,0.196303 0.451905,0 0.592998,-0.449861 l 0.243333,0.09202 q -0.216751,0.562325 -0.840421,0.562325 -0.439636,0 -0.693193,-0.333305 -0.22493,-0.294454 -0.22493,-0.760673 0,-0.531653 0.288319,-0.840421 0.243334,-0.261736 0.607311,-0.261736 0.415099,0 0.660477,0.321036 0.218796,0.286275 0.218796,0.730001 z M 95.61938,36.141583 q -0.02863,-0.363978 -0.212662,-0.552101 -0.157451,-0.161541 -0.402829,-0.161541 -0.282185,0 -0.458039,0.218796 -0.155407,0.190168 -0.1779,0.494846 z"
         style="font-style:normal;font-variant:normal;font-weight:normal;font-stretch:normal;font-family:'Yu Gothic';-inkscape-font-specification:'Yu Gothic';fill:#7f7f7f;fill-opacity:1;stroke-width:0.261738"
         id="path2676" />
      <path
         d="m 96.836046,34.25626 v 1.394566 q 0.355798,-0.431456 0.756583,-0.431456 0.282185,0 0.443725,0.177899 0.143138,0.157451 0.143138,0.408964 v 1.558152 H 97.91571 v -1.445687 q 0,-0.464174 -0.388516,-0.464174 -0.359888,0 -0.691148,0.435546 v 1.474315 H 96.576353 V 34.25626 Z"
         style="font-style:normal;font-variant:normal;font-weight:normal;font-stretch:normal;font-family:'Yu Gothic';-inkscape-font-specification:'Yu Gothic';fill:#7f7f7f;fill-opacity:1;stroke-width:0.261738"
         id="path2678" />
      <path
         d="m 98.946299,35.757157 q 0.188123,-0.537787 0.824062,-0.537787 0.742269,0 0.742269,0.695238 v 0.73818 q 0,0.419188 0.0511,0.711597 h -0.24333 q -0.0266,-0.120644 -0.047,-0.368068 -0.276054,0.419188 -0.756587,0.419188 -0.333305,0 -0.50916,-0.192213 -0.149272,-0.16154 -0.149272,-0.415098 0,-0.56846 0.707508,-0.687059 0.276051,-0.04703 0.695241,-0.06748 V 35.94119 q 0,-0.298544 -0.13087,-0.415099 -0.11451,-0.102241 -0.363979,-0.102241 -0.44986,0 -0.576639,0.421233 z m 1.314821,0.488712 q -0.314905,0.0061 -0.640031,0.06748 -0.503025,0.102241 -0.503025,0.482577 0,0.204482 0.130868,0.314902 0.116555,0.100197 0.312857,0.100197 0.421233,0 0.699331,-0.45395 z"
         style="font-style:normal;font-variant:normal;font-weight:normal;font-stretch:normal;font-family:'Yu Gothic';-inkscape-font-specification:'Yu Gothic';fill:#7f7f7f;fill-opacity:1;stroke-width:0.261738"
         id="path2680" />
      <path
         d="m 101.60252,34.25626 v 3.108125 h -0.25969 V 34.25626 Z"
         style="font-style:normal;font-variant:normal;font-weight:normal;font-stretch:normal;font-family:'Yu Gothic';-inkscape-font-specification:'Yu Gothic';fill:#7f7f7f;fill-opacity:1;stroke-width:0.261738"
         id="path2682" />
      <path
         d="m 102.70059,34.25626 v 3.108125 h -0.2597 V 34.25626 Z"
         style="font-style:normal;font-variant:normal;font-weight:normal;font-stretch:normal;font-family:'Yu Gothic';-inkscape-font-specification:'Yu Gothic';fill:#7f7f7f;fill-opacity:1;stroke-width:0.261738"
         id="path2684" />
      <path
         d="m 103.87022,36.937018 v 0.427367 h -0.41919 v -0.427367 z"
         style="font-style:normal;font-variant:normal;font-weight:normal;font-stretch:normal;font-family:'Yu Gothic';-inkscape-font-specification:'Yu Gothic';fill:#7f7f7f;fill-opacity:1;stroke-width:0.261738"
         id="path2686" />
    </g>
    <path
       style="fill:#7f7f7f;fill-opacity:1;stroke:none;stroke-width:0.264583px;stroke-linecap:butt;stroke-linejoin:miter;stroke-opacity:1"
       d="m 107.6428,34.051806 h 0.33409 l 0.0167,3.29911 0.79347,-0.810162 v 0.334087 l -0.79347,0.985557 h -0.31737 l -0.77676,-0.985557 v -0.334087 l 0.77676,0.810162 z"
       id="path2593" />
  </g>
</svg>
