<?xml version="1.0" encoding="UTF-8" standalone="no"?>
<svg
   xmlns:dc="http://purl.org/dc/elements/1.1/"
   xmlns:cc="http://creativecommons.org/ns#"
   xmlns:rdf="http://www.w3.org/1999/02/22-rdf-syntax-ns#"
   xmlns:svg="http://www.w3.org/2000/svg"
   xmlns="http://www.w3.org/2000/svg"
   width="640"
   height="480"
   viewBox="0 0 169.33333 127"
   version="1.1"
   id="svg916">
  <title
     id="title1479">Zureteiku</title>
  <defs
     id="defs910" />
  <metadata
     id="metadata913">
    <rdf:RDF>
      <cc:Work
         rdf:about="">
        <dc:format>image/svg+xml</dc:format>
        <dc:type
           rdf:resource="http://purl.org/dc/dcmitype/StillImage" />
        <dc:title>Zureteiku</dc:title>
        <dc:date>2021/1/28</dc:date>
        <cc:license
           rdf:resource="http://creativecommons.org/publicdomain/zero/1.0/" />
      </cc:Work>
      <cc:License
         rdf:about="http://creativecommons.org/publicdomain/zero/1.0/">
        <cc:permits
           rdf:resource="http://creativecommons.org/ns#Reproduction" />
        <cc:permits
           rdf:resource="http://creativecommons.org/ns#Distribution" />
        <cc:permits
           rdf:resource="http://creativecommons.org/ns#DerivativeWorks" />
      </cc:License>
    </rdf:RDF>
  </metadata>
  <g
     id="layer6">
    <rect
       style="fill:#ffffff;fill-opacity:1;stroke:none;stroke-width:0;stroke-miterlimit:4;stroke-dasharray:none;stroke-opacity:1"
       id="rect1362"
       width="169.33333"
       height="127"
       x="0"
       y="0" />
  </g>
  <g
     id="layer2"
     style="display:inline;opacity:1">
    <path
       id="path2866"
       style="display:inline;opacity:1;fill:#797979;fill-opacity:0.995816;stroke:none;stroke-width:23.5249;stroke-miterlimit:4;stroke-dasharray:23.5249, 23.5249;stroke-dashoffset:0"
       d="M 51.523438,190.16211 A 67.301416,67.175146 0 0 0 0.07226562,214.17578 v 86.32031 a 67.301416,67.175146 0 0 0 51.57226538,24.01563 67.301416,67.175146 0 0 0 67.300779,-67.17578 67.301416,67.175146 0 0 0 -67.300779,-67.17383 67.301416,67.175146 0 0 0 -0.121093,0 z"
       transform="scale(0.26458333)" />
    <path
       id="path2871"
       style="display:inline;opacity:1;fill:#797979;fill-opacity:0.995816;stroke:none;stroke-width:19.3369;stroke-miterlimit:4;stroke-dasharray:19.3369, 19.3369;stroke-dashoffset:0"
       d="m 135.48633,102.48242 v 127.88086 a 88.640882,77.529207 0 0 0 38.51172,-63.9414 88.640882,77.529207 0 0 0 -38.51172,-63.93946 z"
       transform="scale(0.26458333)" />
    <path
       id="path2868"
       style="display:inline;opacity:1;fill:#797979;fill-opacity:0.995816;stroke:none;stroke-width:5.32131;stroke-miterlimit:4;stroke-dasharray:5.32131, 5.32131;stroke-dashoffset:0"
       d="M 27.548039,21.314978 A 19.295299,19.143179 0 0 0 8.2852823,40.457995 19.295299,19.143179 0 0 0 27.580627,59.601012 19.295299,19.143179 0 0 0 35.852644,57.752545 V 23.163444 a 19.295299,19.143179 0 0 0 -8.272017,-1.848466 19.295299,19.143179 0 0 0 -0.03259,0 z" />
    <path
       id="path2877"
       style="display:inline;opacity:1;fill:#797979;fill-opacity:0.995816;stroke:none;stroke-width:4.16281;stroke-miterlimit:4;stroke-dasharray:4.16281, 4.16281;stroke-dashoffset:0"
       d="M 82.235194,24.321513 A 18.200912,16.503893 0 0 0 64.077741,40.825414 18.200912,16.503893 0 0 0 82.278747,57.329315 18.200912,16.503893 0 0 0 92.569404,54.43802 V 27.212808 a 18.200912,16.503893 0 0 0 -10.290657,-2.891295 18.200912,16.503893 0 0 0 -0.04355,0 z" />
    <path
       id="path2879"
       style="display:inline;opacity:1;fill:#797979;fill-opacity:0.995816;stroke:none;stroke-width:5.54893;stroke-miterlimit:4;stroke-dasharray:5.54893, 5.54893;stroke-dashoffset:0"
       d="m 92.458034,19.046212 v 28.90745 A 10.498301,14.805205 0 0 0 100.68238,33.49968 10.498301,14.805205 0 0 0 92.458034,19.046212 Z" />
    <path
       id="path2881"
       style="display:inline;opacity:1;fill:#797979;fill-opacity:1;stroke:none;stroke-width:25.6548;stroke-miterlimit:4;stroke-dasharray:25.6548, 25.6548;stroke-dashoffset:0"
       d="m 444.3418,108.08594 a 89.272241,83.842654 0 0 0 -89.27344,83.84375 89.272241,83.842654 0 0 0 89.27344,83.84179 89.272241,83.842654 0 0 0 19.31836,-1.98828 V 110.07422 a 89.272241,83.842654 0 0 0 -19.31836,-1.98828 z"
       transform="scale(0.26458333)" />
    <path
       id="path864"
       style="display:inline;opacity:1;fill:#797979;fill-opacity:1;stroke-width:0.0714741"
       d="M 122.63113,21.781099 V 66.019743 A 24.666315,22.309814 0 0 0 144.0826,43.900679 24.666315,22.309814 0 0 0 122.63113,21.781099 Z" />
    <path
       id="path871"
       style="opacity:1;fill:#797979;fill-opacity:1;stroke-width:0.475378"
       d="m 575.17773,147.14258 a 77.321416,74.464286 0 0 0 -77.32031,74.46484 77.321416,74.464286 0 0 0 77.32031,74.46485 77.321416,74.464286 0 0 0 65.17969,-34.40625 v -80.11914 a 77.321416,74.464286 0 0 0 -65.17969,-34.4043 z"
       transform="scale(0.26458333)" />
    <path
       id="path878"
       style="opacity:1;fill:#797979;fill-opacity:1;stroke-width:0.408881"
       d="m 166.66016,206.42773 a 92.857129,82.678578 0 0 0 -31.17383,4.83985 v 155.67969 a 92.857129,82.678578 0 0 0 31.29883,4.83789 92.857129,82.678578 0 0 0 61.07226,-20.40039 V 226.82812 a 92.857129,82.678578 0 0 0 -61.07226,-20.40039 92.857129,82.678578 0 0 0 -0.125,0 z"
       transform="scale(0.26458333)" />
    <path
       id="path907"
       style="opacity:1;fill:#797979;fill-opacity:1;stroke-width:0.123831"
       d="M 35.873853,49.830032 A 20.051948,22.489582 0 0 0 21.935769,71.248364 20.051948,22.489582 0 0 0 35.873853,92.66721 Z" />
    <path
       id="path914"
       style="opacity:1;fill:#797979;fill-opacity:1;stroke-width:0.101414"
       d="M 60.304132,53.464436 A 15.542254,23.386084 0 0 0 53.854593,72.430203 15.542254,23.386084 0 0 0 60.304132,91.39597 Z" />
    <path
       id="path921"
       style="opacity:1;fill:#797979;fill-opacity:1;stroke-width:0.105424"
       d="m 131.62932,65.673509 a 20.945699,19.654762 0 0 0 -8.97447,1.952337 v 35.404044 a 20.945699,19.654762 0 0 0 9.10168,1.95285 20.945699,19.654762 0 0 0 20.94578,-19.654616 20.945699,19.654762 0 0 0 -20.94578,-19.654615 20.945699,19.654762 0 0 0 -0.12721,0 z" />
    <path
       id="path928"
       style="opacity:1;fill:#797979;fill-opacity:1;stroke-width:0.401159"
       d="m 227.85742,276.03711 v 105.78516 a 67.857143,66.785715 0 0 0 26.42774,-52.89454 67.857143,66.785715 0 0 0 -26.42774,-52.89062 z"
       transform="scale(0.26458333)" />
    <path
       id="path935"
       style="opacity:1;fill:#797979;fill-opacity:1;stroke-width:0.443664"
       d="m 349.28516,334.6582 a 42.85714,44.285722 0 0 0 -15.71289,34.26953 42.85714,44.285722 0 0 0 15.71289,34.27344 z"
       transform="scale(0.26458333)" />
    <path
       id="path955"
       style="opacity:1;fill:#797979;fill-opacity:1;stroke-width:0.224688"
       d="M 76.792801,53.955878 A 21.776745,21.969865 0 0 0 60.223535,61.66962 v 28.511954 a 21.776745,21.969865 0 0 0 16.569266,7.714258 21.776745,21.969865 0 0 0 15.62223,-6.664193 v -30.61105 a 21.776745,21.969865 0 0 0 -15.62223,-6.664711 z" />
    <path
       id="path966"
       style="opacity:1;fill:#797979;fill-opacity:1;stroke-width:0.110115"
       d="m 101.71245,77.485191 a 13.635231,12.158174 0 0 0 -9.314922,3.364138 v 17.588073 a 13.635231,12.158174 0 0 0 9.415272,3.364138 13.635231,12.158174 0 0 0 13.63523,-12.158435 13.635231,12.158174 0 0 0 -13.63523,-12.157914 13.635231,12.158174 0 0 0 -0.10035,0 z" />
    <path
       id="path973"
       style="opacity:1;fill:#797979;fill-opacity:1;stroke-width:0.444563"
       d="m 463.66016,281.51172 a 71.249998,72.321426 0 0 0 -43.30274,66.52344 71.249998,72.321426 0 0 0 43.30274,66.52539 z"
       transform="scale(0.26458333)" />
    <path
       id="path980"
       style="opacity:1;fill:#797979;fill-opacity:1;stroke-width:0.101364"
       d="m 92.397528,52.792127 v 30.58211 A 21.65558,22.347841 0 0 0 98.260535,68.083183 21.65558,22.347841 0 0 0 92.397528,52.792127 Z" />
    <rect
       style="display:inline;opacity:1;fill:#797979;fill-opacity:1;stroke-width:0.100038"
       id="rect987"
       width="9.3620205"
       height="21.969866"
       x="92.397675"
       y="39.640251" />
    <path
       style="opacity:1;fill:none;stroke:#fffffb;stroke-width:0.841375;stroke-linecap:butt;stroke-linejoin:miter;stroke-miterlimit:4;stroke-dasharray:none;stroke-opacity:1"
       d="M 110.12341,50.473626 94.219966,60.604127"
       id="path1101-5-4-49" />
    <path
       style="opacity:1;fill:none;stroke:#fffffb;stroke-width:0.841375;stroke-linecap:butt;stroke-linejoin:miter;stroke-miterlimit:4;stroke-dasharray:none;stroke-opacity:1"
       d="M 136.62899,26.75562 123.4671,35.197704"
       id="path1101-5-4-7" />
    <path
       style="opacity:1;fill:none;stroke:#fffffb;stroke-width:0.841375;stroke-linecap:butt;stroke-linejoin:miter;stroke-miterlimit:4;stroke-dasharray:none;stroke-opacity:1"
       d="m 124.95898,62.238135 -2.62457,9.934389"
       id="path1101-5-4-1" />
    <path
       style="display:inline;opacity:1;fill:none;stroke:#fffffb;stroke-width:0.841375;stroke-linecap:butt;stroke-linejoin:miter;stroke-miterlimit:4;stroke-dasharray:none;stroke-opacity:1"
       d="m 123.43962,74.744266 -8.34384,30.781794"
       id="path1101-5-4-1-7" />
    <rect
       style="fill:#797979;fill-opacity:1;stroke:none;stroke-width:0;stroke-miterlimit:4;stroke-dasharray:none;stroke-opacity:1"
       id="rect1282"
       width="1.2166063"
       height="4.8191967"
       x="122.6769"
       y="74.402252"
       ry="0.034118202" />
  </g>
  <g
     id="layer3"
     style="display:inline;opacity:1">
    <path
       id="path990"
       style="opacity:1;fill:#ffffff;fill-opacity:1;stroke-width:0.649534"
       d="m 123.28906,102.27734 a 50.381363,46.593286 0 0 0 -50.304685,46.59375 50.381363,46.593286 0 0 0 50.380855,46.59375 50.381363,46.593286 0 0 0 12.1211,-1.36914 v -90.44922 a 50.381363,46.593286 0 0 0 -12.1211,-1.36914 50.381363,46.593286 0 0 0 -0.0762,0 z"
       transform="scale(0.26458333)" />
    <path
       id="path997"
       style="opacity:1;fill:#ffffff;fill-opacity:1;stroke-width:0.184277"
       d="M 35.785415,31.167607 V 54.826111 A 13.790012,12.528258 0 0 0 45.034977,42.996858 13.790012,12.528258 0 0 0 35.785415,31.167607 Z" />
    <path
       id="path1004"
       style="opacity:1;fill:#ffffff;fill-opacity:1;stroke-width:0.153038"
       d="M 35.800108,64.624478 V 86.583344 A 10.494827,11.659633 0 0 0 42.763281,75.603652 10.494827,11.659633 0 0 0 35.800108,64.624478 Z" />
    <path
       id="path1011"
       style="opacity:1;fill:#ffffff;fill-opacity:1;stroke-width:0.748089"
       d="m 305.84375,224.00195 a 56.442278,54.548236 0 0 0 -56.33594,54.54688 56.442278,54.548236 0 0 0 56.44141,54.54883 56.442278,54.548236 0 0 0 43.33594,-19.59961 v -69.89844 a 56.442278,54.548236 0 0 0 -43.33594,-19.59766 56.442278,54.548236 0 0 0 -0.10547,0 z"
       transform="scale(0.26458333)" />
    <path
       id="path1018"
       style="opacity:1;fill:#ffffff;fill-opacity:1;stroke-width:0.3886"
       d="m 349.28516,346.67383 a 25.632619,23.359776 0 0 0 -7.60157,16.60156 25.632619,23.359776 0 0 0 7.60157,16.60352 z"
       transform="scale(0.26458333)" />
    <path
       id="path1025"
       style="opacity:1;fill:#ffffff;fill-opacity:1;stroke-width:0.109889"
       d="m 95.968495,82.319004 a 5.7172271,5.4456163 0 0 0 -3.570967,1.192695 v 8.505938 a 5.7172271,5.4456163 0 0 0 3.570967,1.192694 5.7172271,5.4456163 0 0 0 5.717175,-5.445664 5.7172271,5.4456163 0 0 0 -5.717175,-5.445663 z" />
    <path
       id="path1032"
       style="opacity:1;fill:#ffffff;fill-opacity:1;stroke-width:0.178854"
       d="m 122.70982,41.272933 a 16.23918,14.365737 0 0 0 -14.93345,14.319022 16.23918,14.365737 0 0 0 14.93345,14.319023 z" />
    <path
       id="path1039"
       style="opacity:1;fill:#ffffff;fill-opacity:1;stroke-width:0.163873"
       d="m 124.22592,34.677987 a 14.40965,14.165286 0 0 0 -1.57107,0.08475 v 28.161072 a 14.40965,14.165286 0 0 0 1.57107,0.08475 14.40965,14.165286 0 0 0 7.61594,-2.139921 20.472882,19.702009 0 0 1 -0.13239,-2.235007 20.472882,19.702009 0 0 1 6.2269,-14.149522 14.40965,14.165286 0 0 0 -13.71045,-9.80612 z" />
    <path
       id="path1046"
       style="opacity:1;fill:#ffffff;fill-opacity:1;stroke-width:0.246039"
       d="M 92.34893,56.22809 V 74.66676 A 11.252609,12.595076 0 0 0 95.93488,65.447684 11.252609,12.595076 0 0 0 92.34893,56.22809 Z" />
    <path
       id="path1053"
       style="opacity:1;fill:#ffffff;fill-opacity:1;stroke-width:0.103448"
       d="m 32.926505,60.603534 a 9.7981326,11.459182 0 0 0 -2.856826,0.523483 17.823907,17.773424 0 0 1 1.423498,6.959783 17.823907,17.773424 0 0 1 -5.096559,12.44265 9.7981326,11.459182 0 0 0 6.601269,2.992067 9.7981326,11.459182 0 0 0 2.875966,-0.504364 V 61.108415 a 9.7981326,11.459182 0 0 0 -2.875966,-0.504881 9.7981326,11.459182 0 0 0 -0.07138,0 z" />
  </g>
  <g
     id="layer4"
     style="display:inline;opacity:1">
    <path
       style="fill:none;stroke:#fffffb;stroke-width:0.841778;stroke-linecap:butt;stroke-linejoin:miter;stroke-miterlimit:4;stroke-dasharray:none;stroke-opacity:1"
       d="M 35.873953,22.276972 18.294186,52.066218"
       id="path1101" />
    <path
       id="path2866-7"
       style="display:inline;opacity:1;fill:#797979;fill-opacity:0.995816;stroke:none;stroke-width:6.2243;stroke-miterlimit:4;stroke-dasharray:6.2243, 6.2243;stroke-dashoffset:0"
       d="M 13.632243,50.313725 A 17.806833,17.773424 0 0 0 0.01912028,56.667341 V 79.506257 A 17.806833,17.773424 0 0 0 13.664282,85.860393 17.806833,17.773424 0 0 0 31.470945,68.0868 17.806833,17.773424 0 0 0 13.664282,50.313725 a 17.806833,17.773424 0 0 0 -0.03204,0 z" />
    <path
       style="opacity:1;fill:none;stroke:#fffffb;stroke-width:0.841375;stroke-linecap:butt;stroke-linejoin:miter;stroke-miterlimit:4;stroke-dasharray:none;stroke-opacity:1"
       d="M 48.671441,53.994097 60.287202,94.808211"
       id="path1101-5" />
    <path
       style="opacity:1;fill:none;stroke:#fffffb;stroke-width:0.841375;stroke-linecap:butt;stroke-linejoin:miter;stroke-miterlimit:4;stroke-dasharray:none;stroke-opacity:1"
       d="M 61.421131,81.749597 36.455175,97.700928"
       id="path1101-3" />
    <rect
       style="fill:#797979;fill-opacity:1;stroke:#fffffb;stroke-width:0;stroke-miterlimit:4;stroke-dasharray:none;stroke-opacity:1"
       id="rect1141"
       width="2.0552456"
       height="3.7797616"
       x="60.287201"
       y="80.792412" />
    <rect
       style="fill:#797979;fill-opacity:1;stroke:#fffffb;stroke-width:0;stroke-miterlimit:4;stroke-dasharray:none;stroke-opacity:1"
       id="rect1143"
       width="1.4882817"
       height="3.9451263"
       x="60.287201"
       y="92.415176" />
    <path
       style="opacity:1;fill:none;stroke:#fffffb;stroke-width:0.841375;stroke-linecap:butt;stroke-linejoin:miter;stroke-miterlimit:4;stroke-dasharray:none;stroke-opacity:1"
       d="M 71.133897,83.560019 59.907908,90.902945"
       id="path1101-5-4" />
    <path
       style="fill:#797979;fill-opacity:1;stroke:none;stroke-width:0.264583px;stroke-linecap:butt;stroke-linejoin:miter;stroke-opacity:1"
       d="m 60.287201,88.750187 v 3.223937 c 0,0 -1.836259,-2.555764 0,-3.324164"
       id="path1160" />
    <path
       style="opacity:1;fill:none;stroke:#fffffb;stroke-width:0.841375;stroke-linecap:butt;stroke-linejoin:miter;stroke-miterlimit:4;stroke-dasharray:none;stroke-opacity:1"
       d="m 104.97348,76.931959 3.70407,24.682581"
       id="path1101-5-4-9" />
    <path
       style="opacity:1;fill:none;stroke:#fffffb;stroke-width:0.841375;stroke-linecap:butt;stroke-linejoin:miter;stroke-miterlimit:4;stroke-dasharray:none;stroke-opacity:1"
       d="M 93.586952,35.307332 84.817809,60.462385"
       id="path1101-5-4-4" />
    <rect
       style="fill:#797979;fill-opacity:1;stroke:none;stroke-width:0;stroke-miterlimit:4;stroke-dasharray:none;stroke-opacity:1"
       id="rect1183"
       width="1.842635"
       height="7.6067705"
       x="92.415176"
       y="33.687126" />
    <path
       style="opacity:1;fill:none;stroke:#fffffb;stroke-width:0.841375;stroke-linecap:butt;stroke-linejoin:miter;stroke-miterlimit:4;stroke-dasharray:none;stroke-opacity:1"
       d="m 96.280033,19.999296 -4.847642,13.15431"
       id="path1101-5-4-5" />
    <rect
       style="fill:#797979;fill-opacity:1;stroke:none;stroke-width:0;stroke-miterlimit:4;stroke-dasharray:none;stroke-opacity:1"
       id="rect1191"
       width="2.2678561"
       height="6.5673361"
       x="90.147324"
       y="29.19866" />
    <path
       id="rect1226"
       style="fill:#797979;fill-opacity:1;stroke:none;stroke-width:0;stroke-miterlimit:4;stroke-dasharray:none;stroke-opacity:1"
       d="m 434.10742,259.64258 v 15.57617 a 89.27224,83.842653 0 0 0 10.23438,0.55273 89.27224,83.842653 0 0 0 19.31836,-1.98828 v -9.55273 A 61.240497,54.295698 0 0 1 443.5,259.64258 Z"
       transform="scale(0.26458333)" />
  </g>
  <g
     id="layer5"
     style="display:inline">
    <g
       aria-label="out of step"
       transform="scale(1.0140107,0.98618289)"
       id="text1302"
       style="font-style:normal;font-weight:normal;font-size:3.71751px;line-height:1.25;font-family:sans-serif;display:inline;opacity:1;fill:#797979;fill-opacity:1;stroke:none;stroke-width:0.0929381">
      <path
         d="m 70.414537,74.946813 c 0,0.356901 -0.10295,0.635731 -0.308851,0.836488 -0.205901,0.199362 -0.448219,0.299043 -0.726956,0.299043 -0.260527,0 -0.484637,-0.08853 -0.672328,-0.265584 -0.186292,-0.177057 -0.279438,-0.426609 -0.279438,-0.748656 0,-0.35969 0.10295,-0.640611 0.308851,-0.842762 0.207302,-0.20215 0.450321,-0.303225 0.729057,-0.303225 0.260528,0 0.483937,0.08992 0.670227,0.269766 0.186292,0.178451 0.279438,0.430095 0.279438,0.75493 z m -0.42871,0.106726 c 0,-0.217487 0.02621,-0.226127 -0.08444,-0.394818 -0.109255,-0.170086 -0.265432,-0.255129 -0.468531,-0.255129 -0.201698,0 -0.357174,0.08016 -0.466428,0.240489 -0.107853,0.160327 -0.145471,0.145227 -0.145471,0.357138 0,0.218881 0.01386,0.186298 0.123111,0.354989 0.110653,0.168692 0.26823,0.253037 0.472731,0.253037 0.201698,0 0.356474,-0.08016 0.464327,-0.24049 0.107853,-0.16172 0.104701,-0.1047 0.104701,-0.315216 z"
         style="font-style:normal;font-variant:normal;font-weight:normal;font-stretch:normal;font-family:Candara;-inkscape-font-specification:Candara;opacity:1;fill:#797979;fill-opacity:1;stroke-width:0.107322"
         id="path1312" />
      <path
         d="m 72.563791,75.689027 c -0.129733,0.176117 -0.437761,0.350361 -0.724917,0.348723 -0.313143,-0.0054 -0.486694,-0.100771 -0.651483,-0.355351 -0.09439,-0.101651 -0.131043,-0.427424 -0.131043,-0.733586 0,-0.04357 0.0012,-0.108309 0.0036,-0.194226 0.0024,-0.08592 0.0036,-0.14461 0.0036,-0.176073 0,-0.177889 -0.01029,-0.387241 -0.03086,-0.628056 l 0.517014,0.02083 c -0.01452,0.233554 -0.01363,0.391305 -0.01363,0.557092 0,0.38119 -0.02443,0.69796 0.02393,0.814133 0.04961,0.114962 0.108327,0.126033 0.280168,0.126033 0.19362,0 0.29529,0.0094 0.386548,-0.111083 0.02883,-0.631331 -3.34e-4,-1.108237 -0.0066,-1.377363 l 0.496279,-0.0172 c -0.0097,0.227503 -0.03898,0.537944 -0.03898,0.939707 0.0137,0.391171 -0.02546,0.62131 -0.113607,0.786422 z"
         style="font-style:normal;font-variant:normal;font-weight:normal;font-stretch:normal;font-family:Candara;-inkscape-font-specification:Candara;opacity:1;fill:#797979;fill-opacity:1;stroke-width:0.0929381"
         id="path1314" />
      <path
         d="m 73.373277,75.995682 c -0.0095,-0.311022 0.01998,-1.189193 0.02241,-1.60051 -0.06777,0 -0.232835,-0.0048 -0.364739,0.0025 l -0.0054,-0.405731 c 0.114962,0.0073 0.266747,0.0067 0.357506,0.0067 0,-0.07261 -0.02249,-0.609758 -0.03893,-0.894612 l 0.521451,0.0087 c -0.02057,0.254127 -0.0023,0.779998 -0.0023,0.89012 0.118592,0 0.07269,0.01491 0.302616,0.0028 l -4.79e-4,0.421377 c -0.217823,-0.0073 -0.213298,-0.01089 -0.300355,-0.01508 0.0039,0.477912 -6.61e-4,1.132108 -0.003,1.569644 z"
         style="font-style:normal;font-variant:normal;font-weight:normal;font-stretch:normal;font-family:Candara;-inkscape-font-specification:Candara;display:inline;opacity:1;fill:#797979;fill-opacity:1;stroke-width:0.0929381"
         id="path1316" />
      <path
         d="m 78.979795,73.188705 -0.02182,0.481845 c -0.143924,-0.01853 -0.308048,-0.01778 -0.35295,-0.0032 -0.06032,0.119166 -0.03283,0.228435 -0.06166,0.452304 0.161398,-0.0059 0.172754,-6.98e-4 0.414606,-0.008 l 0.0011,0.308155 c -0.235202,-0.008 -0.185408,-0.01193 -0.358,-0.006 0,0.603204 0.01275,1.125576 0.02673,1.578974 H 78.17679 c 0.0163,-0.441466 -0.01014,-0.95791 -0.01014,-1.573046 -0.07103,0 -0.160438,-0.01381 -0.337422,-0.0059 l 0.01223,-0.310107 c 0.160682,0.01061 0.26908,0.0041 0.348258,0.0041 0.0058,-0.369102 0.0085,-0.582805 0.09465,-0.741891 0.187806,-0.177165 0.543499,-0.187085 0.695483,-0.177175 z"
         style="font-style:normal;font-variant:normal;font-weight:normal;font-stretch:normal;font-family:Candara;-inkscape-font-specification:Candara;opacity:1;fill:#797979;fill-opacity:1;stroke-width:0.0954184"
         id="path1320" />
      <path
         d="m 81.785998,75.349208 q 0,0.591827 -0.816019,0.591827 -0.360974,0 -0.673818,-0.06688 l 0.06782,-0.29794 q 0.284402,0.10134 0.616935,0.10134 0.476924,0 0.476924,-0.251323 0,-0.121608 -0.107193,-0.192547 -0.105011,-0.07297 -0.350036,-0.162144 -0.310656,-0.1135 -0.45067,-0.218894 -0.205646,-0.156064 -0.205646,-0.376986 0,-0.231056 0.188144,-0.395227 0.188144,-0.166198 0.573183,-0.166198 0.376288,0 0.603811,0.05878 l -0.06782,0.291859 q -0.236275,-0.08715 -0.546931,-0.08715 -0.420041,0 -0.420041,0.224975 0,0.113501 0.09407,0.18444 0.09407,0.06891 0.367536,0.168224 0.295343,0.107426 0.437545,0.210787 0.212208,0.160118 0.212208,0.383066 z"
         style="font-style:normal;font-variant:normal;font-weight:normal;font-stretch:normal;font-family:Candara;-inkscape-font-specification:Candara;opacity:1;fill:#797979;fill-opacity:1;stroke-width:0.107813"
         id="path1322" />
      <path
         d="m 85.290186,74.746371 c 0,0.05494 0.0048,0.306869 -0.0019,0.403656 l -1.638293,-0.02676 c 0.01677,0.190968 0.01366,0.225437 0.186376,0.354928 0.172715,0.128184 0.222216,0.09167 0.507279,0.09167 0.254881,0 0.371522,-0.09965 0.52931,-0.215119 l 0.340467,0.184415 c -0.131715,0.12647 -0.417912,0.411883 -0.728128,0.411883 -0.435979,0 -0.768833,-0.09287 -0.99856,-0.278604 -0.228051,-0.185735 -0.342076,-0.412019 -0.342076,-0.67885 0,-0.285143 0.103964,-0.530393 0.311893,-0.735749 0.209605,-0.206663 0.490476,-0.309994 0.842613,-0.309994 0.323631,0 0.569288,0.07456 0.736973,0.223666 0.169361,0.149113 0.254041,0.340735 0.254041,0.574866 z m -0.460818,0.02915 c -0.114156,-0.317243 -0.140079,-0.339811 -0.53401,-0.350103 -0.320902,-0.0084 -0.435866,-0.0019 -0.622126,0.329765 z"
         style="font-style:normal;font-variant:normal;font-weight:normal;font-stretch:normal;font-family:Candara;-inkscape-font-specification:Candara;opacity:1;fill:#797979;fill-opacity:1;stroke-width:0.11374"
         id="path1326" />
      <path
         d="m 87.743727,74.877231 c -0.02589,0.543499 -0.03168,0.574544 -0.209194,0.781903 -0.176085,0.206087 -0.470524,0.376204 -0.785469,0.376204 -0.263409,0 -0.469245,-0.125821 -0.552276,-0.209783 0.01569,0.290888 0.0423,0.560371 0.04848,0.820715 l -0.526014,0.03354 c -0.01368,-0.912149 -0.0199,-1.789176 -0.02536,-2.719149 l 0.377934,-0.0058 0.03221,0.188914 h 0.02147 c 0.138862,-0.143753 0.363619,-0.215629 0.674271,-0.215629 0.27343,0 0.489597,0.08905 0.648502,0.267151 0.08645,0.202996 0.333757,0.413993 0.295448,0.681938 z m -0.423,0.01226 c -0.07042,-0.173797 -0.08029,-0.240212 -0.191956,-0.373787 -0.111662,-0.134847 -0.227649,-0.07651 -0.429501,-0.07651 -0.257683,0 -0.140659,0.02744 -0.407247,0.224764 0.0229,0.427441 0.0017,0.299794 0.0017,0.606382 0.115957,0.08651 0.121141,0.266191 0.306321,0.247135 0.325903,-0.03354 0.453062,-0.0067 0.56902,-0.15428 0.212356,-0.286811 0.09392,-0.16012 0.151625,-0.473703 z"
         style="font-style:normal;font-variant:normal;font-weight:normal;font-stretch:normal;font-family:Candara;-inkscape-font-specification:Candara;opacity:1;fill:#797979;fill-opacity:1;stroke-width:0.103642"
         id="path1328" />
      <path
         d="m 77.60864,74.93173 c 0,0.356901 -0.10295,0.635731 -0.308851,0.836488 -0.205901,0.199362 -0.448219,0.299043 -0.726956,0.299043 -0.260527,0 -0.484637,-0.08853 -0.672328,-0.265584 -0.186292,-0.177057 -0.279438,-0.426609 -0.279438,-0.748656 0,-0.35969 0.10295,-0.640611 0.308851,-0.842762 0.207302,-0.20215 0.450321,-0.303225 0.729057,-0.303225 0.260528,0 0.483937,0.08992 0.670227,0.269766 0.186292,0.178451 0.279438,0.430095 0.279438,0.75493 z m -0.42871,0.106726 c 0,-0.217487 0.02621,-0.226127 -0.08444,-0.394818 -0.109255,-0.170086 -0.265432,-0.255129 -0.468531,-0.255129 -0.201698,0 -0.357174,0.08016 -0.466428,0.240489 -0.107853,0.160327 -0.145471,0.145227 -0.145471,0.357138 0,0.218881 0.01386,0.186298 0.123111,0.354989 0.110653,0.168692 0.26823,0.253037 0.472731,0.253037 0.201698,0 0.356474,-0.08016 0.464327,-0.24049 0.107853,-0.16172 0.104701,-0.1047 0.104701,-0.315216 z"
         style="font-style:normal;font-variant:normal;font-weight:normal;font-stretch:normal;font-size:3.71751px;line-height:1.25;font-family:Candara;-inkscape-font-specification:Candara;display:inline;opacity:1;fill:#797979;fill-opacity:1;stroke:none;stroke-width:0.107322"
         id="path1312-4" />
      <path
         d="m 82.241821,75.928821 c -0.0095,-0.311022 0.01998,-1.189193 0.02241,-1.60051 -0.06777,0 -0.232835,-0.0048 -0.364739,0.0025 l -0.0054,-0.405731 c 0.114962,0.0073 0.266747,0.0067 0.357506,0.0067 0,-0.07261 -0.02249,-0.609758 -0.03893,-0.894612 l 0.521451,0.0087 c -0.02057,0.254127 -0.0023,0.779998 -0.0023,0.89012 0.118592,0 0.07269,0.01491 0.302616,0.0028 l -4.8e-4,0.421377 c -0.217823,-0.0073 -0.213298,-0.01089 -0.300355,-0.01508 0.0039,0.477912 -6.61e-4,1.132108 -0.003,1.569644 z"
         style="font-style:normal;font-variant:normal;font-weight:normal;font-stretch:normal;font-size:3.71751px;line-height:1.25;font-family:Candara;-inkscape-font-specification:Candara;display:inline;opacity:1;fill:#797979;fill-opacity:1;stroke:none;stroke-width:0.0929381"
         id="path1316-8" />
    </g>
  </g>
</svg>
